<?xml version="1.0" encoding="utf-8" standalone="no"?>
<!DOCTYPE svg PUBLIC "-//W3C//DTD SVG 1.1//EN"
  "http://www.w3.org/Graphics/SVG/1.1/DTD/svg11.dtd">
<!-- Created with matplotlib (http://matplotlib.sourceforge.net/) -->
<svg height="143pt" version="1.1" viewBox="0 0 203 143" width="203pt" xmlns="http://www.w3.org/2000/svg" xmlns:xlink="http://www.w3.org/1999/xlink">
 <defs>
  <style type="text/css">
*{stroke-linecap:square;stroke-linejoin:round;}
  </style>
 </defs>
 <g id="figure_1">
  <g id="patch_1">
   <path d="
M0 143.748
L203.148 143.748
L203.148 0
L0 0
z
" style="fill:#ffffff;"/>
  </g>
  <g id="axes_1">
   <g id="patch_2">
    <path d="
M36.5666 106.374
L190.959 106.374
L190.959 23.4884
L36.5666 23.4884
z
" style="fill:#ffffff;"/>
   </g>
   <g id="patch_3">
    <path clip-path="url(#p48aee31a5c)" d="
M36.5666 106.374
L36.5666 106.374
L39.6545 106.374
L39.6545 106.374
L42.7423 106.374
L42.7423 106.354
L45.8302 106.354
L45.8302 106.202
L48.918 106.202
L48.918 105.171
L52.0059 105.171
L52.0059 101.183
L55.0937 101.183
L55.0937 88.8947
L58.1816 88.8947
L58.1816 63.0199
L61.2694 63.0199
L61.2694 37.8321
L64.3573 37.8321
L64.3573 38.8244
L67.4451 38.8244
L67.4451 61.5316
L70.533 61.5316
L70.533 87.1201
L73.6208 87.1201
L73.6208 100.019
L76.7087 100.019
L76.7087 104.542
L79.7965 104.542
L79.7965 105.916
L82.8844 105.916
L82.8844 106.335
L85.9722 106.335
L85.9722 106.374
L89.0601 106.374
L89.0601 106.374
L92.1479 106.374
L92.1479 106.374
L95.2358 106.374
L95.2358 106.374
L98.3236 106.374
L98.3236 106.374
L101.411 106.374
L101.411 106.374
L104.499 106.374
L104.499 106.374
L107.587 106.374
L107.587 106.374
L110.675 106.374
L110.675 106.374
L113.763 106.374
L113.763 106.374
L116.851 106.374
L116.851 106.374
L119.939 106.374
L119.939 106.374
L123.026 106.374
L123.026 106.374
L126.114 106.374
L126.114 106.374
L129.202 106.374
L129.202 106.374
L132.29 106.374
L132.29 106.374
L135.378 106.374
L135.378 106.374
L138.466 106.374
L138.466 106.374
L141.554 106.374
L141.554 106.374
L144.641 106.374
L144.641 106.374
L147.729 106.374
L147.729 106.374
L150.817 106.374
L150.817 106.374
L153.905 106.374
L153.905 106.374
L156.993 106.374
L156.993 106.374
L160.081 106.374
L160.081 106.374
L163.168 106.374
L163.168 106.374
L166.256 106.374
L166.256 106.374
L169.344 106.374
L169.344 106.374
L172.432 106.374
L172.432 106.374
L175.52 106.374
L175.52 106.374
L178.608 106.374
L178.608 106.374
L181.696 106.374
L181.696 106.374
L184.783 106.374
L184.783 106.374
L187.871 106.374
L187.871 106.374" style="fill:#0000ff;opacity:0.45;stroke:#0000ff;"/>
   </g>
   <g id="patch_4">
    <path clip-path="url(#p48aee31a5c)" d="
M36.5666 106.374
L36.5666 106.119
L39.6545 106.119
L39.6545 103.514
L42.7423 103.514
L42.7423 97.4814
L45.8302 97.4814
L45.8302 90.9787
L48.918 90.9787
L48.918 80.7939
L52.0059 80.7939
L52.0059 76.0932
L55.0937 76.0932
L55.0937 75.6427
L58.1816 75.6427
L58.1816 75.6231
L61.2694 75.6231
L61.2694 77.1117
L64.3573 77.1117
L64.3573 77.2292
L67.4451 77.2292
L67.4451 89.6273
L70.533 89.6273
L70.533 90.2736
L73.6208 90.2736
L73.6208 97.168
L76.7087 97.168
L76.7087 96.4237
L79.7965 96.4237
L79.7965 100.909
L82.8844 100.909
L82.8844 102.613
L85.9722 102.613
L85.9722 102.495
L89.0601 102.495
L89.0601 104.062
L92.1479 104.062
L92.1479 104.591
L95.2358 104.591
L95.2358 105.394
L98.3236 105.394
L98.3236 105.512
L101.411 105.512
L101.411 105.688
L104.499 105.688
L104.499 105.982
L107.587 105.982
L107.587 106.001
L110.675 106.001
L110.675 106.256
L113.763 106.256
L113.763 106.276
L116.851 106.276
L116.851 106.276
L119.939 106.276
L119.939 106.236
L123.026 106.236
L123.026 106.236
L126.114 106.236
L126.114 106.374
L129.202 106.374
L129.202 106.334
L132.29 106.334
L132.29 106.354
L135.378 106.354
L135.378 106.374
L138.466 106.374
L138.466 106.374
L141.554 106.374
L141.554 106.374
L144.641 106.374
L144.641 106.374
L147.729 106.374
L147.729 106.374
L150.817 106.374
L150.817 106.374
L153.905 106.374
L153.905 106.374
L156.993 106.374
L156.993 106.374
L160.081 106.374
L160.081 106.374
L163.168 106.374
L163.168 106.374
L166.256 106.374
L166.256 106.374
L169.344 106.374
L169.344 106.374
L172.432 106.374
L172.432 106.374
L175.52 106.374
L175.52 106.374
L178.608 106.374
L178.608 106.374
L181.696 106.374
L181.696 106.374
L184.783 106.374
L184.783 106.374
L187.871 106.374
L187.871 106.374" style="fill:#008000;opacity:0.45;stroke:#008000;"/>
   </g>
   <g id="patch_5">
    <path clip-path="url(#p48aee31a5c)" d="
M36.5666 106.374
L36.5666 106.022
L39.6545 106.022
L39.6545 103.499
L42.7423 103.499
L42.7423 97.4567
L45.8302 97.4567
L45.8302 91.3949
L48.918 91.3949
L48.918 82.615
L52.0059 82.615
L52.0059 76.0251
L55.0937 76.0251
L55.0937 75.3798
L58.1816 75.3798
L58.1816 74.9888
L61.2694 74.9888
L61.2694 77.2375
L64.3573 77.2375
L64.3573 79.3494
L67.4451 79.3494
L67.4451 88.1684
L70.533 88.1684
L70.533 89.3612
L73.6208 89.3612
L73.6208 97.8283
L76.7087 97.8283
L76.7087 95.6577
L79.7965 95.6577
L79.7965 100.273
L82.8844 100.273
L82.8844 102.443
L85.9722 102.443
L85.9722 102.326
L89.0601 102.326
L89.0601 104.242
L92.1479 104.242
L92.1479 104.477
L95.2358 104.477
L95.2358 105.337
L98.3236 105.337
L98.3236 105.533
L101.411 105.533
L101.411 105.63
L104.499 105.63
L104.499 105.982
L107.587 105.982
L107.587 106.08
L110.675 106.08
L110.675 106.139
L113.763 106.139
L113.763 106.334
L116.851 106.334
L116.851 106.334
L119.939 106.334
L119.939 106.158
L123.026 106.158
L123.026 106.315
L126.114 106.315
L126.114 106.354
L129.202 106.354
L129.202 106.354
L132.29 106.354
L132.29 106.374
L135.378 106.374
L135.378 106.374
L138.466 106.374
L138.466 106.374
L141.554 106.374
L141.554 106.374
L144.641 106.374
L144.641 106.374
L147.729 106.374
L147.729 106.374
L150.817 106.374
L150.817 106.374
L153.905 106.374
L153.905 106.374
L156.993 106.374
L156.993 106.374
L160.081 106.374
L160.081 106.374
L163.168 106.374
L163.168 106.374
L166.256 106.374
L166.256 106.374
L169.344 106.374
L169.344 106.374
L172.432 106.374
L172.432 106.374
L175.52 106.374
L175.52 106.374
L178.608 106.374
L178.608 106.374
L181.696 106.374
L181.696 106.374
L184.783 106.374
L184.783 106.374
L187.871 106.374
L187.871 106.374" style="fill:#ff0000;opacity:0.45;stroke:#ff0000;"/>
   </g>
   <g id="patch_6">
    <path clip-path="url(#p48aee31a5c)" d="
M36.5666 106.374
L36.5666 106.158
L39.6545 106.158
L39.6545 103.625
L42.7423 103.625
L42.7423 98.0679
L45.8302 98.0679
L45.8302 91.0582
L48.918 91.0582
L48.918 81.9869
L52.0059 81.9869
L52.0059 76.3124
L55.0937 76.3124
L55.0937 76.2927
L58.1816 76.2927
L58.1816 74.7219
L61.2694 74.7219
L61.2694 76.0179
L64.3573 76.0179
L64.3573 79.1595
L67.4451 79.1595
L67.4451 89.6445
L70.533 89.6445
L70.533 91.0582
L73.6208 91.0582
L73.6208 95.6725
L76.7087 95.6725
L76.7087 96.0259
L79.7965 96.0259
L79.7965 100.169
L82.8844 100.169
L82.8844 102.623
L85.9722 102.623
L85.9722 102.859
L89.0601 102.859
L89.0601 103.939
L92.1479 103.939
L92.1479 104.096
L95.2358 104.096
L95.2358 105.254
L98.3236 105.254
L98.3236 105.195
L101.411 105.195
L101.411 105.706
L104.499 105.706
L104.499 105.843
L107.587 105.843
L107.587 106.079
L110.675 106.079
L110.675 106.216
L113.763 106.216
L113.763 106.197
L116.851 106.197
L116.851 106.295
L119.939 106.295
L119.939 106.275
L123.026 106.275
L123.026 106.236
L126.114 106.236
L126.114 106.315
L129.202 106.315
L129.202 106.315
L132.29 106.315
L132.29 106.315
L135.378 106.315
L135.378 106.354
L138.466 106.354
L138.466 106.354
L141.554 106.354
L141.554 106.374
L144.641 106.374
L144.641 106.374
L147.729 106.374
L147.729 106.374
L150.817 106.374
L150.817 106.374
L153.905 106.374
L153.905 106.374
L156.993 106.374
L156.993 106.374
L160.081 106.374
L160.081 106.354
L163.168 106.354
L163.168 106.374
L166.256 106.374
L166.256 106.374
L169.344 106.374
L169.344 106.374
L172.432 106.374
L172.432 106.374
L175.52 106.374
L175.52 106.374
L178.608 106.374
L178.608 106.374
L181.696 106.374
L181.696 106.374
L184.783 106.374
L184.783 106.374
L187.871 106.374
L187.871 106.374" style="fill:#00bfbf;opacity:0.45;stroke:#00bfbf;"/>
   </g>
   <g id="matplotlib.axis_1">
    <g id="xtick_1">
     <g id="line2d_1">
      <defs>
       <path d="
M0 0
L0 -4" id="m0012dd4eef" style="stroke:#000000;stroke-linecap:butt;stroke-width:0.5;"/>
      </defs>
      <g>
       <use style="stroke:#000000;stroke-linecap:butt;stroke-width:0.5;" x="36.56664" xlink:href="#m0012dd4eef" y="106.37352"/>
      </g>
     </g>
     <g id="text_1">
      <!-- 0 -->
      <defs>
       <path d="
M31.7812 66.4062
Q24.1719 66.4062 20.3281 58.9062
Q16.5 51.4219 16.5 36.375
Q16.5 21.3906 20.3281 13.8906
Q24.1719 6.39062 31.7812 6.39062
Q39.4531 6.39062 43.2812 13.8906
Q47.125 21.3906 47.125 36.375
Q47.125 51.4219 43.2812 58.9062
Q39.4531 66.4062 31.7812 66.4062
M31.7812 74.2188
Q44.0469 74.2188 50.5156 64.5156
Q56.9844 54.8281 56.9844 36.375
Q56.9844 17.9688 50.5156 8.26562
Q44.0469 -1.42188 31.7812 -1.42188
Q19.5312 -1.42188 13.0625 8.26562
Q6.59375 17.9688 6.59375 36.375
Q6.59375 54.8281 13.0625 64.5156
Q19.5312 74.2188 31.7812 74.2188" id="DejaVuSans-30"/>
      </defs>
      <g transform="translate(33.5432025 119.27977)scale(0.12 -0.12)">
       <use xlink:href="#DejaVuSans-30"/>
      </g>
     </g>
    </g>
    <g id="xtick_2">
     <g id="line2d_2">
      <g>
       <use style="stroke:#000000;stroke-linecap:butt;stroke-width:0.5;" x="67.445136" xlink:href="#m0012dd4eef" y="106.37352"/>
      </g>
     </g>
     <g id="text_2">
      <!-- 1 -->
      <defs>
       <path d="
M12.4062 8.29688
L28.5156 8.29688
L28.5156 63.9219
L10.9844 60.4062
L10.9844 69.3906
L28.4219 72.9062
L38.2812 72.9062
L38.2812 8.29688
L54.3906 8.29688
L54.3906 0
L12.4062 0
z
" id="DejaVuSans-31"/>
      </defs>
      <g transform="translate(64.840761 119.12227)scale(0.12 -0.12)">
       <use xlink:href="#DejaVuSans-31"/>
      </g>
     </g>
    </g>
    <g id="xtick_3">
     <g id="line2d_3">
      <g>
       <use style="stroke:#000000;stroke-linecap:butt;stroke-width:0.5;" x="98.323632" xlink:href="#m0012dd4eef" y="106.37352"/>
      </g>
     </g>
     <g id="text_3">
      <!-- 2 -->
      <defs>
       <path d="
M19.1875 8.29688
L53.6094 8.29688
L53.6094 0
L7.32812 0
L7.32812 8.29688
Q12.9375 14.1094 22.625 23.8906
Q32.3281 33.6875 34.8125 36.5312
Q39.5469 41.8438 41.4219 45.5312
Q43.3125 49.2188 43.3125 52.7812
Q43.3125 58.5938 39.2344 62.25
Q35.1562 65.9219 28.6094 65.9219
Q23.9688 65.9219 18.8125 64.3125
Q13.6719 62.7031 7.8125 59.4219
L7.8125 69.3906
Q13.7656 71.7812 18.9375 73
Q24.125 74.2188 28.4219 74.2188
Q39.75 74.2188 46.4844 68.5469
Q53.2188 62.8906 53.2188 53.4219
Q53.2188 48.9219 51.5312 44.8906
Q49.8594 40.875 45.4062 35.4062
Q44.1875 33.9844 37.6406 27.2188
Q31.1094 20.4531 19.1875 8.29688" id="DejaVuSans-32"/>
      </defs>
      <g transform="translate(95.546757 119.27977)scale(0.12 -0.12)">
       <use xlink:href="#DejaVuSans-32"/>
      </g>
     </g>
    </g>
    <g id="xtick_4">
     <g id="line2d_4">
      <g>
       <use style="stroke:#000000;stroke-linecap:butt;stroke-width:0.5;" x="129.202128" xlink:href="#m0012dd4eef" y="106.37352"/>
      </g>
     </g>
     <g id="text_4">
      <!-- 3 -->
      <defs>
       <path d="
M40.5781 39.3125
Q47.6562 37.7969 51.625 33
Q55.6094 28.2188 55.6094 21.1875
Q55.6094 10.4062 48.1875 4.48438
Q40.7656 -1.42188 27.0938 -1.42188
Q22.5156 -1.42188 17.6562 -0.515625
Q12.7969 0.390625 7.625 2.20312
L7.625 11.7188
Q11.7188 9.32812 16.5938 8.10938
Q21.4844 6.89062 26.8125 6.89062
Q36.0781 6.89062 40.9375 10.5469
Q45.7969 14.2031 45.7969 21.1875
Q45.7969 27.6406 41.2812 31.2656
Q36.7656 34.9062 28.7188 34.9062
L20.2188 34.9062
L20.2188 43.0156
L29.1094 43.0156
Q36.375 43.0156 40.2344 45.9219
Q44.0938 48.8281 44.0938 54.2969
Q44.0938 59.9062 40.1094 62.9062
Q36.1406 65.9219 28.7188 65.9219
Q24.6562 65.9219 20.0156 65.0312
Q15.375 64.1562 9.8125 62.3125
L9.8125 71.0938
Q15.4375 72.6562 20.3438 73.4375
Q25.25 74.2188 29.5938 74.2188
Q40.8281 74.2188 47.3594 69.1094
Q53.9062 64.0156 53.9062 55.3281
Q53.9062 49.2656 50.4375 45.0938
Q46.9688 40.9219 40.5781 39.3125" id="DejaVuSans-33"/>
      </defs>
      <g transform="translate(126.3230655 119.27977)scale(0.12 -0.12)">
       <use xlink:href="#DejaVuSans-33"/>
      </g>
     </g>
    </g>
    <g id="xtick_5">
     <g id="line2d_5">
      <g>
       <use style="stroke:#000000;stroke-linecap:butt;stroke-width:0.5;" x="160.080624" xlink:href="#m0012dd4eef" y="106.37352"/>
      </g>
     </g>
     <g id="text_5">
      <!-- 4 -->
      <defs>
       <path d="
M37.7969 64.3125
L12.8906 25.3906
L37.7969 25.3906
z

M35.2031 72.9062
L47.6094 72.9062
L47.6094 25.3906
L58.0156 25.3906
L58.0156 17.1875
L47.6094 17.1875
L47.6094 0
L37.7969 0
L37.7969 17.1875
L4.89062 17.1875
L4.89062 26.7031
z
" id="DejaVuSans-34"/>
      </defs>
      <g transform="translate(156.893124 119.12227)scale(0.12 -0.12)">
       <use xlink:href="#DejaVuSans-34"/>
      </g>
     </g>
    </g>
    <g id="xtick_6">
     <g id="line2d_6">
      <g>
       <use style="stroke:#000000;stroke-linecap:butt;stroke-width:0.5;" x="190.95912" xlink:href="#m0012dd4eef" y="106.37352"/>
      </g>
     </g>
     <g id="text_6">
      <!-- 5 -->
      <defs>
       <path d="
M10.7969 72.9062
L49.5156 72.9062
L49.5156 64.5938
L19.8281 64.5938
L19.8281 46.7344
Q21.9688 47.4688 24.1094 47.8281
Q26.2656 48.1875 28.4219 48.1875
Q40.625 48.1875 47.75 41.5
Q54.8906 34.8125 54.8906 23.3906
Q54.8906 11.625 47.5625 5.09375
Q40.2344 -1.42188 26.9062 -1.42188
Q22.3125 -1.42188 17.5469 -0.640625
Q12.7969 0.140625 7.71875 1.70312
L7.71875 11.625
Q12.1094 9.23438 16.7969 8.0625
Q21.4844 6.89062 26.7031 6.89062
Q35.1562 6.89062 40.0781 11.3281
Q45.0156 15.7656 45.0156 23.3906
Q45.0156 31 40.0781 35.4375
Q35.1562 39.8906 26.7031 39.8906
Q22.75 39.8906 18.8125 39.0156
Q14.8906 38.1406 10.7969 36.2812
z
" id="DejaVuSans-35"/>
      </defs>
      <g transform="translate(188.1288075 119.12227)scale(0.12 -0.12)">
       <use xlink:href="#DejaVuSans-35"/>
      </g>
     </g>
    </g>
    <g id="text_7">
     <!-- Fano Factor -->
     <defs>
      <path d="
M30.6094 48.3906
Q23.3906 48.3906 19.1875 42.75
Q14.9844 37.1094 14.9844 27.2969
Q14.9844 17.4844 19.1562 11.8438
Q23.3438 6.20312 30.6094 6.20312
Q37.7969 6.20312 41.9844 11.8594
Q46.1875 17.5312 46.1875 27.2969
Q46.1875 37.0156 41.9844 42.7031
Q37.7969 48.3906 30.6094 48.3906
M30.6094 56
Q42.3281 56 49.0156 48.375
Q55.7188 40.7656 55.7188 27.2969
Q55.7188 13.875 49.0156 6.21875
Q42.3281 -1.42188 30.6094 -1.42188
Q18.8438 -1.42188 12.1719 6.21875
Q5.51562 13.875 5.51562 27.2969
Q5.51562 40.7656 12.1719 48.375
Q18.8438 56 30.6094 56" id="DejaVuSans-6f"/>
      <path d="
M54.8906 33.0156
L54.8906 0
L45.9062 0
L45.9062 32.7188
Q45.9062 40.4844 42.875 44.3281
Q39.8438 48.1875 33.7969 48.1875
Q26.5156 48.1875 22.3125 43.5469
Q18.1094 38.9219 18.1094 30.9062
L18.1094 0
L9.07812 0
L9.07812 54.6875
L18.1094 54.6875
L18.1094 46.1875
Q21.3438 51.125 25.7031 53.5625
Q30.0781 56 35.7969 56
Q45.2188 56 50.0469 50.1719
Q54.8906 44.3438 54.8906 33.0156" id="DejaVuSans-6e"/>
      <path id="DejaVuSans-20"/>
      <path d="
M9.8125 72.9062
L51.7031 72.9062
L51.7031 64.5938
L19.6719 64.5938
L19.6719 43.1094
L48.5781 43.1094
L48.5781 34.8125
L19.6719 34.8125
L19.6719 0
L9.8125 0
z
" id="DejaVuSans-46"/>
      <path d="
M18.3125 70.2188
L18.3125 54.6875
L36.8125 54.6875
L36.8125 47.7031
L18.3125 47.7031
L18.3125 18.0156
Q18.3125 11.3281 20.1406 9.42188
Q21.9688 7.51562 27.5938 7.51562
L36.8125 7.51562
L36.8125 0
L27.5938 0
Q17.1875 0 13.2344 3.875
Q9.28125 7.76562 9.28125 18.0156
L9.28125 47.7031
L2.6875 47.7031
L2.6875 54.6875
L9.28125 54.6875
L9.28125 70.2188
z
" id="DejaVuSans-74"/>
      <path d="
M41.1094 46.2969
Q39.5938 47.1719 37.8125 47.5781
Q36.0312 48 33.8906 48
Q26.2656 48 22.1875 43.0469
Q18.1094 38.0938 18.1094 28.8125
L18.1094 0
L9.07812 0
L9.07812 54.6875
L18.1094 54.6875
L18.1094 46.1875
Q20.9531 51.1719 25.4844 53.5781
Q30.0312 56 36.5312 56
Q37.4531 56 38.5781 55.875
Q39.7031 55.7656 41.0625 55.5156
z
" id="DejaVuSans-72"/>
      <path d="
M48.7812 52.5938
L48.7812 44.1875
Q44.9688 46.2969 41.1406 47.3438
Q37.3125 48.3906 33.4062 48.3906
Q24.6562 48.3906 19.8125 42.8438
Q14.9844 37.3125 14.9844 27.2969
Q14.9844 17.2812 19.8125 11.7344
Q24.6562 6.20312 33.4062 6.20312
Q37.3125 6.20312 41.1406 7.25
Q44.9688 8.29688 48.7812 10.4062
L48.7812 2.09375
Q45.0156 0.34375 40.9844 -0.53125
Q36.9688 -1.42188 32.4219 -1.42188
Q20.0625 -1.42188 12.7812 6.34375
Q5.51562 14.1094 5.51562 27.2969
Q5.51562 40.6719 12.8594 48.3281
Q20.2188 56 33.0156 56
Q37.1562 56 41.1094 55.1406
Q45.0625 54.2969 48.7812 52.5938" id="DejaVuSans-63"/>
      <path d="
M34.2812 27.4844
Q23.3906 27.4844 19.1875 25
Q14.9844 22.5156 14.9844 16.5
Q14.9844 11.7188 18.1406 8.90625
Q21.2969 6.10938 26.7031 6.10938
Q34.1875 6.10938 38.7031 11.4062
Q43.2188 16.7031 43.2188 25.4844
L43.2188 27.4844
z

M52.2031 31.2031
L52.2031 0
L43.2188 0
L43.2188 8.29688
Q40.1406 3.32812 35.5469 0.953125
Q30.9531 -1.42188 24.3125 -1.42188
Q15.9219 -1.42188 10.9531 3.29688
Q6 8.01562 6 15.9219
Q6 25.1406 12.1719 29.8281
Q18.3594 34.5156 30.6094 34.5156
L43.2188 34.5156
L43.2188 35.4062
Q43.2188 41.6094 39.1406 45
Q35.0625 48.3906 27.6875 48.3906
Q23 48.3906 18.5469 47.2656
Q14.1094 46.1406 10.0156 43.8906
L10.0156 52.2031
Q14.9375 54.1094 19.5781 55.0469
Q24.2188 56 28.6094 56
Q40.4844 56 46.3438 49.8438
Q52.2031 43.7031 52.2031 31.2031" id="DejaVuSans-61"/>
     </defs>
     <g transform="translate(79.4325675 133.199145)scale(0.12 -0.12)">
      <use xlink:href="#DejaVuSans-46"/>
      <use x="48.39453125" xlink:href="#DejaVuSans-61"/>
      <use x="109.673828125" xlink:href="#DejaVuSans-6e"/>
      <use x="173.052734375" xlink:href="#DejaVuSans-6f"/>
      <use x="234.234375" xlink:href="#DejaVuSans-20"/>
      <use x="266.021484375" xlink:href="#DejaVuSans-46"/>
      <use x="314.416015625" xlink:href="#DejaVuSans-61"/>
      <use x="375.6953125" xlink:href="#DejaVuSans-63"/>
      <use x="430.67578125" xlink:href="#DejaVuSans-74"/>
      <use x="469.884765625" xlink:href="#DejaVuSans-6f"/>
      <use x="531.06640625" xlink:href="#DejaVuSans-72"/>
     </g>
    </g>
   </g>
   <g id="matplotlib.axis_2">
    <g id="ytick_1">
     <g id="line2d_7">
      <defs>
       <path d="
M0 0
L4 0" id="me8a85f7bf6" style="stroke:#000000;stroke-linecap:butt;stroke-width:0.5;"/>
      </defs>
      <g>
       <use style="stroke:#000000;stroke-linecap:butt;stroke-width:0.5;" x="36.56664" xlink:href="#me8a85f7bf6" y="106.37352"/>
      </g>
     </g>
     <g id="text_8">
      <!-- 0.0 -->
      <defs>
       <path d="
M10.6875 12.4062
L21 12.4062
L21 0
L10.6875 0
z
" id="DejaVuSans-2e"/>
      </defs>
      <g transform="translate(15.071015 110.7413325)scale(0.12 -0.12)">
       <use xlink:href="#DejaVuSans-30"/>
       <use x="63.623046875" xlink:href="#DejaVuSans-2e"/>
       <use x="95.41015625" xlink:href="#DejaVuSans-30"/>
      </g>
     </g>
    </g>
    <g id="ytick_2">
     <g id="line2d_8">
      <g>
       <use style="stroke:#000000;stroke-linecap:butt;stroke-width:0.5;" x="36.56664" xlink:href="#me8a85f7bf6" y="92.5593372"/>
      </g>
     </g>
     <g id="text_9">
      <!-- 0.5 -->
      <g transform="translate(15.322265 96.9271497)scale(0.12 -0.12)">
       <use xlink:href="#DejaVuSans-30"/>
       <use x="63.623046875" xlink:href="#DejaVuSans-2e"/>
       <use x="95.41015625" xlink:href="#DejaVuSans-35"/>
      </g>
     </g>
    </g>
    <g id="ytick_3">
     <g id="line2d_9">
      <g>
       <use style="stroke:#000000;stroke-linecap:butt;stroke-width:0.5;" x="36.56664" xlink:href="#me8a85f7bf6" y="78.7451544"/>
      </g>
     </g>
     <g id="text_10">
      <!-- 1.0 -->
      <g transform="translate(15.59789 83.1129669)scale(0.12 -0.12)">
       <use xlink:href="#DejaVuSans-31"/>
       <use x="63.623046875" xlink:href="#DejaVuSans-2e"/>
       <use x="95.41015625" xlink:href="#DejaVuSans-30"/>
      </g>
     </g>
    </g>
    <g id="ytick_4">
     <g id="line2d_10">
      <g>
       <use style="stroke:#000000;stroke-linecap:butt;stroke-width:0.5;" x="36.56664" xlink:href="#me8a85f7bf6" y="64.9309716"/>
      </g>
     </g>
     <g id="text_11">
      <!-- 1.5 -->
      <g transform="translate(15.84914 69.2200341)scale(0.12 -0.12)">
       <use xlink:href="#DejaVuSans-31"/>
       <use x="63.623046875" xlink:href="#DejaVuSans-2e"/>
       <use x="95.41015625" xlink:href="#DejaVuSans-35"/>
      </g>
     </g>
    </g>
    <g id="ytick_5">
     <g id="line2d_11">
      <g>
       <use style="stroke:#000000;stroke-linecap:butt;stroke-width:0.5;" x="36.56664" xlink:href="#me8a85f7bf6" y="51.1167888"/>
      </g>
     </g>
     <g id="text_12">
      <!-- 2.0 -->
      <g transform="translate(15.15914 55.4846013)scale(0.12 -0.12)">
       <use xlink:href="#DejaVuSans-32"/>
       <use x="63.623046875" xlink:href="#DejaVuSans-2e"/>
       <use x="95.41015625" xlink:href="#DejaVuSans-30"/>
      </g>
     </g>
    </g>
    <g id="ytick_6">
     <g id="line2d_12">
      <g>
       <use style="stroke:#000000;stroke-linecap:butt;stroke-width:0.5;" x="36.56664" xlink:href="#me8a85f7bf6" y="37.302606"/>
      </g>
     </g>
     <g id="text_13">
      <!-- 2.5 -->
      <g transform="translate(15.41039 41.6704185)scale(0.12 -0.12)">
       <use xlink:href="#DejaVuSans-32"/>
       <use x="63.623046875" xlink:href="#DejaVuSans-2e"/>
       <use x="95.41015625" xlink:href="#DejaVuSans-35"/>
      </g>
     </g>
    </g>
    <g id="ytick_7">
     <g id="line2d_13">
      <g>
       <use style="stroke:#000000;stroke-linecap:butt;stroke-width:0.5;" x="36.56664" xlink:href="#me8a85f7bf6" y="23.4884232"/>
      </g>
     </g>
     <g id="text_14">
      <!-- 3.0 -->
      <g transform="translate(15.194765 27.8562357)scale(0.12 -0.12)">
       <use xlink:href="#DejaVuSans-33"/>
       <use x="63.623046875" xlink:href="#DejaVuSans-2e"/>
       <use x="95.41015625" xlink:href="#DejaVuSans-30"/>
      </g>
     </g>
    </g>
    <g id="text_15">
     <!-- Nomalized count -->
     <defs>
      <path d="
M9.8125 72.9062
L23.0938 72.9062
L55.4219 11.9219
L55.4219 72.9062
L64.9844 72.9062
L64.9844 0
L51.7031 0
L19.3906 60.9844
L19.3906 0
L9.8125 0
z
" id="DejaVuSans-4e"/>
      <path d="
M52 44.1875
Q55.375 50.25 60.0625 53.125
Q64.75 56 71.0938 56
Q79.6406 56 84.2812 50.0156
Q88.9219 44.0469 88.9219 33.0156
L88.9219 0
L79.8906 0
L79.8906 32.7188
Q79.8906 40.5781 77.0938 44.375
Q74.3125 48.1875 68.6094 48.1875
Q61.625 48.1875 57.5625 43.5469
Q53.5156 38.9219 53.5156 30.9062
L53.5156 0
L44.4844 0
L44.4844 32.7188
Q44.4844 40.625 41.7031 44.4062
Q38.9219 48.1875 33.1094 48.1875
Q26.2188 48.1875 22.1562 43.5312
Q18.1094 38.875 18.1094 30.9062
L18.1094 0
L9.07812 0
L9.07812 54.6875
L18.1094 54.6875
L18.1094 46.1875
Q21.1875 51.2188 25.4844 53.6094
Q29.7812 56 35.6875 56
Q41.6562 56 45.8281 52.9688
Q50 49.9531 52 44.1875" id="DejaVuSans-6d"/>
      <path d="
M5.51562 54.6875
L48.1875 54.6875
L48.1875 46.4844
L14.4062 7.17188
L48.1875 7.17188
L48.1875 0
L4.29688 0
L4.29688 8.20312
L38.0938 47.5156
L5.51562 47.5156
z
" id="DejaVuSans-7a"/>
      <path d="
M9.42188 75.9844
L18.4062 75.9844
L18.4062 0
L9.42188 0
z
" id="DejaVuSans-6c"/>
      <path d="
M9.42188 54.6875
L18.4062 54.6875
L18.4062 0
L9.42188 0
z

M9.42188 75.9844
L18.4062 75.9844
L18.4062 64.5938
L9.42188 64.5938
z
" id="DejaVuSans-69"/>
      <path d="
M8.5 21.5781
L8.5 54.6875
L17.4844 54.6875
L17.4844 21.9219
Q17.4844 14.1562 20.5 10.2656
Q23.5312 6.39062 29.5938 6.39062
Q36.8594 6.39062 41.0781 11.0312
Q45.3125 15.6719 45.3125 23.6875
L45.3125 54.6875
L54.2969 54.6875
L54.2969 0
L45.3125 0
L45.3125 8.40625
Q42.0469 3.42188 37.7188 1
Q33.4062 -1.42188 27.6875 -1.42188
Q18.2656 -1.42188 13.375 4.4375
Q8.5 10.2969 8.5 21.5781
M31.1094 56
z
" id="DejaVuSans-75"/>
      <path d="
M45.4062 46.3906
L45.4062 75.9844
L54.3906 75.9844
L54.3906 0
L45.4062 0
L45.4062 8.20312
Q42.5781 3.32812 38.25 0.953125
Q33.9375 -1.42188 27.875 -1.42188
Q17.9688 -1.42188 11.7344 6.48438
Q5.51562 14.4062 5.51562 27.2969
Q5.51562 40.1875 11.7344 48.0938
Q17.9688 56 27.875 56
Q33.9375 56 38.25 53.625
Q42.5781 51.2656 45.4062 46.3906
M14.7969 27.2969
Q14.7969 17.3906 18.875 11.75
Q22.9531 6.10938 30.0781 6.10938
Q37.2031 6.10938 41.2969 11.75
Q45.4062 17.3906 45.4062 27.2969
Q45.4062 37.2031 41.2969 42.8438
Q37.2031 48.4844 30.0781 48.4844
Q22.9531 48.4844 18.875 42.8438
Q14.7969 37.2031 14.7969 27.2969" id="DejaVuSans-64"/>
      <path d="
M56.2031 29.5938
L56.2031 25.2031
L14.8906 25.2031
Q15.4844 15.9219 20.4844 11.0625
Q25.4844 6.20312 34.4219 6.20312
Q39.5938 6.20312 44.4531 7.46875
Q49.3125 8.73438 54.1094 11.2812
L54.1094 2.78125
Q49.2656 0.734375 44.1875 -0.34375
Q39.1094 -1.42188 33.8906 -1.42188
Q20.7969 -1.42188 13.1562 6.1875
Q5.51562 13.8125 5.51562 26.8125
Q5.51562 40.2344 12.7656 48.1094
Q20.0156 56 32.3281 56
Q43.3594 56 49.7812 48.8906
Q56.2031 41.7969 56.2031 29.5938
M47.2188 32.2344
Q47.125 39.5938 43.0938 43.9844
Q39.0625 48.3906 32.4219 48.3906
Q24.9062 48.3906 20.3906 44.1406
Q15.875 39.8906 15.1875 32.1719
z
" id="DejaVuSans-65"/>
     </defs>
     <g transform="translate(10.071015 115.1162841)rotate(-90.0)scale(0.12 -0.12)">
      <use xlink:href="#DejaVuSans-4e"/>
      <use x="74.8046875" xlink:href="#DejaVuSans-6f"/>
      <use x="135.986328125" xlink:href="#DejaVuSans-6d"/>
      <use x="233.3984375" xlink:href="#DejaVuSans-61"/>
      <use x="294.677734375" xlink:href="#DejaVuSans-6c"/>
      <use x="322.4609375" xlink:href="#DejaVuSans-69"/>
      <use x="350.244140625" xlink:href="#DejaVuSans-7a"/>
      <use x="402.734375" xlink:href="#DejaVuSans-65"/>
      <use x="464.2578125" xlink:href="#DejaVuSans-64"/>
      <use x="527.734375" xlink:href="#DejaVuSans-20"/>
      <use x="559.521484375" xlink:href="#DejaVuSans-63"/>
      <use x="614.501953125" xlink:href="#DejaVuSans-6f"/>
      <use x="675.68359375" xlink:href="#DejaVuSans-75"/>
      <use x="739.0625" xlink:href="#DejaVuSans-6e"/>
      <use x="802.44140625" xlink:href="#DejaVuSans-74"/>
     </g>
    </g>
   </g>
   <g id="patch_7">
    <path d="
M36.5666 106.374
L190.959 106.374" style="fill:none;stroke:#000000;"/>
   </g>
   <g id="patch_8">
    <path d="
M36.5666 106.374
L36.5666 23.4884" style="fill:none;stroke:#000000;"/>
   </g>
   <g id="text_16">
    <!-- E population -->
    <defs>
     <path d="
M9.8125 72.9062
L55.9062 72.9062
L55.9062 64.5938
L19.6719 64.5938
L19.6719 43.0156
L54.3906 43.0156
L54.3906 34.7188
L19.6719 34.7188
L19.6719 8.29688
L56.7812 8.29688
L56.7812 0
L9.8125 0
z
" id="DejaVuSans-45"/>
     <path d="
M18.1094 8.20312
L18.1094 -20.7969
L9.07812 -20.7969
L9.07812 54.6875
L18.1094 54.6875
L18.1094 46.3906
Q20.9531 51.2656 25.2656 53.625
Q29.5938 56 35.5938 56
Q45.5625 56 51.7812 48.0938
Q58.0156 40.1875 58.0156 27.2969
Q58.0156 14.4062 51.7812 6.48438
Q45.5625 -1.42188 35.5938 -1.42188
Q29.5938 -1.42188 25.2656 0.953125
Q20.9531 3.32812 18.1094 8.20312
M48.6875 27.2969
Q48.6875 37.2031 44.6094 42.8438
Q40.5312 48.4844 33.4062 48.4844
Q26.2656 48.4844 22.1875 42.8438
Q18.1094 37.2031 18.1094 27.2969
Q18.1094 17.3906 22.1875 11.75
Q26.2656 6.10938 33.4062 6.10938
Q40.5312 6.10938 44.6094 11.75
Q48.6875 17.3906 48.6875 27.2969" id="DejaVuSans-70"/>
    </defs>
    <g transform="translate(76.64538 18.4884232)scale(0.12 -0.12)">
     <use xlink:href="#DejaVuSans-45"/>
     <use x="63.18359375" xlink:href="#DejaVuSans-20"/>
     <use x="94.970703125" xlink:href="#DejaVuSans-70"/>
     <use x="158.447265625" xlink:href="#DejaVuSans-6f"/>
     <use x="219.62890625" xlink:href="#DejaVuSans-70"/>
     <use x="283.10546875" xlink:href="#DejaVuSans-75"/>
     <use x="346.484375" xlink:href="#DejaVuSans-6c"/>
     <use x="374.267578125" xlink:href="#DejaVuSans-61"/>
     <use x="435.546875" xlink:href="#DejaVuSans-74"/>
     <use x="474.755859375" xlink:href="#DejaVuSans-69"/>
     <use x="502.5390625" xlink:href="#DejaVuSans-6f"/>
     <use x="563.720703125" xlink:href="#DejaVuSans-6e"/>
    </g>
   </g>
  </g>
 </g>
 <defs>
  <clipPath id="p48aee31a5c">
   <rect height="82.8850968" width="154.39248" x="36.56664" y="23.4884232"/>
  </clipPath>
 </defs>
</svg>
