<?xml version="1.0" encoding="utf-8" standalone="no"?>
<!DOCTYPE svg PUBLIC "-//W3C//DTD SVG 1.1//EN"
  "http://www.w3.org/Graphics/SVG/1.1/DTD/svg11.dtd">
<!-- Created with matplotlib (http://matplotlib.sourceforge.net/) -->
<svg height="108pt" version="1.1" viewBox="0 0 144 108" width="144pt" xmlns="http://www.w3.org/2000/svg" xmlns:xlink="http://www.w3.org/1999/xlink">
 <defs>
  <style type="text/css">
*{stroke-linecap:square;stroke-linejoin:round;}
  </style>
 </defs>
 <g id="figure_1">
  <g id="patch_1">
   <path d="
M0 108
L144 108
L144 0
L0 0
z
" style="fill:#ffffff;"/>
  </g>
  <g id="axes_1">
   <g id="patch_2">
    <path d="
M37.44 81
L131.04 81
L131.04 10.8
L37.44 10.8
z
" style="fill:#ffffff;"/>
   </g>
   <g id="line2d_1">
    <path clip-path="url(#pd1317ff781)" d="
M37.44 81
L38.376 81
L39.312 81
L40.248 80.9809
L41.184 79.281
L42.12 66.3374
L43.056 42.9448
L43.992 25.516
L44.928 19.2586
L45.864 20.1565
L46.8 23.9097
L47.736 27.6111
L48.672 31.3865
L49.608 33.3876
L50.544 35.4116
L51.48 36.6136
L52.416 37.5815
L53.352 38.2391
L54.288 39.0043
L55.224 39.303
L56.16 39.748
L57.096 39.6665
L58.032 40.1558
L58.968 39.9044
L59.904 40.4408
L60.84 40.1263
L61.776 40.6466
L62.712 40.4701
L63.648 40.4508
L64.584 40.536
L65.52 40.3922
L66.456 40.3669
L67.392 40.3839
L68.328 40.5223
L69.264 40.6281
L70.2 40.0536
L71.136 40.3585
L72.072 40.1714
L73.008 40.2986
L73.944 40.3484
L74.88 40.559
L75.816 40.0305
L76.752 40.2636
L77.688 40.0741
L78.624 40.2603
L79.56 40.3036
L80.496 40.2864
L81.432 40.2533
L82.368 40.3332
L83.304 39.9475
L84.24 40.0626
L85.176 40.0198
L86.112 40.0701
L87.048 39.9657
L87.984 40.0307
L88.92 40.3723
L89.856 39.599
L90.792 39.9781
L91.728 40.0932
L92.664 40.1601
L93.6 39.866
L94.536 39.7678
L95.472 39.7223
L96.408 40.0991
L97.344 39.7241
L98.28 39.8994
L99.216 39.7837
L100.152 39.8232
L101.088 39.7462
L102.024 39.8093
L102.96 39.9749
L103.896 39.8413
L104.832 39.8759
L105.768 39.8108
L106.704 39.6189
L107.64 39.6597
L108.576 39.5797
L109.512 39.7873
L110.448 39.7714
L111.384 39.4288
L112.32 39.8029
L113.256 39.6253
L114.192 39.6597
L115.128 39.805
L116.064 39.8461
L117 39.6318
L117.936 39.4276
L118.872 39.416
L119.808 39.3809
L120.744 39.7692
L121.68 39.6283
L122.616 39.5106
L123.552 39.8696
L124.488 39.3139
L125.424 39.7092
L126.36 39.5169
L127.296 39.5721
L128.232 39.471
L129.168 39.4604
L130.104 39.4974
L131.04 39.337
L131.976 39.6676" style="fill:none;stroke:#0000ff;stroke-width:0.5;"/>
   </g>
   <g id="line2d_2">
    <path clip-path="url(#pd1317ff781)" d="
M37.44 81
L38.376 81
L39.312 81
L40.248 80.9806
L41.184 79.2374
L42.12 66.1932
L43.056 42.702
L43.992 25.064
L44.928 18.6954
L45.864 19.7983
L46.8 23.0792
L47.736 27.6127
L48.672 30.7387
L49.608 33.3226
L50.544 35.15
L51.48 36.449
L52.416 37.5633
L53.352 38.246
L54.288 38.79
L55.224 39.1417
L56.16 39.4104
L57.096 39.8985
L58.032 40.1153
L58.968 39.9227
L59.904 40.5639
L60.84 40.6768
L61.776 40.5572
L62.712 40.6021
L63.648 40.3182
L64.584 40.6247
L65.52 40.5009
L66.456 40.4025
L67.392 40.5458
L68.328 40.4422
L69.264 40.1948
L70.2 40.2771
L71.136 40.4525
L72.072 40.2759
L73.008 40.8904
L73.944 40.2509
L74.88 40.1452
L75.816 40.6378
L76.752 40.3328
L77.688 40.3547
L78.624 40.5054
L79.56 40.3478
L80.496 40.1555
L81.432 40.0487
L82.368 40.2078
L83.304 40.3632
L84.24 40.068
L85.176 40.2459
L86.112 40.16
L87.048 40.1607
L87.984 40.0365
L88.92 40.2392
L89.856 39.9596
L90.792 40.1725
L91.728 39.8708
L92.664 40.0535
L93.6 40.1394
L94.536 39.9774
L95.472 39.8117
L96.408 39.9112
L97.344 39.8673
L98.28 39.7336
L99.216 40.0938
L100.152 39.8682
L101.088 39.8137
L102.024 39.7879
L102.96 39.9399
L103.896 39.7512
L104.832 39.7719
L105.768 39.8599
L106.704 39.7669
L107.64 39.5729
L108.576 39.5675
L109.512 39.7129
L110.448 39.8975
L111.384 39.8221
L112.32 39.6136
L113.256 39.6365
L114.192 39.6494
L115.128 39.6856
L116.064 39.5811
L117 39.6121
L117.936 39.5227
L118.872 39.6456
L119.808 39.6675
L120.744 39.4444
L121.68 39.4523
L122.616 39.7034
L123.552 39.5134
L124.488 39.5625
L125.424 39.6235
L126.36 39.7726
L127.296 39.4106
L128.232 39.5303
L129.168 39.6812
L130.104 39.7114
L131.04 39.3504
L131.976 39.7867" style="fill:none;stroke:#008000;stroke-width:0.5;"/>
   </g>
   <g id="line2d_3">
    <path clip-path="url(#pd1317ff781)" d="
M37.44 81
L38.376 81
L39.312 81
L40.248 80.9816
L41.184 79.2447
L42.12 66.0641
L43.056 42.0932
L43.992 23.9811
L44.928 17.5505
L45.864 18.6047
L46.8 22.758
L47.736 27.1496
L48.672 30.2173
L49.608 33.1436
L50.544 34.7669
L51.48 36.2937
L52.416 37.3128
L53.352 38.275
L54.288 38.6074
L55.224 39.2376
L56.16 39.7011
L57.096 40.1294
L58.032 40.3034
L58.968 40.5137
L59.904 40.5531
L60.84 40.4722
L61.776 40.6707
L62.712 40.9029
L63.648 40.9061
L64.584 40.5714
L65.52 40.6259
L66.456 40.7983
L67.392 40.7431
L68.328 40.6837
L69.264 41.0965
L70.2 41.0297
L71.136 40.6336
L72.072 40.5781
L73.008 40.792
L73.944 40.6943
L74.88 40.8747
L75.816 40.4463
L76.752 40.2986
L77.688 40.6721
L78.624 40.4581
L79.56 40.5693
L80.496 40.612
L81.432 40.417
L82.368 40.6437
L83.304 40.1207
L84.24 40.4546
L85.176 40.4729
L86.112 40.316
L87.048 40.3396
L87.984 40.352
L88.92 40.4889
L89.856 40.1255
L90.792 40.1549
L91.728 40.2627
L92.664 40.1489
L93.6 40.2369
L94.536 40.1899
L95.472 40.1263
L96.408 39.9339
L97.344 40.2262
L98.28 39.9962
L99.216 39.8341
L100.152 40.2792
L101.088 40.0483
L102.024 40.1116
L102.96 40.1576
L103.896 40.2143
L104.832 39.8064
L105.768 40.2713
L106.704 40.0951
L107.64 39.823
L108.576 40.0629
L109.512 39.861
L110.448 39.9772
L111.384 39.9036
L112.32 40.0022
L113.256 39.8205
L114.192 39.8684
L115.128 39.9974
L116.064 40.1931
L117 39.799
L117.936 39.6757
L118.872 39.8624
L119.808 39.6432
L120.744 39.7759
L121.68 40.0459
L122.616 39.7288
L123.552 39.6347
L124.488 39.7475
L125.424 39.8908
L126.36 40.0594
L127.296 39.7342
L128.232 39.6907
L129.168 39.6466
L130.104 39.5528
L131.04 39.6752
L131.976 39.7517" style="fill:none;stroke:#ff0000;stroke-width:0.5;"/>
   </g>
   <g id="line2d_4">
    <path clip-path="url(#pd1317ff781)" d="
M37.44 81
L38.376 81
L39.312 81
L40.248 80.9788
L41.184 79.1582
L42.12 65.7869
L43.056 40.5793
L43.992 22.5784
L44.928 15.9695
L45.864 17.4407
L46.8 21.4853
L47.736 26.712
L48.672 29.4901
L49.608 32.4537
L50.544 34.4998
L51.48 35.929
L52.416 37.0739
L53.352 37.6852
L54.288 38.6757
L55.224 39.1405
L56.16 39.5619
L57.096 40.2704
L58.032 40.0075
L58.968 40.1077
L59.904 40.5575
L60.84 40.4613
L61.776 40.7509
L62.712 40.4171
L63.648 40.9343
L64.584 40.8484
L65.52 40.8142
L66.456 41.0153
L67.392 40.9854
L68.328 40.7225
L69.264 40.606
L70.2 40.8389
L71.136 40.7497
L72.072 40.9117
L73.008 40.4227
L73.944 40.5123
L74.88 40.7328
L75.816 41.002
L76.752 40.7557
L77.688 40.5401
L78.624 40.5756
L79.56 40.4371
L80.496 40.5371
L81.432 40.686
L82.368 40.5227
L83.304 40.5079
L84.24 40.3793
L85.176 40.3334
L86.112 40.5409
L87.048 40.632
L87.984 40.4253
L88.92 40.3827
L89.856 40.4842
L90.792 40.4971
L91.728 40.5282
L92.664 40.3926
L93.6 40.3412
L94.536 40.1311
L95.472 40.0377
L96.408 40.4231
L97.344 40.24
L98.28 39.8519
L99.216 40.312
L100.152 40.2345
L101.088 40.2179
L102.024 40.2062
L102.96 40.348
L103.896 39.9769
L104.832 40.0549
L105.768 40.0367
L106.704 39.8733
L107.64 39.9915
L108.576 40.0767
L109.512 40.2388
L110.448 40.2517
L111.384 40.1172
L112.32 39.8437
L113.256 39.9802
L114.192 39.8581
L115.128 39.9051
L116.064 39.9682
L117 39.8851
L117.936 40.0218
L118.872 39.9744
L119.808 39.6995
L120.744 39.8779
L121.68 39.9015
L122.616 39.7551
L123.552 39.9923
L124.488 39.7373
L125.424 39.9804
L126.36 39.9809
L127.296 39.7644
L128.232 39.8874
L129.168 39.8375
L130.104 39.8494
L131.04 39.8876
L131.976 39.9109" style="fill:none;stroke:#00bfbf;stroke-width:0.5;"/>
   </g>
   <g id="matplotlib.axis_1">
    <g id="xtick_1">
     <g id="line2d_5">
      <defs>
       <path d="
M0 0
L0 -4" id="m0012dd4eef" style="stroke:#000000;stroke-linecap:butt;stroke-width:0.5;"/>
      </defs>
      <g>
       <use style="stroke:#000000;stroke-linecap:butt;stroke-width:0.5;" x="37.44" xlink:href="#m0012dd4eef" y="81.0"/>
      </g>
     </g>
     <g id="text_1">
      <!-- 0 -->
      <defs>
       <path d="
M31.7812 66.4062
Q24.1719 66.4062 20.3281 58.9062
Q16.5 51.4219 16.5 36.375
Q16.5 21.3906 20.3281 13.8906
Q24.1719 6.39062 31.7812 6.39062
Q39.4531 6.39062 43.2812 13.8906
Q47.125 21.3906 47.125 36.375
Q47.125 51.4219 43.2812 58.9062
Q39.4531 66.4062 31.7812 66.4062
M31.7812 74.2188
Q44.0469 74.2188 50.5156 64.5156
Q56.9844 54.8281 56.9844 36.375
Q56.9844 17.9688 50.5156 8.26562
Q44.0469 -1.42188 31.7812 -1.42188
Q19.5312 -1.42188 13.0625 8.26562
Q6.59375 17.9688 6.59375 36.375
Q6.59375 54.8281 13.0625 64.5156
Q19.5312 74.2188 31.7812 74.2188" id="DejaVuSans-30"/>
      </defs>
      <g transform="translate(34.92046875 92.421875)scale(0.1 -0.1)">
       <use xlink:href="#DejaVuSans-30"/>
      </g>
     </g>
    </g>
    <g id="xtick_2">
     <g id="line2d_6">
      <g>
       <use style="stroke:#000000;stroke-linecap:butt;stroke-width:0.5;" x="84.24" xlink:href="#m0012dd4eef" y="81.0"/>
      </g>
     </g>
     <g id="text_2">
      <!-- 50 -->
      <defs>
       <path d="
M10.7969 72.9062
L49.5156 72.9062
L49.5156 64.5938
L19.8281 64.5938
L19.8281 46.7344
Q21.9688 47.4688 24.1094 47.8281
Q26.2656 48.1875 28.4219 48.1875
Q40.625 48.1875 47.75 41.5
Q54.8906 34.8125 54.8906 23.3906
Q54.8906 11.625 47.5625 5.09375
Q40.2344 -1.42188 26.9062 -1.42188
Q22.3125 -1.42188 17.5469 -0.640625
Q12.7969 0.140625 7.71875 1.70312
L7.71875 11.625
Q12.1094 9.23438 16.7969 8.0625
Q21.4844 6.89062 26.7031 6.89062
Q35.1562 6.89062 40.0781 11.3281
Q45.0156 15.7656 45.0156 23.3906
Q45.0156 31 40.0781 35.4375
Q35.1562 39.8906 26.7031 39.8906
Q22.75 39.8906 18.8125 39.0156
Q14.8906 38.1406 10.7969 36.2812
z
" id="DejaVuSans-35"/>
      </defs>
      <g transform="translate(78.59546875 92.421875)scale(0.1 -0.1)">
       <use xlink:href="#DejaVuSans-35"/>
       <use x="63.623046875" xlink:href="#DejaVuSans-30"/>
      </g>
     </g>
    </g>
    <g id="xtick_3">
     <g id="line2d_7">
      <g>
       <use style="stroke:#000000;stroke-linecap:butt;stroke-width:0.5;" x="131.04" xlink:href="#m0012dd4eef" y="81.0"/>
      </g>
     </g>
     <g id="text_3">
      <!-- 100 -->
      <defs>
       <path d="
M12.4062 8.29688
L28.5156 8.29688
L28.5156 63.9219
L10.9844 60.4062
L10.9844 69.3906
L28.4219 72.9062
L38.2812 72.9062
L38.2812 8.29688
L54.3906 8.29688
L54.3906 0
L12.4062 0
z
" id="DejaVuSans-31"/>
      </defs>
      <g transform="translate(122.3775 92.421875)scale(0.1 -0.1)">
       <use xlink:href="#DejaVuSans-31"/>
       <use x="63.623046875" xlink:href="#DejaVuSans-30"/>
       <use x="127.24609375" xlink:href="#DejaVuSans-30"/>
      </g>
     </g>
    </g>
    <g id="text_4">
     <!-- Time lag(ms) -->
     <defs>
      <path d="
M8.01562 75.875
L15.8281 75.875
Q23.1406 64.3594 26.7812 53.3125
Q30.4219 42.2812 30.4219 31.3906
Q30.4219 20.4531 26.7812 9.375
Q23.1406 -1.70312 15.8281 -13.1875
L8.01562 -13.1875
Q14.5 -2 17.7031 9.0625
Q20.9062 20.125 20.9062 31.3906
Q20.9062 42.6719 17.7031 53.6562
Q14.5 64.6562 8.01562 75.875" id="DejaVuSans-29"/>
      <path d="
M52 44.1875
Q55.375 50.25 60.0625 53.125
Q64.75 56 71.0938 56
Q79.6406 56 84.2812 50.0156
Q88.9219 44.0469 88.9219 33.0156
L88.9219 0
L79.8906 0
L79.8906 32.7188
Q79.8906 40.5781 77.0938 44.375
Q74.3125 48.1875 68.6094 48.1875
Q61.625 48.1875 57.5625 43.5469
Q53.5156 38.9219 53.5156 30.9062
L53.5156 0
L44.4844 0
L44.4844 32.7188
Q44.4844 40.625 41.7031 44.4062
Q38.9219 48.1875 33.1094 48.1875
Q26.2188 48.1875 22.1562 43.5312
Q18.1094 38.875 18.1094 30.9062
L18.1094 0
L9.07812 0
L9.07812 54.6875
L18.1094 54.6875
L18.1094 46.1875
Q21.1875 51.2188 25.4844 53.6094
Q29.7812 56 35.6875 56
Q41.6562 56 45.8281 52.9688
Q50 49.9531 52 44.1875" id="DejaVuSans-6d"/>
      <path d="
M9.42188 75.9844
L18.4062 75.9844
L18.4062 0
L9.42188 0
z
" id="DejaVuSans-6c"/>
      <path id="DejaVuSans-20"/>
      <path d="
M34.2812 27.4844
Q23.3906 27.4844 19.1875 25
Q14.9844 22.5156 14.9844 16.5
Q14.9844 11.7188 18.1406 8.90625
Q21.2969 6.10938 26.7031 6.10938
Q34.1875 6.10938 38.7031 11.4062
Q43.2188 16.7031 43.2188 25.4844
L43.2188 27.4844
z

M52.2031 31.2031
L52.2031 0
L43.2188 0
L43.2188 8.29688
Q40.1406 3.32812 35.5469 0.953125
Q30.9531 -1.42188 24.3125 -1.42188
Q15.9219 -1.42188 10.9531 3.29688
Q6 8.01562 6 15.9219
Q6 25.1406 12.1719 29.8281
Q18.3594 34.5156 30.6094 34.5156
L43.2188 34.5156
L43.2188 35.4062
Q43.2188 41.6094 39.1406 45
Q35.0625 48.3906 27.6875 48.3906
Q23 48.3906 18.5469 47.2656
Q14.1094 46.1406 10.0156 43.8906
L10.0156 52.2031
Q14.9375 54.1094 19.5781 55.0469
Q24.2188 56 28.6094 56
Q40.4844 56 46.3438 49.8438
Q52.2031 43.7031 52.2031 31.2031" id="DejaVuSans-61"/>
      <path d="
M9.42188 54.6875
L18.4062 54.6875
L18.4062 0
L9.42188 0
z

M9.42188 75.9844
L18.4062 75.9844
L18.4062 64.5938
L9.42188 64.5938
z
" id="DejaVuSans-69"/>
      <path d="
M45.4062 27.9844
Q45.4062 37.75 41.375 43.1094
Q37.3594 48.4844 30.0781 48.4844
Q22.8594 48.4844 18.8281 43.1094
Q14.7969 37.75 14.7969 27.9844
Q14.7969 18.2656 18.8281 12.8906
Q22.8594 7.51562 30.0781 7.51562
Q37.3594 7.51562 41.375 12.8906
Q45.4062 18.2656 45.4062 27.9844
M54.3906 6.78125
Q54.3906 -7.17188 48.1875 -13.9844
Q42 -20.7969 29.2031 -20.7969
Q24.4688 -20.7969 20.2656 -20.0938
Q16.0625 -19.3906 12.1094 -17.9219
L12.1094 -9.1875
Q16.0625 -11.3281 19.9219 -12.3438
Q23.7812 -13.375 27.7812 -13.375
Q36.625 -13.375 41.0156 -8.76562
Q45.4062 -4.15625 45.4062 5.17188
L45.4062 9.625
Q42.625 4.78125 38.2812 2.39062
Q33.9375 0 27.875 0
Q17.8281 0 11.6719 7.65625
Q5.51562 15.3281 5.51562 27.9844
Q5.51562 40.6719 11.6719 48.3281
Q17.8281 56 27.875 56
Q33.9375 56 38.2812 53.6094
Q42.625 51.2188 45.4062 46.3906
L45.4062 54.6875
L54.3906 54.6875
z
" id="DejaVuSans-67"/>
      <path d="
M31 75.875
Q24.4688 64.6562 21.2812 53.6562
Q18.1094 42.6719 18.1094 31.3906
Q18.1094 20.125 21.3125 9.0625
Q24.5156 -2 31 -13.1875
L23.1875 -13.1875
Q15.875 -1.70312 12.2344 9.375
Q8.59375 20.4531 8.59375 31.3906
Q8.59375 42.2812 12.2031 53.3125
Q15.8281 64.3594 23.1875 75.875
z
" id="DejaVuSans-28"/>
      <path d="
M56.2031 29.5938
L56.2031 25.2031
L14.8906 25.2031
Q15.4844 15.9219 20.4844 11.0625
Q25.4844 6.20312 34.4219 6.20312
Q39.5938 6.20312 44.4531 7.46875
Q49.3125 8.73438 54.1094 11.2812
L54.1094 2.78125
Q49.2656 0.734375 44.1875 -0.34375
Q39.1094 -1.42188 33.8906 -1.42188
Q20.7969 -1.42188 13.1562 6.1875
Q5.51562 13.8125 5.51562 26.8125
Q5.51562 40.2344 12.7656 48.1094
Q20.0156 56 32.3281 56
Q43.3594 56 49.7812 48.8906
Q56.2031 41.7969 56.2031 29.5938
M47.2188 32.2344
Q47.125 39.5938 43.0938 43.9844
Q39.0625 48.3906 32.4219 48.3906
Q24.9062 48.3906 20.3906 44.1406
Q15.875 39.8906 15.1875 32.1719
z
" id="DejaVuSans-65"/>
      <path d="
M44.2812 53.0781
L44.2812 44.5781
Q40.4844 46.5312 36.375 47.5
Q32.2812 48.4844 27.875 48.4844
Q21.1875 48.4844 17.8438 46.4375
Q14.5 44.3906 14.5 40.2812
Q14.5 37.1562 16.8906 35.375
Q19.2812 33.5938 26.5156 31.9844
L29.5938 31.2969
Q39.1562 29.25 43.1875 25.5156
Q47.2188 21.7812 47.2188 15.0938
Q47.2188 7.46875 41.1875 3.01562
Q35.1562 -1.42188 24.6094 -1.42188
Q20.2188 -1.42188 15.4531 -0.5625
Q10.6875 0.296875 5.42188 2
L5.42188 11.2812
Q10.4062 8.6875 15.2344 7.39062
Q20.0625 6.10938 24.8125 6.10938
Q31.1562 6.10938 34.5625 8.28125
Q37.9844 10.4531 37.9844 14.4062
Q37.9844 18.0625 35.5156 20.0156
Q33.0625 21.9688 24.7031 23.7812
L21.5781 24.5156
Q13.2344 26.2656 9.51562 29.9062
Q5.8125 33.5469 5.8125 39.8906
Q5.8125 47.6094 11.2812 51.7969
Q16.75 56 26.8125 56
Q31.7812 56 36.1719 55.2656
Q40.5781 54.5469 44.2812 53.0781" id="DejaVuSans-73"/>
      <path d="
M-0.296875 72.9062
L61.375 72.9062
L61.375 64.5938
L35.5 64.5938
L35.5 0
L25.5938 0
L25.5938 64.5938
L-0.296875 64.5938
z
" id="DejaVuSans-54"/>
     </defs>
     <g transform="translate(51.82828125 105.1625)scale(0.1 -0.1)">
      <use xlink:href="#DejaVuSans-54"/>
      <use x="57.958984375" xlink:href="#DejaVuSans-69"/>
      <use x="85.7421875" xlink:href="#DejaVuSans-6d"/>
      <use x="183.154296875" xlink:href="#DejaVuSans-65"/>
      <use x="244.677734375" xlink:href="#DejaVuSans-20"/>
      <use x="276.46484375" xlink:href="#DejaVuSans-6c"/>
      <use x="304.248046875" xlink:href="#DejaVuSans-61"/>
      <use x="365.52734375" xlink:href="#DejaVuSans-67"/>
      <use x="429.00390625" xlink:href="#DejaVuSans-28"/>
      <use x="468.017578125" xlink:href="#DejaVuSans-6d"/>
      <use x="565.4296875" xlink:href="#DejaVuSans-73"/>
      <use x="617.529296875" xlink:href="#DejaVuSans-29"/>
     </g>
    </g>
   </g>
   <g id="matplotlib.axis_2">
    <g id="ytick_1">
     <g id="line2d_8">
      <defs>
       <path d="
M0 0
L4 0" id="me8a85f7bf6" style="stroke:#000000;stroke-linecap:butt;stroke-width:0.5;"/>
      </defs>
      <g>
       <use style="stroke:#000000;stroke-linecap:butt;stroke-width:0.5;" x="37.44" xlink:href="#me8a85f7bf6" y="81.0"/>
      </g>
     </g>
     <g id="text_5">
      <!-- 0 -->
      <g transform="translate(28.4009375 84.63984375)scale(0.1 -0.1)">
       <use xlink:href="#DejaVuSans-30"/>
      </g>
     </g>
    </g>
    <g id="ytick_2">
     <g id="line2d_9">
      <g>
       <use style="stroke:#000000;stroke-linecap:butt;stroke-width:0.5;" x="37.44" xlink:href="#me8a85f7bf6" y="45.9"/>
      </g>
     </g>
     <g id="text_6">
      <!-- 5 -->
      <g transform="translate(28.7228125 49.47421875)scale(0.1 -0.1)">
       <use xlink:href="#DejaVuSans-35"/>
      </g>
     </g>
    </g>
    <g id="ytick_3">
     <g id="line2d_10">
      <g>
       <use style="stroke:#000000;stroke-linecap:butt;stroke-width:0.5;" x="37.44" xlink:href="#me8a85f7bf6" y="10.8"/>
      </g>
     </g>
     <g id="text_7">
      <!-- 10 -->
      <g transform="translate(22.4775 14.43984375)scale(0.1 -0.1)">
       <use xlink:href="#DejaVuSans-31"/>
       <use x="63.623046875" xlink:href="#DejaVuSans-30"/>
      </g>
     </g>
    </g>
    <g id="text_8">
     <!-- Activity(Hz) -->
     <defs>
      <path d="
M5.51562 54.6875
L48.1875 54.6875
L48.1875 46.4844
L14.4062 7.17188
L48.1875 7.17188
L48.1875 0
L4.29688 0
L4.29688 8.20312
L38.0938 47.5156
L5.51562 47.5156
z
" id="DejaVuSans-7a"/>
      <path d="
M32.1719 -5.07812
Q28.375 -14.8438 24.75 -17.8125
Q21.1406 -20.7969 15.0938 -20.7969
L7.90625 -20.7969
L7.90625 -13.2812
L13.1875 -13.2812
Q16.8906 -13.2812 18.9375 -11.5156
Q21 -9.76562 23.4844 -3.21875
L25.0938 0.875
L2.98438 54.6875
L12.5 54.6875
L29.5938 11.9219
L46.6875 54.6875
L56.2031 54.6875
z
" id="DejaVuSans-79"/>
      <path d="
M34.1875 63.1875
L20.7969 26.9062
L47.6094 26.9062
z

M28.6094 72.9062
L39.7969 72.9062
L67.5781 0
L57.3281 0
L50.6875 18.7031
L17.8281 18.7031
L11.1875 0
L0.78125 0
z
" id="DejaVuSans-41"/>
      <path d="
M18.3125 70.2188
L18.3125 54.6875
L36.8125 54.6875
L36.8125 47.7031
L18.3125 47.7031
L18.3125 18.0156
Q18.3125 11.3281 20.1406 9.42188
Q21.9688 7.51562 27.5938 7.51562
L36.8125 7.51562
L36.8125 0
L27.5938 0
Q17.1875 0 13.2344 3.875
Q9.28125 7.76562 9.28125 18.0156
L9.28125 47.7031
L2.6875 47.7031
L2.6875 54.6875
L9.28125 54.6875
L9.28125 70.2188
z
" id="DejaVuSans-74"/>
      <path d="
M2.98438 54.6875
L12.5 54.6875
L29.5938 8.79688
L46.6875 54.6875
L56.2031 54.6875
L35.6875 0
L23.4844 0
z
" id="DejaVuSans-76"/>
      <path d="
M9.8125 72.9062
L19.6719 72.9062
L19.6719 43.0156
L55.5156 43.0156
L55.5156 72.9062
L65.375 72.9062
L65.375 0
L55.5156 0
L55.5156 34.7188
L19.6719 34.7188
L19.6719 0
L9.8125 0
z
" id="DejaVuSans-48"/>
      <path d="
M48.7812 52.5938
L48.7812 44.1875
Q44.9688 46.2969 41.1406 47.3438
Q37.3125 48.3906 33.4062 48.3906
Q24.6562 48.3906 19.8125 42.8438
Q14.9844 37.3125 14.9844 27.2969
Q14.9844 17.2812 19.8125 11.7344
Q24.6562 6.20312 33.4062 6.20312
Q37.3125 6.20312 41.1406 7.25
Q44.9688 8.29688 48.7812 10.4062
L48.7812 2.09375
Q45.0156 0.34375 40.9844 -0.53125
Q36.9688 -1.42188 32.4219 -1.42188
Q20.0625 -1.42188 12.7812 6.34375
Q5.51562 14.1094 5.51562 27.2969
Q5.51562 40.6719 12.8594 48.3281
Q20.2188 56 33.0156 56
Q37.1562 56 41.1094 55.1406
Q45.0625 54.2969 48.7812 52.5938" id="DejaVuSans-63"/>
     </defs>
     <g transform="translate(17.4775 72.33671875)rotate(-90.0)scale(0.1 -0.1)">
      <use xlink:href="#DejaVuSans-41"/>
      <use x="66.658203125" xlink:href="#DejaVuSans-63"/>
      <use x="121.638671875" xlink:href="#DejaVuSans-74"/>
      <use x="160.84765625" xlink:href="#DejaVuSans-69"/>
      <use x="188.630859375" xlink:href="#DejaVuSans-76"/>
      <use x="247.810546875" xlink:href="#DejaVuSans-69"/>
      <use x="275.59375" xlink:href="#DejaVuSans-74"/>
      <use x="314.802734375" xlink:href="#DejaVuSans-79"/>
      <use x="373.982421875" xlink:href="#DejaVuSans-28"/>
      <use x="412.99609375" xlink:href="#DejaVuSans-48"/>
      <use x="488.19140625" xlink:href="#DejaVuSans-7a"/>
      <use x="540.681640625" xlink:href="#DejaVuSans-29"/>
     </g>
    </g>
   </g>
   <g id="patch_3">
    <path d="
M37.44 81
L131.04 81" style="fill:none;stroke:#000000;stroke-width:0.5;"/>
   </g>
   <g id="patch_4">
    <path d="
M37.44 81
L37.44 10.8" style="fill:none;stroke:#000000;stroke-width:0.5;"/>
   </g>
  </g>
 </g>
 <defs>
  <clipPath id="pd1317ff781">
   <rect height="70.2" width="93.6" x="37.44" y="10.8"/>
  </clipPath>
 </defs>
</svg>
