<?xml version="1.0" encoding="utf-8" standalone="no"?>
<!DOCTYPE svg PUBLIC "-//W3C//DTD SVG 1.1//EN"
  "http://www.w3.org/Graphics/SVG/1.1/DTD/svg11.dtd">
<!-- Created with matplotlib (http://matplotlib.sourceforge.net/) -->
<svg height="108pt" version="1.1" viewBox="0 0 144 108" width="144pt" xmlns="http://www.w3.org/2000/svg" xmlns:xlink="http://www.w3.org/1999/xlink">
 <defs>
  <style type="text/css">
*{stroke-linecap:square;stroke-linejoin:round;}
  </style>
 </defs>
 <g id="figure_1">
  <g id="patch_1">
   <path d="
M0 108
L144 108
L144 0
L0 0
z
" style="fill:#ffffff;"/>
  </g>
  <g id="axes_1">
   <g id="patch_2">
    <path d="
M37.44 81
L131.04 81
L131.04 10.8
L37.44 10.8
z
" style="fill:#ffffff;"/>
   </g>
   <g id="line2d_1">
    <path clip-path="url(#pd1317ff781)" d="
M37.44 81
L38.376 81
L39.312 80.9771
L40.248 75.7429
L41.184 41.6615
L42.12 10.9942
L43.056 10.6632
L43.992 21.7086
L44.928 30.3661
L45.864 35.545
L46.8 38.7798
L47.736 41.0282
L48.672 42.8452
L49.608 44.3841
L50.544 45.3326
L51.48 46.0123
L52.416 46.6507
L53.352 47.3023
L54.288 47.5362
L55.224 47.8775
L56.16 48.0568
L57.096 48.2052
L58.032 48.3587
L58.968 48.5302
L59.904 48.6074
L60.84 48.5381
L61.776 48.6237
L62.712 48.5437
L63.648 48.6412
L64.584 48.8613
L65.52 48.7695
L66.456 48.7111
L67.392 48.8691
L68.328 48.8156
L69.264 48.8887
L70.2 48.8641
L71.136 48.6559
L72.072 48.7715
L73.008 48.7702
L73.944 48.7993
L74.88 48.8229
L75.816 48.7682
L76.752 48.8166
L77.688 48.8632
L78.624 48.6558
L79.56 48.7959
L80.496 48.8121
L81.432 48.773
L82.368 48.7813
L83.304 48.7762
L84.24 48.8158
L85.176 48.752
L86.112 48.8759
L87.048 48.8148
L87.984 48.8592
L88.92 48.7725
L89.856 48.7427
L90.792 48.7935
L91.728 48.8472
L92.664 48.7067
L93.6 48.7577
L94.536 48.7677
L95.472 48.7586
L96.408 48.7966
L97.344 48.6984
L98.28 48.8324
L99.216 48.7074
L100.152 48.7253
L101.088 48.7486
L102.024 48.8108
L102.96 48.5864
L103.896 48.722
L104.832 48.7457
L105.768 48.8379
L106.704 48.6973
L107.64 48.6906
L108.576 48.6669
L109.512 48.7218
L110.448 48.8227
L111.384 48.653
L112.32 48.7592
L113.256 48.7262
L114.192 48.6609
L115.128 48.7421
L116.064 48.7778
L117 48.7665
L117.936 48.8281
L118.872 48.7157
L119.808 48.8347
L120.744 48.6706
L121.68 48.6908
L122.616 48.6893
L123.552 48.7961
L124.488 48.6911
L125.424 48.8285
L126.36 48.7326
L127.296 48.731
L128.232 48.7301
L129.168 48.6581
L130.104 48.8192
L131.04 48.89
L131.976 48.7527" style="fill:none;stroke:#0000ff;stroke-width:0.5;"/>
   </g>
   <g id="line2d_2">
    <path clip-path="url(#pd1317ff781)" d="
M37.44 81
L38.376 81
L39.312 80.9815
L40.248 75.7457
L41.184 41.9724
L42.12 11.3668
L43.056 11.4354
L43.992 22.0013
L44.928 30.4998
L45.864 35.6334
L46.8 38.8238
L47.736 41.2679
L48.672 42.8923
L49.608 44.1934
L50.544 45.3523
L51.48 46.1793
L52.416 46.8222
L53.352 47.2059
L54.288 47.5141
L55.224 47.8998
L56.16 48.0252
L57.096 48.3639
L58.032 48.2408
L58.968 48.4072
L59.904 48.5488
L60.84 48.6047
L61.776 48.5432
L62.712 48.6887
L63.648 48.6798
L64.584 48.7494
L65.52 48.6381
L66.456 48.7469
L67.392 48.8047
L68.328 48.6065
L69.264 48.6653
L70.2 48.7857
L71.136 48.7162
L72.072 48.6402
L73.008 48.835
L73.944 48.7433
L74.88 48.739
L75.816 48.8345
L76.752 48.8212
L77.688 48.8342
L78.624 48.7624
L79.56 48.8254
L80.496 48.7771
L81.432 48.8155
L82.368 48.7988
L83.304 48.7394
L84.24 48.858
L85.176 48.7314
L86.112 48.8026
L87.048 48.7351
L87.984 48.662
L88.92 48.7011
L89.856 48.6353
L90.792 48.6322
L91.728 48.6582
L92.664 48.7145
L93.6 48.8445
L94.536 48.7949
L95.472 48.5563
L96.408 48.7028
L97.344 48.8014
L98.28 48.7056
L99.216 48.7838
L100.152 48.7584
L101.088 48.7222
L102.024 48.6681
L102.96 48.7105
L103.896 48.8845
L104.832 48.7529
L105.768 48.7465
L106.704 48.6711
L107.64 48.6349
L108.576 48.7546
L109.512 48.7379
L110.448 48.6068
L111.384 48.7852
L112.32 48.7814
L113.256 48.7435
L114.192 48.7652
L115.128 48.8153
L116.064 48.6581
L117 48.7153
L117.936 48.7387
L118.872 48.7432
L119.808 48.7605
L120.744 48.7708
L121.68 48.6874
L122.616 48.7648
L123.552 48.8233
L124.488 48.6653
L125.424 48.6986
L126.36 48.7378
L127.296 48.707
L128.232 48.7871
L129.168 48.6708
L130.104 48.8531
L131.04 48.7893
L131.976 48.8039" style="fill:none;stroke:#008000;stroke-width:0.5;"/>
   </g>
   <g id="line2d_3">
    <path clip-path="url(#pd1317ff781)" d="
M37.44 81
L38.376 81
L39.312 80.9796
L40.248 75.7667
L41.184 41.9954
L42.12 11.2147
L43.056 11.1278
L43.992 21.6946
L44.928 30.4247
L45.864 35.604
L46.8 38.8102
L47.736 41.06
L48.672 42.8814
L49.608 44.3503
L50.544 45.5107
L51.48 46.2424
L52.416 46.764
L53.352 47.1682
L54.288 47.6909
L55.224 47.9361
L56.16 48.1239
L57.096 48.273
L58.032 48.4745
L58.968 48.6059
L59.904 48.595
L60.84 48.7197
L61.776 48.7975
L62.712 48.7893
L63.648 48.8467
L64.584 48.7124
L65.52 48.7904
L66.456 48.7902
L67.392 48.7436
L68.328 48.9342
L69.264 48.7037
L70.2 48.8111
L71.136 48.7293
L72.072 48.9507
L73.008 48.6991
L73.944 48.7856
L74.88 48.7917
L75.816 48.9029
L76.752 48.7285
L77.688 48.6604
L78.624 48.8175
L79.56 48.8826
L80.496 48.8595
L81.432 48.7767
L82.368 48.7125
L83.304 48.7941
L84.24 48.7701
L85.176 48.7712
L86.112 48.8095
L87.048 48.9222
L87.984 48.8209
L88.92 48.8851
L89.856 48.901
L90.792 48.8719
L91.728 48.892
L92.664 48.8095
L93.6 48.8161
L94.536 48.7923
L95.472 48.6778
L96.408 48.8849
L97.344 48.8165
L98.28 48.9073
L99.216 48.7889
L100.152 48.83
L101.088 48.7599
L102.024 48.8446
L102.96 48.8658
L103.896 48.8603
L104.832 48.878
L105.768 48.8794
L106.704 48.7772
L107.64 48.7646
L108.576 48.7977
L109.512 48.8402
L110.448 48.7222
L111.384 48.8836
L112.32 48.8509
L113.256 48.7325
L114.192 48.9095
L115.128 48.9217
L116.064 48.7413
L117 48.8212
L117.936 48.7393
L118.872 48.7873
L119.808 48.8107
L120.744 48.7915
L121.68 48.8334
L122.616 48.7773
L123.552 48.7192
L124.488 48.6986
L125.424 48.6541
L126.36 48.7513
L127.296 48.8111
L128.232 48.8567
L129.168 48.6655
L130.104 48.8785
L131.04 48.8779
L131.976 48.9103" style="fill:none;stroke:#ff0000;stroke-width:0.5;"/>
   </g>
   <g id="line2d_4">
    <path clip-path="url(#pd1317ff781)" d="
M37.44 81
L38.376 81
L39.312 80.9801
L40.248 75.7438
L41.184 42.0296
L42.12 11.333
L43.056 11.075
L43.992 21.6424
L44.928 30.2216
L45.864 35.5543
L46.8 38.8341
L47.736 41.0971
L48.672 42.8717
L49.608 44.1912
L50.544 45.4117
L51.48 46.2707
L52.416 46.7388
L53.352 47.2623
L54.288 47.5311
L55.224 47.9846
L56.16 48.1302
L57.096 48.2894
L58.032 48.3705
L58.968 48.5474
L59.904 48.5886
L60.84 48.6727
L61.776 48.7272
L62.712 48.7318
L63.648 48.6986
L64.584 48.8987
L65.52 48.7573
L66.456 48.7071
L67.392 48.7945
L68.328 48.8552
L69.264 48.7895
L70.2 48.896
L71.136 48.7935
L72.072 48.7037
L73.008 48.808
L73.944 48.8772
L74.88 48.8283
L75.816 48.8565
L76.752 48.8044
L77.688 48.813
L78.624 48.8408
L79.56 48.8804
L80.496 48.8389
L81.432 48.8313
L82.368 48.7648
L83.304 48.8246
L84.24 48.6859
L85.176 48.9325
L86.112 48.9263
L87.048 48.8428
L87.984 48.7929
L88.92 48.7601
L89.856 48.8122
L90.792 48.882
L91.728 48.8193
L92.664 48.8642
L93.6 48.8695
L94.536 48.821
L95.472 48.8385
L96.408 48.815
L97.344 48.8172
L98.28 48.7617
L99.216 48.739
L100.152 48.8541
L101.088 48.7489
L102.024 48.7984
L102.96 48.9152
L103.896 48.8621
L104.832 48.8212
L105.768 48.7418
L106.704 48.5886
L107.64 48.7289
L108.576 48.8341
L109.512 48.8071
L110.448 48.8077
L111.384 48.714
L112.32 48.731
L113.256 48.7035
L114.192 48.6789
L115.128 48.7707
L116.064 48.6759
L117 48.7298
L117.936 48.7853
L118.872 48.818
L119.808 48.7413
L120.744 48.6877
L121.68 48.7818
L122.616 48.7892
L123.552 48.7161
L124.488 48.7637
L125.424 48.8685
L126.36 48.6901
L127.296 48.8584
L128.232 48.7761
L129.168 48.7805
L130.104 48.7503
L131.04 48.7874
L131.976 48.7768" style="fill:none;stroke:#00bfbf;stroke-width:0.5;"/>
   </g>
   <g id="matplotlib.axis_1">
    <g id="xtick_1">
     <g id="line2d_5">
      <defs>
       <path d="
M0 0
L0 -4" id="m0012dd4eef" style="stroke:#000000;stroke-linecap:butt;stroke-width:0.5;"/>
      </defs>
      <g>
       <use style="stroke:#000000;stroke-linecap:butt;stroke-width:0.5;" x="37.44" xlink:href="#m0012dd4eef" y="81.0"/>
      </g>
     </g>
     <g id="text_1">
      <!-- 0 -->
      <defs>
       <path d="
M31.7812 66.4062
Q24.1719 66.4062 20.3281 58.9062
Q16.5 51.4219 16.5 36.375
Q16.5 21.3906 20.3281 13.8906
Q24.1719 6.39062 31.7812 6.39062
Q39.4531 6.39062 43.2812 13.8906
Q47.125 21.3906 47.125 36.375
Q47.125 51.4219 43.2812 58.9062
Q39.4531 66.4062 31.7812 66.4062
M31.7812 74.2188
Q44.0469 74.2188 50.5156 64.5156
Q56.9844 54.8281 56.9844 36.375
Q56.9844 17.9688 50.5156 8.26562
Q44.0469 -1.42188 31.7812 -1.42188
Q19.5312 -1.42188 13.0625 8.26562
Q6.59375 17.9688 6.59375 36.375
Q6.59375 54.8281 13.0625 64.5156
Q19.5312 74.2188 31.7812 74.2188" id="DejaVuSans-30"/>
      </defs>
      <g transform="translate(34.92046875 92.421875)scale(0.1 -0.1)">
       <use xlink:href="#DejaVuSans-30"/>
      </g>
     </g>
    </g>
    <g id="xtick_2">
     <g id="line2d_6">
      <g>
       <use style="stroke:#000000;stroke-linecap:butt;stroke-width:0.5;" x="84.24" xlink:href="#m0012dd4eef" y="81.0"/>
      </g>
     </g>
     <g id="text_2">
      <!-- 50 -->
      <defs>
       <path d="
M10.7969 72.9062
L49.5156 72.9062
L49.5156 64.5938
L19.8281 64.5938
L19.8281 46.7344
Q21.9688 47.4688 24.1094 47.8281
Q26.2656 48.1875 28.4219 48.1875
Q40.625 48.1875 47.75 41.5
Q54.8906 34.8125 54.8906 23.3906
Q54.8906 11.625 47.5625 5.09375
Q40.2344 -1.42188 26.9062 -1.42188
Q22.3125 -1.42188 17.5469 -0.640625
Q12.7969 0.140625 7.71875 1.70312
L7.71875 11.625
Q12.1094 9.23438 16.7969 8.0625
Q21.4844 6.89062 26.7031 6.89062
Q35.1562 6.89062 40.0781 11.3281
Q45.0156 15.7656 45.0156 23.3906
Q45.0156 31 40.0781 35.4375
Q35.1562 39.8906 26.7031 39.8906
Q22.75 39.8906 18.8125 39.0156
Q14.8906 38.1406 10.7969 36.2812
z
" id="DejaVuSans-35"/>
      </defs>
      <g transform="translate(78.59546875 92.421875)scale(0.1 -0.1)">
       <use xlink:href="#DejaVuSans-35"/>
       <use x="63.623046875" xlink:href="#DejaVuSans-30"/>
      </g>
     </g>
    </g>
    <g id="xtick_3">
     <g id="line2d_7">
      <g>
       <use style="stroke:#000000;stroke-linecap:butt;stroke-width:0.5;" x="131.04" xlink:href="#m0012dd4eef" y="81.0"/>
      </g>
     </g>
     <g id="text_3">
      <!-- 100 -->
      <defs>
       <path d="
M12.4062 8.29688
L28.5156 8.29688
L28.5156 63.9219
L10.9844 60.4062
L10.9844 69.3906
L28.4219 72.9062
L38.2812 72.9062
L38.2812 8.29688
L54.3906 8.29688
L54.3906 0
L12.4062 0
z
" id="DejaVuSans-31"/>
      </defs>
      <g transform="translate(122.3775 92.421875)scale(0.1 -0.1)">
       <use xlink:href="#DejaVuSans-31"/>
       <use x="63.623046875" xlink:href="#DejaVuSans-30"/>
       <use x="127.24609375" xlink:href="#DejaVuSans-30"/>
      </g>
     </g>
    </g>
    <g id="text_4">
     <!-- Time lag(ms) -->
     <defs>
      <path d="
M8.01562 75.875
L15.8281 75.875
Q23.1406 64.3594 26.7812 53.3125
Q30.4219 42.2812 30.4219 31.3906
Q30.4219 20.4531 26.7812 9.375
Q23.1406 -1.70312 15.8281 -13.1875
L8.01562 -13.1875
Q14.5 -2 17.7031 9.0625
Q20.9062 20.125 20.9062 31.3906
Q20.9062 42.6719 17.7031 53.6562
Q14.5 64.6562 8.01562 75.875" id="DejaVuSans-29"/>
      <path d="
M52 44.1875
Q55.375 50.25 60.0625 53.125
Q64.75 56 71.0938 56
Q79.6406 56 84.2812 50.0156
Q88.9219 44.0469 88.9219 33.0156
L88.9219 0
L79.8906 0
L79.8906 32.7188
Q79.8906 40.5781 77.0938 44.375
Q74.3125 48.1875 68.6094 48.1875
Q61.625 48.1875 57.5625 43.5469
Q53.5156 38.9219 53.5156 30.9062
L53.5156 0
L44.4844 0
L44.4844 32.7188
Q44.4844 40.625 41.7031 44.4062
Q38.9219 48.1875 33.1094 48.1875
Q26.2188 48.1875 22.1562 43.5312
Q18.1094 38.875 18.1094 30.9062
L18.1094 0
L9.07812 0
L9.07812 54.6875
L18.1094 54.6875
L18.1094 46.1875
Q21.1875 51.2188 25.4844 53.6094
Q29.7812 56 35.6875 56
Q41.6562 56 45.8281 52.9688
Q50 49.9531 52 44.1875" id="DejaVuSans-6d"/>
      <path d="
M9.42188 75.9844
L18.4062 75.9844
L18.4062 0
L9.42188 0
z
" id="DejaVuSans-6c"/>
      <path id="DejaVuSans-20"/>
      <path d="
M34.2812 27.4844
Q23.3906 27.4844 19.1875 25
Q14.9844 22.5156 14.9844 16.5
Q14.9844 11.7188 18.1406 8.90625
Q21.2969 6.10938 26.7031 6.10938
Q34.1875 6.10938 38.7031 11.4062
Q43.2188 16.7031 43.2188 25.4844
L43.2188 27.4844
z

M52.2031 31.2031
L52.2031 0
L43.2188 0
L43.2188 8.29688
Q40.1406 3.32812 35.5469 0.953125
Q30.9531 -1.42188 24.3125 -1.42188
Q15.9219 -1.42188 10.9531 3.29688
Q6 8.01562 6 15.9219
Q6 25.1406 12.1719 29.8281
Q18.3594 34.5156 30.6094 34.5156
L43.2188 34.5156
L43.2188 35.4062
Q43.2188 41.6094 39.1406 45
Q35.0625 48.3906 27.6875 48.3906
Q23 48.3906 18.5469 47.2656
Q14.1094 46.1406 10.0156 43.8906
L10.0156 52.2031
Q14.9375 54.1094 19.5781 55.0469
Q24.2188 56 28.6094 56
Q40.4844 56 46.3438 49.8438
Q52.2031 43.7031 52.2031 31.2031" id="DejaVuSans-61"/>
      <path d="
M9.42188 54.6875
L18.4062 54.6875
L18.4062 0
L9.42188 0
z

M9.42188 75.9844
L18.4062 75.9844
L18.4062 64.5938
L9.42188 64.5938
z
" id="DejaVuSans-69"/>
      <path d="
M45.4062 27.9844
Q45.4062 37.75 41.375 43.1094
Q37.3594 48.4844 30.0781 48.4844
Q22.8594 48.4844 18.8281 43.1094
Q14.7969 37.75 14.7969 27.9844
Q14.7969 18.2656 18.8281 12.8906
Q22.8594 7.51562 30.0781 7.51562
Q37.3594 7.51562 41.375 12.8906
Q45.4062 18.2656 45.4062 27.9844
M54.3906 6.78125
Q54.3906 -7.17188 48.1875 -13.9844
Q42 -20.7969 29.2031 -20.7969
Q24.4688 -20.7969 20.2656 -20.0938
Q16.0625 -19.3906 12.1094 -17.9219
L12.1094 -9.1875
Q16.0625 -11.3281 19.9219 -12.3438
Q23.7812 -13.375 27.7812 -13.375
Q36.625 -13.375 41.0156 -8.76562
Q45.4062 -4.15625 45.4062 5.17188
L45.4062 9.625
Q42.625 4.78125 38.2812 2.39062
Q33.9375 0 27.875 0
Q17.8281 0 11.6719 7.65625
Q5.51562 15.3281 5.51562 27.9844
Q5.51562 40.6719 11.6719 48.3281
Q17.8281 56 27.875 56
Q33.9375 56 38.2812 53.6094
Q42.625 51.2188 45.4062 46.3906
L45.4062 54.6875
L54.3906 54.6875
z
" id="DejaVuSans-67"/>
      <path d="
M31 75.875
Q24.4688 64.6562 21.2812 53.6562
Q18.1094 42.6719 18.1094 31.3906
Q18.1094 20.125 21.3125 9.0625
Q24.5156 -2 31 -13.1875
L23.1875 -13.1875
Q15.875 -1.70312 12.2344 9.375
Q8.59375 20.4531 8.59375 31.3906
Q8.59375 42.2812 12.2031 53.3125
Q15.8281 64.3594 23.1875 75.875
z
" id="DejaVuSans-28"/>
      <path d="
M56.2031 29.5938
L56.2031 25.2031
L14.8906 25.2031
Q15.4844 15.9219 20.4844 11.0625
Q25.4844 6.20312 34.4219 6.20312
Q39.5938 6.20312 44.4531 7.46875
Q49.3125 8.73438 54.1094 11.2812
L54.1094 2.78125
Q49.2656 0.734375 44.1875 -0.34375
Q39.1094 -1.42188 33.8906 -1.42188
Q20.7969 -1.42188 13.1562 6.1875
Q5.51562 13.8125 5.51562 26.8125
Q5.51562 40.2344 12.7656 48.1094
Q20.0156 56 32.3281 56
Q43.3594 56 49.7812 48.8906
Q56.2031 41.7969 56.2031 29.5938
M47.2188 32.2344
Q47.125 39.5938 43.0938 43.9844
Q39.0625 48.3906 32.4219 48.3906
Q24.9062 48.3906 20.3906 44.1406
Q15.875 39.8906 15.1875 32.1719
z
" id="DejaVuSans-65"/>
      <path d="
M44.2812 53.0781
L44.2812 44.5781
Q40.4844 46.5312 36.375 47.5
Q32.2812 48.4844 27.875 48.4844
Q21.1875 48.4844 17.8438 46.4375
Q14.5 44.3906 14.5 40.2812
Q14.5 37.1562 16.8906 35.375
Q19.2812 33.5938 26.5156 31.9844
L29.5938 31.2969
Q39.1562 29.25 43.1875 25.5156
Q47.2188 21.7812 47.2188 15.0938
Q47.2188 7.46875 41.1875 3.01562
Q35.1562 -1.42188 24.6094 -1.42188
Q20.2188 -1.42188 15.4531 -0.5625
Q10.6875 0.296875 5.42188 2
L5.42188 11.2812
Q10.4062 8.6875 15.2344 7.39062
Q20.0625 6.10938 24.8125 6.10938
Q31.1562 6.10938 34.5625 8.28125
Q37.9844 10.4531 37.9844 14.4062
Q37.9844 18.0625 35.5156 20.0156
Q33.0625 21.9688 24.7031 23.7812
L21.5781 24.5156
Q13.2344 26.2656 9.51562 29.9062
Q5.8125 33.5469 5.8125 39.8906
Q5.8125 47.6094 11.2812 51.7969
Q16.75 56 26.8125 56
Q31.7812 56 36.1719 55.2656
Q40.5781 54.5469 44.2812 53.0781" id="DejaVuSans-73"/>
      <path d="
M-0.296875 72.9062
L61.375 72.9062
L61.375 64.5938
L35.5 64.5938
L35.5 0
L25.5938 0
L25.5938 64.5938
L-0.296875 64.5938
z
" id="DejaVuSans-54"/>
     </defs>
     <g transform="translate(51.82828125 105.1625)scale(0.1 -0.1)">
      <use xlink:href="#DejaVuSans-54"/>
      <use x="57.958984375" xlink:href="#DejaVuSans-69"/>
      <use x="85.7421875" xlink:href="#DejaVuSans-6d"/>
      <use x="183.154296875" xlink:href="#DejaVuSans-65"/>
      <use x="244.677734375" xlink:href="#DejaVuSans-20"/>
      <use x="276.46484375" xlink:href="#DejaVuSans-6c"/>
      <use x="304.248046875" xlink:href="#DejaVuSans-61"/>
      <use x="365.52734375" xlink:href="#DejaVuSans-67"/>
      <use x="429.00390625" xlink:href="#DejaVuSans-28"/>
      <use x="468.017578125" xlink:href="#DejaVuSans-6d"/>
      <use x="565.4296875" xlink:href="#DejaVuSans-73"/>
      <use x="617.529296875" xlink:href="#DejaVuSans-29"/>
     </g>
    </g>
   </g>
   <g id="matplotlib.axis_2">
    <g id="ytick_1">
     <g id="line2d_8">
      <defs>
       <path d="
M0 0
L4 0" id="me8a85f7bf6" style="stroke:#000000;stroke-linecap:butt;stroke-width:0.5;"/>
      </defs>
      <g>
       <use style="stroke:#000000;stroke-linecap:butt;stroke-width:0.5;" x="37.44" xlink:href="#me8a85f7bf6" y="81.0"/>
      </g>
     </g>
     <g id="text_5">
      <!-- 0 -->
      <g transform="translate(28.4009375 84.63984375)scale(0.1 -0.1)">
       <use xlink:href="#DejaVuSans-30"/>
      </g>
     </g>
    </g>
    <g id="ytick_2">
     <g id="line2d_9">
      <g>
       <use style="stroke:#000000;stroke-linecap:butt;stroke-width:0.5;" x="37.44" xlink:href="#me8a85f7bf6" y="51.1276595745"/>
      </g>
     </g>
     <g id="text_6">
      <!-- 10 -->
      <g transform="translate(22.4775 54.7675033245)scale(0.1 -0.1)">
       <use xlink:href="#DejaVuSans-31"/>
       <use x="63.623046875" xlink:href="#DejaVuSans-30"/>
      </g>
     </g>
    </g>
    <g id="ytick_3">
     <g id="line2d_10">
      <g>
       <use style="stroke:#000000;stroke-linecap:butt;stroke-width:0.5;" x="37.44" xlink:href="#me8a85f7bf6" y="21.2553191489"/>
      </g>
     </g>
     <g id="text_7">
      <!-- 20 -->
      <defs>
       <path d="
M19.1875 8.29688
L53.6094 8.29688
L53.6094 0
L7.32812 0
L7.32812 8.29688
Q12.9375 14.1094 22.625 23.8906
Q32.3281 33.6875 34.8125 36.5312
Q39.5469 41.8438 41.4219 45.5312
Q43.3125 49.2188 43.3125 52.7812
Q43.3125 58.5938 39.2344 62.25
Q35.1562 65.9219 28.6094 65.9219
Q23.9688 65.9219 18.8125 64.3125
Q13.6719 62.7031 7.8125 59.4219
L7.8125 69.3906
Q13.7656 71.7812 18.9375 73
Q24.125 74.2188 28.4219 74.2188
Q39.75 74.2188 46.4844 68.5469
Q53.2188 62.8906 53.2188 53.4219
Q53.2188 48.9219 51.5312 44.8906
Q49.8594 40.875 45.4062 35.4062
Q44.1875 33.9844 37.6406 27.2188
Q31.1094 20.4531 19.1875 8.29688" id="DejaVuSans-32"/>
      </defs>
      <g transform="translate(22.111875 24.8951628989)scale(0.1 -0.1)">
       <use xlink:href="#DejaVuSans-32"/>
       <use x="63.623046875" xlink:href="#DejaVuSans-30"/>
      </g>
     </g>
    </g>
    <g id="text_8">
     <!-- Activity(Hz) -->
     <defs>
      <path d="
M5.51562 54.6875
L48.1875 54.6875
L48.1875 46.4844
L14.4062 7.17188
L48.1875 7.17188
L48.1875 0
L4.29688 0
L4.29688 8.20312
L38.0938 47.5156
L5.51562 47.5156
z
" id="DejaVuSans-7a"/>
      <path d="
M32.1719 -5.07812
Q28.375 -14.8438 24.75 -17.8125
Q21.1406 -20.7969 15.0938 -20.7969
L7.90625 -20.7969
L7.90625 -13.2812
L13.1875 -13.2812
Q16.8906 -13.2812 18.9375 -11.5156
Q21 -9.76562 23.4844 -3.21875
L25.0938 0.875
L2.98438 54.6875
L12.5 54.6875
L29.5938 11.9219
L46.6875 54.6875
L56.2031 54.6875
z
" id="DejaVuSans-79"/>
      <path d="
M34.1875 63.1875
L20.7969 26.9062
L47.6094 26.9062
z

M28.6094 72.9062
L39.7969 72.9062
L67.5781 0
L57.3281 0
L50.6875 18.7031
L17.8281 18.7031
L11.1875 0
L0.78125 0
z
" id="DejaVuSans-41"/>
      <path d="
M18.3125 70.2188
L18.3125 54.6875
L36.8125 54.6875
L36.8125 47.7031
L18.3125 47.7031
L18.3125 18.0156
Q18.3125 11.3281 20.1406 9.42188
Q21.9688 7.51562 27.5938 7.51562
L36.8125 7.51562
L36.8125 0
L27.5938 0
Q17.1875 0 13.2344 3.875
Q9.28125 7.76562 9.28125 18.0156
L9.28125 47.7031
L2.6875 47.7031
L2.6875 54.6875
L9.28125 54.6875
L9.28125 70.2188
z
" id="DejaVuSans-74"/>
      <path d="
M2.98438 54.6875
L12.5 54.6875
L29.5938 8.79688
L46.6875 54.6875
L56.2031 54.6875
L35.6875 0
L23.4844 0
z
" id="DejaVuSans-76"/>
      <path d="
M9.8125 72.9062
L19.6719 72.9062
L19.6719 43.0156
L55.5156 43.0156
L55.5156 72.9062
L65.375 72.9062
L65.375 0
L55.5156 0
L55.5156 34.7188
L19.6719 34.7188
L19.6719 0
L9.8125 0
z
" id="DejaVuSans-48"/>
      <path d="
M48.7812 52.5938
L48.7812 44.1875
Q44.9688 46.2969 41.1406 47.3438
Q37.3125 48.3906 33.4062 48.3906
Q24.6562 48.3906 19.8125 42.8438
Q14.9844 37.3125 14.9844 27.2969
Q14.9844 17.2812 19.8125 11.7344
Q24.6562 6.20312 33.4062 6.20312
Q37.3125 6.20312 41.1406 7.25
Q44.9688 8.29688 48.7812 10.4062
L48.7812 2.09375
Q45.0156 0.34375 40.9844 -0.53125
Q36.9688 -1.42188 32.4219 -1.42188
Q20.0625 -1.42188 12.7812 6.34375
Q5.51562 14.1094 5.51562 27.2969
Q5.51562 40.6719 12.8594 48.3281
Q20.2188 56 33.0156 56
Q37.1562 56 41.1094 55.1406
Q45.0625 54.2969 48.7812 52.5938" id="DejaVuSans-63"/>
     </defs>
     <g transform="translate(17.111875 72.33671875)rotate(-90.0)scale(0.1 -0.1)">
      <use xlink:href="#DejaVuSans-41"/>
      <use x="66.658203125" xlink:href="#DejaVuSans-63"/>
      <use x="121.638671875" xlink:href="#DejaVuSans-74"/>
      <use x="160.84765625" xlink:href="#DejaVuSans-69"/>
      <use x="188.630859375" xlink:href="#DejaVuSans-76"/>
      <use x="247.810546875" xlink:href="#DejaVuSans-69"/>
      <use x="275.59375" xlink:href="#DejaVuSans-74"/>
      <use x="314.802734375" xlink:href="#DejaVuSans-79"/>
      <use x="373.982421875" xlink:href="#DejaVuSans-28"/>
      <use x="412.99609375" xlink:href="#DejaVuSans-48"/>
      <use x="488.19140625" xlink:href="#DejaVuSans-7a"/>
      <use x="540.681640625" xlink:href="#DejaVuSans-29"/>
     </g>
    </g>
   </g>
   <g id="patch_3">
    <path d="
M37.44 81
L131.04 81" style="fill:none;stroke:#000000;stroke-width:0.5;"/>
   </g>
   <g id="patch_4">
    <path d="
M37.44 81
L37.44 10.8" style="fill:none;stroke:#000000;stroke-width:0.5;"/>
   </g>
  </g>
 </g>
 <defs>
  <clipPath id="pd1317ff781">
   <rect height="70.2" width="93.6" x="37.44" y="10.8"/>
  </clipPath>
 </defs>
</svg>
