<?xml version="1.0" encoding="utf-8" standalone="no"?>
<!DOCTYPE svg PUBLIC "-//W3C//DTD SVG 1.1//EN"
  "http://www.w3.org/Graphics/SVG/1.1/DTD/svg11.dtd">
<!-- Created with matplotlib (http://matplotlib.sourceforge.net/) -->
<svg height="43pt" version="1.1" viewBox="0 0 57 43" width="57pt" xmlns="http://www.w3.org/2000/svg" xmlns:xlink="http://www.w3.org/1999/xlink">
 <defs>
  <style type="text/css">
*{stroke-linecap:square;stroke-linejoin:round;}
  </style>
 </defs>
 <g id="figure_1">
  <g id="patch_1">
   <path d="
M0 43.2
L57.6 43.2
L57.6 0
L0 0
z
" style="fill:#ffffff;"/>
  </g>
  <g id="axes_1">
   <g id="patch_2">
    <path d="
M8.64 31.104
L51.552 31.104
L51.552 5.184
L8.64 5.184
z
" style="fill:#ffffff;"/>
   </g>
   <g id="patch_3">
    <path clip-path="url(#p3428e6db54)" d="
M14.1185 31.104
L14.1185 31.0837
L22.3633 31.0228
L22.3633 30.962
L23.3939 30.8605
L23.3939 30.7388
L24.081 30.6982
L24.081 30.8605
L24.5963 30.7996
L24.5963 30.6576
L24.9398 30.5967
L24.9398 30.333
L25.4551 30.3735
L25.4551 29.9271
L25.6269 29.9271
L25.6269 30.1503
L25.7986 30.1503
L25.7986 29.6634
L26.1422 29.6431
L26.1422 29.4807
L26.3139 29.4807
L26.3139 29.217
L26.8292 29.1358
L26.8292 28.7503
L27.1728 28.73
L27.1728 28.4256
L27.3445 28.4256
L27.3445 28.101
L27.5163 28.101
L27.5163 27.7966
L27.6881 27.7966
L27.6881 26.7821
L28.0316 26.8632
L28.0316 26.1328
L28.2034 26.1328
L28.2034 25.7675
L28.3751 25.7675
L28.3751 24.9762
L28.5469 24.9762
L28.5469 24.3472
L28.7187 24.3472
L28.7187 23.15
L28.8904 23.15
L28.8904 22.2166
L29.0622 22.2166
L29.0622 19.8832
L29.234 19.8832
L29.234 19.7412
L29.4057 19.7412
L29.4057 16.0483
L29.5775 16.0483
L29.5775 13.3293
L29.7493 13.3293
L29.7493 10.8132
L29.921 10.8132
L29.921 8.2566
L30.0928 8.2566
L30.0928 6.2884
L30.2646 6.2884
L30.2646 5.6391
L30.6081 5.74055
L30.6081 7.05945
L30.7799 7.05945
L30.7799 9.10882
L30.9516 9.10882
L30.9516 12.0104
L31.1234 12.0104
L31.1234 13.6945
L31.2952 13.6945
L31.2952 18.402
L31.4669 18.402
L31.4669 20.2484
L31.6387 20.2484
L31.6387 22.379
L31.8105 22.379
L31.8105 24.7327
L31.9822 24.7327
L31.9822 25.382
L32.154 25.382
L32.154 27.3299
L32.3258 27.3299
L32.3258 28.1415
L32.4975 28.1415
L32.4975 28.4865
L32.6693 28.4865
L32.6693 29.2778
L32.8411 29.2778
L32.8411 29.6025
L33.1846 29.6836
L33.1846 29.9474
L33.3564 29.9474
L33.3564 30.333
L33.5281 30.333
L33.5281 30.5359
L34.0434 30.5561
L34.0434 30.7793
L35.0741 30.8808
L35.0741 30.9011
L35.5894 30.9823
L35.5894 31.0228
L48.4719 31.0837
L48.4719 31.104" style="fill:none;stroke:#0000ff;stroke-width:0.5;"/>
   </g>
   <g id="patch_4">
    <path clip-path="url(#p3428e6db54)" d="
M14.1136 31.104
L14.1136 31.082
L22.0491 31.0161
L22.0491 30.9282
L23.1601 30.9063
L23.1601 30.7745
L23.7949 30.8623
L23.7949 30.9063
L23.9537 30.9063
L23.9537 30.6866
L24.4298 30.6207
L24.4298 30.5328
L25.0646 30.4449
L25.0646 30.1813
L25.5408 30.0715
L25.5408 30.3571
L25.6995 30.3571
L25.6995 29.8957
L26.0169 30.0056
L26.0169 29.7639
L26.493 29.72
L26.493 29.4344
L26.6517 29.4344
L26.6517 28.7753
L26.8104 28.7753
L26.8104 29.2586
L26.9691 29.2586
L26.9691 28.6655
L27.1279 28.6655
L27.1279 28.4458
L27.2866 28.4458
L27.2866 27.8746
L27.4453 27.8746
L27.4453 27.6988
L27.604 27.6988
L27.604 26.9738
L27.7627 26.9738
L27.7627 26.7981
L27.9214 26.7981
L27.9214 26.2708
L28.0801 26.2708
L28.0801 26.9519
L28.2388 26.9519
L28.2388 25.2603
L28.3975 25.2603
L28.3975 24.9527
L28.5562 24.9527
L28.5562 23.5687
L28.715 23.5687
L28.715 23.327
L28.8737 23.327
L28.8737 21.921
L29.0324 21.921
L29.0324 20.4271
L29.1911 20.4271
L29.1911 18.8014
L29.3498 18.8014
L29.3498 17.2856
L29.5085 17.2856
L29.5085 14.1879
L29.6672 14.1879
L29.6672 12.3206
L29.8259 12.3206
L29.8259 10.8047
L29.9846 10.8047
L29.9846 7.66318
L30.1433 7.66318
L30.1433 5.3125
L30.302 5.3125
L30.302 6.38898
L30.4608 6.38898
L30.4608 5.99354
L30.6195 5.99354
L30.6195 7.17986
L30.7782 7.17986
L30.7782 10.1017
L30.9369 10.1017
L30.9369 11.8812
L31.0956 11.8812
L31.0956 14.5614
L31.2543 14.5614
L31.2543 16.4288
L31.413 16.4288
L31.413 18.7575
L31.5717 18.7575
L31.5717 21.3937
L31.7304 21.3937
L31.7304 23.4369
L31.8891 23.4369
L31.8891 25.0845
L32.0479 25.0845
L32.0479 26.6443
L32.2066 26.6443
L32.2066 27.6109
L32.3653 27.6109
L32.3653 28.1382
L32.524 28.1382
L32.524 28.7094
L32.6827 28.7094
L32.6827 29.2586
L32.8414 29.2586
L32.8414 29.4124
L33.0001 29.4124
L33.0001 29.8518
L33.3175 29.9616
L33.3175 30.2033
L33.4762 30.2033
L33.4762 30.3571
L33.635 30.3571
L33.635 30.7305
L34.9046 30.8184
L34.9046 30.9282
L37.1266 30.9942
L37.1266 31.104
L45.8556 31.082
L45.8556 31.104" style="fill:none;stroke:#008000;stroke-width:0.5;"/>
   </g>
   <g id="patch_5">
    <path clip-path="url(#p3428e6db54)" d="
M13.4916 31.104
L13.4916 31.0839
L22.5171 31.0839
L22.5171 30.9433
L23.3849 30.9634
L23.3849 30.8228
L23.9056 30.8228
L23.9056 30.6019
L24.0792 30.6019
L24.0792 30.8027
L24.2528 30.8027
L24.2528 30.5818
L25.2942 30.5015
L25.2942 30.16
L25.4678 30.16
L25.4678 29.8387
L25.8149 29.8789
L25.8149 30.1199
L26.162 30.0596
L26.162 29.7584
L26.3356 29.7584
L26.3356 29.3768
L26.5092 29.3768
L26.5092 28.8746
L27.0299 28.955
L27.0299 28.2319
L27.2034 28.2319
L27.2034 28.011
L27.5506 28.0311
L27.5506 27.5491
L27.7241 27.5491
L27.7241 26.9867
L27.8977 26.9867
L27.8977 27.2277
L28.0713 27.2277
L28.0713 26.0428
L28.2448 26.0428
L28.2448 25.5808
L28.592 25.5005
L28.592 23.3314
L28.7655 23.3314
L28.7655 23.0703
L28.9391 23.0703
L28.9391 21.6443
L29.1127 21.6443
L29.1127 19.435
L29.2862 19.435
L29.2862 17.6074
L29.4598 17.6074
L29.4598 16.2015
L29.6334 16.2015
L29.6334 11.4013
L29.8069 11.4013
L29.8069 8.83054
L29.9805 8.83054
L29.9805 6.8422
L30.1541 6.8422
L30.1541 6.07899
L30.3276 6.07899
L30.3276 6.32001
L30.5012 6.32001
L30.5012 6.82211
L30.6748 6.82211
L30.6748 7.20371
L30.8483 7.20371
L30.8483 10.4975
L31.0219 10.4975
L31.0219 13.1888
L31.1955 13.1888
L31.1955 16.4224
L31.3691 16.4224
L31.3691 19.1739
L31.5426 19.1739
L31.5426 21.5037
L31.7162 21.5037
L31.7162 23.0502
L31.8898 23.0502
L31.8898 24.7975
L32.0633 24.7975
L32.0633 26.9466
L32.2369 26.9466
L32.2369 27.8102
L32.4105 27.8102
L32.4105 27.6294
L32.584 27.6294
L32.584 28.9148
L32.7576 28.9148
L32.7576 29.4169
L32.9312 29.4169
L32.9312 29.6981
L33.1047 29.6981
L33.1047 30.0596
L33.2783 30.0596
L33.2783 30.1801
L33.4519 30.1801
L33.4519 30.4613
L33.799 30.5416
L33.799 30.7425
L34.4933 30.7023
L34.4933 30.863
L34.8404 30.7827
L34.8404 30.9835
L37.4439 31.0638
L37.4439 31.104
L48.2051 31.0839
L48.2051 31.104" style="fill:none;stroke:#ff0000;stroke-width:0.5;"/>
   </g>
   <g id="patch_6">
    <path clip-path="url(#p3428e6db54)" d="
M10.0867 31.104
L10.0867 31.0864
L22.1586 30.9983
L22.1586 30.9631
L23.346 30.9807
L23.346 30.7518
L24.5334 30.7166
L24.5334 30.5404
L24.9292 30.5052
L24.9292 30.3291
L25.1271 30.3291
L25.1271 30.2058
L25.7208 30.241
L25.7208 30.0649
L25.9187 30.0649
L25.9187 29.6775
L26.3145 29.6246
L26.3145 29.3781
L26.5124 29.3781
L26.5124 29.1844
L26.7103 29.1844
L26.7103 28.973
L26.9082 28.973
L26.9082 28.4975
L27.304 28.5856
L27.304 27.9692
L27.5019 27.9692
L27.5019 27.5113
L27.6998 27.5113
L27.6998 27.1767
L28.0956 27.071
L28.0956 26.8244
L28.2935 26.8244
L28.2935 25.486
L28.4914 25.486
L28.4914 24.1299
L28.6893 24.1299
L28.6893 23.2493
L28.8872 23.2493
L28.8872 21.0127
L29.0851 21.0127
L29.0851 19.8151
L29.283 19.8151
L29.283 17.4728
L29.4809 17.4728
L29.4809 14.4965
L29.6788 14.4965
L29.6788 11.0447
L29.8767 11.0447
L29.8767 8.68474
L30.0746 8.68474
L30.0746 5.84932
L30.2725 5.84932
L30.2725 5.32097
L30.4704 5.32097
L30.4704 6.67705
L30.6683 6.67705
L30.6683 8.86086
L30.8662 8.86086
L30.8662 10.9566
L31.0641 10.9566
L31.0641 14.7254
L31.262 14.7254
L31.262 17.42
L31.4599 17.42
L31.4599 20.3963
L31.6578 20.3963
L31.6578 23.0732
L31.8557 23.0732
L31.8557 25.169
L32.0536 25.169
L32.0536 25.9439
L32.2515 25.9439
L32.2515 28.022
L32.4494 28.022
L32.4494 28.4623
L32.6473 28.4623
L32.6473 29.5014
L33.0431 29.5014
L33.0431 29.836
L33.241 29.836
L33.241 30.1178
L33.4389 30.1178
L33.4389 30.3467
L33.8347 30.4172
L33.8347 30.6813
L34.6263 30.7694
L34.6263 30.8046
L35.6158 30.8398
L35.6158 30.9983
L49.6667 31.0864
L49.6667 31.104" style="fill:none;stroke:#00bfbf;stroke-width:0.5;"/>
   </g>
   <g id="matplotlib.axis_1">
    <g id="xtick_1">
     <g id="line2d_1">
      <defs>
       <path d="
M0 0
L0 -4" id="m0012dd4eef" style="stroke:#000000;stroke-linecap:butt;stroke-width:0.5;"/>
      </defs>
      <g>
       <use style="stroke:#000000;stroke-linecap:butt;stroke-width:0.5;" x="8.64" xlink:href="#m0012dd4eef" y="31.104"/>
      </g>
     </g>
     <g id="text_1">
      <!-- 0 -->
      <defs>
       <path d="
M31.7812 66.4062
Q24.1719 66.4062 20.3281 58.9062
Q16.5 51.4219 16.5 36.375
Q16.5 21.3906 20.3281 13.8906
Q24.1719 6.39062 31.7812 6.39062
Q39.4531 6.39062 43.2812 13.8906
Q47.125 21.3906 47.125 36.375
Q47.125 51.4219 43.2812 58.9062
Q39.4531 66.4062 31.7812 66.4062
M31.7812 74.2188
Q44.0469 74.2188 50.5156 64.5156
Q56.9844 54.8281 56.9844 36.375
Q56.9844 17.9688 50.5156 8.26562
Q44.0469 -1.42188 31.7812 -1.42188
Q19.5312 -1.42188 13.0625 8.26562
Q6.59375 17.9688 6.59375 36.375
Q6.59375 54.8281 13.0625 64.5156
Q19.5312 74.2188 31.7812 74.2188" id="DejaVuSans-30"/>
      </defs>
      <g transform="translate(6.12046875 42.525875)scale(0.1 -0.1)">
       <use xlink:href="#DejaVuSans-30"/>
      </g>
     </g>
    </g>
    <g id="xtick_2">
     <g id="line2d_2">
      <g>
       <use style="stroke:#000000;stroke-linecap:butt;stroke-width:0.5;" x="30.096" xlink:href="#m0012dd4eef" y="31.104"/>
      </g>
     </g>
     <g id="text_2">
      <!-- 1 -->
      <defs>
       <path d="
M12.4062 8.29688
L28.5156 8.29688
L28.5156 63.9219
L10.9844 60.4062
L10.9844 69.3906
L28.4219 72.9062
L38.2812 72.9062
L38.2812 8.29688
L54.3906 8.29688
L54.3906 0
L12.4062 0
z
" id="DejaVuSans-31"/>
      </defs>
      <g transform="translate(27.9256875 42.394625)scale(0.1 -0.1)">
       <use xlink:href="#DejaVuSans-31"/>
      </g>
     </g>
    </g>
    <g id="xtick_3">
     <g id="line2d_3">
      <g>
       <use style="stroke:#000000;stroke-linecap:butt;stroke-width:0.5;" x="51.552" xlink:href="#m0012dd4eef" y="31.104"/>
      </g>
     </g>
     <g id="text_3">
      <!-- 2 -->
      <defs>
       <path d="
M19.1875 8.29688
L53.6094 8.29688
L53.6094 0
L7.32812 0
L7.32812 8.29688
Q12.9375 14.1094 22.625 23.8906
Q32.3281 33.6875 34.8125 36.5312
Q39.5469 41.8438 41.4219 45.5312
Q43.3125 49.2188 43.3125 52.7812
Q43.3125 58.5938 39.2344 62.25
Q35.1562 65.9219 28.6094 65.9219
Q23.9688 65.9219 18.8125 64.3125
Q13.6719 62.7031 7.8125 59.4219
L7.8125 69.3906
Q13.7656 71.7812 18.9375 73
Q24.125 74.2188 28.4219 74.2188
Q39.75 74.2188 46.4844 68.5469
Q53.2188 62.8906 53.2188 53.4219
Q53.2188 48.9219 51.5312 44.8906
Q49.8594 40.875 45.4062 35.4062
Q44.1875 33.9844 37.6406 27.2188
Q31.1094 20.4531 19.1875 8.29688" id="DejaVuSans-32"/>
      </defs>
      <g transform="translate(49.2379375 42.525875)scale(0.1 -0.1)">
       <use xlink:href="#DejaVuSans-32"/>
      </g>
     </g>
    </g>
   </g>
   <g id="matplotlib.axis_2">
    <g id="ytick_1">
     <g id="line2d_4">
      <defs>
       <path d="
M0 0
L4 0" id="me8a85f7bf6" style="stroke:#000000;stroke-linecap:butt;stroke-width:0.5;"/>
      </defs>
      <g>
       <use style="stroke:#000000;stroke-linecap:butt;stroke-width:0.5;" x="8.64" xlink:href="#me8a85f7bf6" y="31.104"/>
      </g>
     </g>
     <g id="text_4">
      <!-- 0 -->
      <g transform="translate(-0.3990625 34.74384375)scale(0.1 -0.1)">
       <use xlink:href="#DejaVuSans-30"/>
      </g>
     </g>
    </g>
    <g id="ytick_2">
     <g id="line2d_5">
      <g>
       <use style="stroke:#000000;stroke-linecap:butt;stroke-width:0.5;" x="8.64" xlink:href="#me8a85f7bf6" y="18.144"/>
      </g>
     </g>
     <g id="text_5">
      <!-- 4 -->
      <defs>
       <path d="
M37.7969 64.3125
L12.8906 25.3906
L37.7969 25.3906
z

M35.2031 72.9062
L47.6094 72.9062
L47.6094 25.3906
L58.0156 25.3906
L58.0156 17.1875
L47.6094 17.1875
L47.6094 0
L37.7969 0
L37.7969 17.1875
L4.89062 17.1875
L4.89062 26.7031
z
" id="DejaVuSans-34"/>
      </defs>
      <g transform="translate(-0.6725 21.7893125)scale(0.1 -0.1)">
       <use xlink:href="#DejaVuSans-34"/>
      </g>
     </g>
    </g>
   </g>
   <g id="patch_7">
    <path d="
M8.64 31.104
L51.552 31.104" style="fill:none;stroke:#000000;stroke-width:0.5;"/>
   </g>
   <g id="patch_8">
    <path d="
M8.64 31.104
L8.64 5.184" style="fill:none;stroke:#000000;stroke-width:0.5;"/>
   </g>
  </g>
 </g>
 <defs>
  <clipPath id="p3428e6db54">
   <rect height="25.92" width="42.912" x="8.64" y="5.184"/>
  </clipPath>
 </defs>
</svg>
