<?xml version="1.0" encoding="utf-8" standalone="no"?>
<!DOCTYPE svg PUBLIC "-//W3C//DTD SVG 1.1//EN"
  "http://www.w3.org/Graphics/SVG/1.1/DTD/svg11.dtd">
<!-- Created with matplotlib (http://matplotlib.sourceforge.net/) -->
<svg height="43pt" version="1.1" viewBox="0 0 57 43" width="57pt" xmlns="http://www.w3.org/2000/svg" xmlns:xlink="http://www.w3.org/1999/xlink">
 <defs>
  <style type="text/css">
*{stroke-linecap:square;stroke-linejoin:round;}
  </style>
 </defs>
 <g id="figure_1">
  <g id="patch_1">
   <path d="
M0 43.2
L57.6 43.2
L57.6 0
L0 0
z
" style="fill:#ffffff;"/>
  </g>
  <g id="axes_1">
   <g id="patch_2">
    <path d="
M8.64 31.104
L51.552 31.104
L51.552 5.184
L8.64 5.184
z
" style="fill:#ffffff;"/>
   </g>
   <g id="patch_3">
    <path clip-path="url(#p3428e6db54)" d="
M12.1969 31.104
L12.1969 31.0857
L20.2146 31.0307
L20.2146 30.9391
L22.3657 30.9391
L22.3657 30.7743
L22.5613 30.7743
L22.5613 30.9208
L22.9524 30.8476
L22.9524 30.7743
L23.9301 30.6644
L23.9301 30.4262
L24.3212 30.4079
L24.3212 30.2064
L25.1035 30.1698
L25.1035 29.6935
L25.6901 29.6569
L25.6901 29.4005
L25.8857 29.4005
L25.8857 28.8509
L26.0812 28.8509
L26.0812 28.5212
L26.2768 28.5212
L26.2768 28.1915
L26.4723 28.1915
L26.4723 27.642
L26.6679 27.642
L26.6679 27.4222
L26.8634 27.4222
L26.8634 26.5612
L27.059 26.5612
L27.059 25.7919
L27.2545 25.7919
L27.2545 25.4805
L27.4501 25.4805
L27.4501 23.9601
L27.6456 23.9601
L27.6456 23.5754
L27.8412 23.5754
L27.8412 22.1833
L28.0368 22.1833
L28.0368 19.0876
L28.2323 19.0876
L28.2323 16.5231
L28.4279 16.5231
L28.4279 13.9587
L28.6234 13.9587
L28.6234 13.0245
L28.819 13.0245
L28.819 10.3501
L29.0145 10.3501
L29.0145 9.87384
L29.2101 9.87384
L29.2101 10.9729
L29.4056 10.9729
L29.4056 10.0387
L29.6012 10.0387
L29.6012 11.8521
L29.7967 11.8521
L29.7967 13.7938
L29.9923 13.7938
L29.9923 16.7063
L30.1878 16.7063
L30.1878 17.5856
L30.3834 17.5856
L30.3834 21.1392
L30.5789 21.1392
L30.5789 21.2857
L30.7745 21.2857
L30.7745 23.1725
L30.9701 23.1725
L30.9701 24.3265
L31.1656 24.3265
L31.1656 25.2424
L31.3612 25.2424
L31.3612 26.433
L31.5567 26.433
L31.5567 27.4222
L31.7523 27.4222
L31.7523 27.5687
L31.9478 27.5687
L31.9478 28.5762
L32.1434 28.5762
L32.1434 29.1257
L32.5345 29.1806
L32.5345 29.3272
L32.73 29.3272
L32.73 29.144
L32.9256 29.144
L32.9256 29.895
L33.1211 29.895
L33.1211 30.0965
L33.5123 30.1515
L33.5123 30.2248
L33.7078 30.2248
L33.7078 30.0599
L33.9034 30.0599
L33.9034 30.4812
L34.0989 30.4812
L34.0989 30.6277
L34.2945 30.6277
L34.2945 30.4629
L34.49 30.4629
L34.49 30.6827
L34.6856 30.6827
L34.6856 30.5178
L34.8811 30.5178
L34.8811 30.7743
L36.4456 30.7376
L36.4456 30.9208
L38.01 31.0307
L38.01 31.049
L51.3076 31.0857
L51.3076 31.104" style="fill:none;stroke:#0000ff;stroke-width:0.5;"/>
   </g>
   <g id="patch_4">
    <path clip-path="url(#p3428e6db54)" d="
M10.4872 31.104
L10.4872 31.0861
L21.3187 30.9968
L21.3187 30.8896
L22.9234 30.7824
L22.9234 30.7467
L23.9263 30.6395
L23.9263 30.4787
L24.528 30.4251
L24.528 30.2464
L24.7286 30.2464
L24.7286 29.9249
L25.1298 29.9249
L25.1298 30.0499
L25.3304 30.0499
L25.3304 29.4246
L25.531 29.4246
L25.531 29.6211
L25.7315 29.6211
L25.7315 29.103
L26.1327 29.1209
L26.1327 28.6207
L26.3333 28.6207
L26.3333 28.442
L26.5339 28.442
L26.5339 27.5845
L26.7345 27.5845
L26.7345 26.9949
L26.935 26.9949
L26.935 26.3696
L27.1356 26.3696
L27.1356 26.2445
L27.3362 26.2445
L27.3362 25.3334
L27.5368 25.3334
L27.5368 23.3146
L27.7374 23.3146
L27.7374 22.5463
L27.938 22.5463
L27.938 21.3136
L28.1385 21.3136
L28.1385 17.8298
L28.3391 17.8298
L28.3391 16.472
L28.5397 16.472
L28.5397 12.7381
L28.7403 12.7381
L28.7403 11.4875
L28.9409 11.4875
L28.9409 10.5227
L29.1415 10.5227
L29.1415 10.3262
L29.5426 10.2905
L29.5426 11.4518
L29.7432 11.4518
L29.7432 12.5416
L29.9438 12.5416
L29.9438 15.5251
L30.1444 15.5251
L30.1444 17.3296
L30.345 17.3296
L30.345 19.67
L30.5455 19.67
L30.5455 20.7598
L30.7461 20.7598
L30.7461 22.4034
L30.9467 22.4034
L30.9467 24.0649
L31.1473 24.0649
L31.1473 25.2441
L31.3479 25.2441
L31.3479 26.8162
L31.5485 26.8162
L31.5485 27.3343
L31.749 27.3343
L31.749 27.7989
L31.9496 27.7989
L31.9496 28.3348
L32.1502 28.3348
L32.1502 28.7636
L32.3508 28.7636
L32.3508 29.1924
L32.5514 29.1924
L32.5514 29.4604
L32.752 29.4604
L32.752 29.7998
L32.9525 29.7998
L32.9525 29.9963
L33.1531 29.9963
L33.1531 30.2107
L33.3537 30.2107
L33.3537 30.0857
L33.5543 30.0857
L33.5543 30.2643
L33.7549 30.2643
L33.7549 30.5323
L33.9555 30.5323
L33.9555 30.3715
L34.3566 30.3536
L34.3566 30.4966
L34.7578 30.5323
L34.7578 30.711
L35.3595 30.711
L35.3595 30.8896
L36.1619 30.8717
L36.1619 30.7646
L36.3625 30.7646
L36.3625 30.9611
L36.563 30.9611
L36.563 30.7646
L36.7636 30.7646
L36.7636 31.0147
L50.6039 31.0861
L50.6039 31.104" style="fill:none;stroke:#008000;stroke-width:0.5;"/>
   </g>
   <g id="patch_5">
    <path clip-path="url(#p3428e6db54)" d="
M10.6386 31.104
L10.6386 31.0859
L20.7178 30.9771
L20.7178 30.959
L22.8917 30.8683
L22.8917 30.8139
L23.4846 30.7777
L23.4846 30.5964
L24.4728 30.5057
L24.4728 30.27
L24.8681 30.1613
L24.8681 30.125
L25.2633 30.0525
L25.2633 29.7261
L25.4609 29.7261
L25.4609 29.5086
L25.6586 29.5086
L25.6586 29.3092
L25.8562 29.3092
L25.8562 28.9647
L26.2515 28.9466
L26.2515 28.4208
L26.4491 28.4208
L26.4491 27.895
L26.8444 27.8588
L26.8444 27.0248
L27.042 27.0248
L27.042 26.2815
L27.2396 26.2815
L27.2396 25.9733
L27.4373 25.9733
L27.4373 24.6498
L27.6349 24.6498
L27.6349 22.7281
L27.8325 22.7281
L27.8325 21.6766
L28.0302 21.6766
L28.0302 19.7004
L28.2278 19.7004
L28.2278 18.1413
L28.4254 18.1413
L28.4254 13.8083
L28.6231 13.8083
L28.6231 12.086
L28.8207 12.086
L28.8207 10.7987
L29.0183 10.7987
L29.0183 9.51153
L29.216 9.51153
L29.216 10.5812
L29.4136 10.5812
L29.4136 10.0192
L29.6112 10.0192
L29.6112 12.1766
L29.8088 12.1766
L29.8088 13.8264
L30.0065 13.8264
L30.0065 15.8388
L30.2041 15.8388
L30.2041 17.6518
L30.4017 17.6518
L30.4017 19.8998
L30.5994 19.8998
L30.5994 21.2777
L30.797 21.2777
L30.797 23.2901
L30.9946 23.2901
L30.9946 24.1603
L31.1923 24.1603
L31.1923 25.7557
L31.3899 25.7557
L31.3899 26.771
L31.5875 26.771
L31.5875 27.2605
L31.7852 27.2605
L31.7852 28.0763
L31.9828 28.0763
L31.9828 28.2576
L32.1804 28.2576
L32.1804 28.8378
L32.3781 28.8378
L32.3781 29.3635
L32.5757 29.3635
L32.5757 29.5448
L32.971 29.6355
L32.971 29.7987
L33.3662 29.8893
L33.3662 30.125
L33.5639 30.125
L33.5639 30.3607
L33.7615 30.3607
L33.7615 30.2156
L33.9591 30.2156
L33.9591 30.4332
L34.1567 30.4332
L34.1567 30.6326
L34.3544 30.6326
L34.3544 30.5057
L34.9473 30.4695
L34.9473 30.6689
L35.9354 30.7414
L35.9354 30.8502
L36.5283 30.959
L36.5283 30.9952
L36.726 30.9952
L36.726 30.8683
L36.9236 30.8683
L36.9236 30.9952
L37.7141 30.9771
L37.7141 30.8683
L37.9118 30.8683
L37.9118 31.0134
L38.1094 31.0134
L38.1094 30.8864
L38.7023 30.9952
L38.7023 31.0315
L50.1649 31.0677
L50.1649 31.104" style="fill:none;stroke:#ff0000;stroke-width:0.5;"/>
   </g>
   <g id="patch_6">
    <path clip-path="url(#p3428e6db54)" d="
M11.1247 31.104
L11.1247 31.0681
L20.9382 31.0143
L20.9382 30.9426
L22.941 30.9426
L22.941 30.7992
L23.3415 30.835
L23.3415 30.6199
L24.1426 30.6199
L24.1426 30.4227
L24.5432 30.3689
L24.5432 30.1358
L25.144 30.0282
L25.144 29.5261
L25.9451 29.4724
L25.9451 29.0241
L26.3456 28.9345
L26.3456 28.6117
L26.5459 28.6117
L26.5459 27.8049
L26.9465 27.7511
L26.9465 27.2669
L27.1467 27.2669
L27.1467 26.5318
L27.347 26.5318
L27.347 25.5636
L27.5473 25.5636
L27.5473 24.2188
L27.7476 24.2188
L27.7476 22.6051
L27.9478 22.6051
L27.9478 21.6369
L28.1481 21.6369
L28.1481 18.4094
L28.3484 18.4094
L28.3484 17.7281
L28.5487 17.7281
L28.5487 14.9669
L28.7489 14.9669
L28.7489 12.4925
L28.9492 12.4925
L28.9492 9.10369
L29.1495 9.10369
L29.1495 8.38649
L29.3498 8.38649
L29.3498 9.08576
L29.55 9.08576
L29.55 11.6498
L29.7503 11.6498
L29.7503 12.7794
L29.9506 12.7794
L29.9506 15.1641
L30.1509 15.1641
L30.1509 15.953
L30.3511 15.953
L30.3511 18.6784
L30.5514 18.6784
L30.5514 21.099
L30.7517 21.099
L30.7517 22.9458
L30.952 22.9458
L30.952 23.4478
L31.1522 23.4478
L31.1522 25.187
L31.3525 25.187
L31.3525 26.1911
L31.5528 26.1911
L31.5528 27.0518
L31.7531 27.0518
L31.7531 27.7331
L31.9533 27.7331
L31.9533 28.3069
L32.1536 28.3069
L32.1536 29.042
L32.3539 29.042
L32.3539 29.1855
L32.7544 29.2393
L32.7544 29.3648
L33.155 29.4186
L33.155 29.7951
L33.5555 29.831
L33.5555 30.2075
L33.9561 30.2971
L33.9561 30.4944
L34.1564 30.4944
L34.1564 30.3689
L34.3566 30.3689
L34.3566 30.5661
L35.1577 30.5661
L35.1577 30.7095
L35.7586 30.7813
L35.7586 30.835
L36.5597 30.7813
L36.5597 30.9785
L43.9698 31.0861
L43.9698 31.104
L51.1797 31.0861
L51.1797 31.104" style="fill:none;stroke:#00bfbf;stroke-width:0.5;"/>
   </g>
   <g id="matplotlib.axis_1">
    <g id="xtick_1">
     <g id="line2d_1">
      <defs>
       <path d="
M0 0
L0 -4" id="m0012dd4eef" style="stroke:#000000;stroke-linecap:butt;stroke-width:0.5;"/>
      </defs>
      <g>
       <use style="stroke:#000000;stroke-linecap:butt;stroke-width:0.5;" x="8.64" xlink:href="#m0012dd4eef" y="31.104"/>
      </g>
     </g>
     <g id="text_1">
      <!-- 0 -->
      <defs>
       <path d="
M31.7812 66.4062
Q24.1719 66.4062 20.3281 58.9062
Q16.5 51.4219 16.5 36.375
Q16.5 21.3906 20.3281 13.8906
Q24.1719 6.39062 31.7812 6.39062
Q39.4531 6.39062 43.2812 13.8906
Q47.125 21.3906 47.125 36.375
Q47.125 51.4219 43.2812 58.9062
Q39.4531 66.4062 31.7812 66.4062
M31.7812 74.2188
Q44.0469 74.2188 50.5156 64.5156
Q56.9844 54.8281 56.9844 36.375
Q56.9844 17.9688 50.5156 8.26562
Q44.0469 -1.42188 31.7812 -1.42188
Q19.5312 -1.42188 13.0625 8.26562
Q6.59375 17.9688 6.59375 36.375
Q6.59375 54.8281 13.0625 64.5156
Q19.5312 74.2188 31.7812 74.2188" id="DejaVuSans-30"/>
      </defs>
      <g transform="translate(6.12046875 42.525875)scale(0.1 -0.1)">
       <use xlink:href="#DejaVuSans-30"/>
      </g>
     </g>
    </g>
    <g id="xtick_2">
     <g id="line2d_2">
      <g>
       <use style="stroke:#000000;stroke-linecap:butt;stroke-width:0.5;" x="30.096" xlink:href="#m0012dd4eef" y="31.104"/>
      </g>
     </g>
     <g id="text_2">
      <!-- 1 -->
      <defs>
       <path d="
M12.4062 8.29688
L28.5156 8.29688
L28.5156 63.9219
L10.9844 60.4062
L10.9844 69.3906
L28.4219 72.9062
L38.2812 72.9062
L38.2812 8.29688
L54.3906 8.29688
L54.3906 0
L12.4062 0
z
" id="DejaVuSans-31"/>
      </defs>
      <g transform="translate(27.9256875 42.394625)scale(0.1 -0.1)">
       <use xlink:href="#DejaVuSans-31"/>
      </g>
     </g>
    </g>
    <g id="xtick_3">
     <g id="line2d_3">
      <g>
       <use style="stroke:#000000;stroke-linecap:butt;stroke-width:0.5;" x="51.552" xlink:href="#m0012dd4eef" y="31.104"/>
      </g>
     </g>
     <g id="text_3">
      <!-- 2 -->
      <defs>
       <path d="
M19.1875 8.29688
L53.6094 8.29688
L53.6094 0
L7.32812 0
L7.32812 8.29688
Q12.9375 14.1094 22.625 23.8906
Q32.3281 33.6875 34.8125 36.5312
Q39.5469 41.8438 41.4219 45.5312
Q43.3125 49.2188 43.3125 52.7812
Q43.3125 58.5938 39.2344 62.25
Q35.1562 65.9219 28.6094 65.9219
Q23.9688 65.9219 18.8125 64.3125
Q13.6719 62.7031 7.8125 59.4219
L7.8125 69.3906
Q13.7656 71.7812 18.9375 73
Q24.125 74.2188 28.4219 74.2188
Q39.75 74.2188 46.4844 68.5469
Q53.2188 62.8906 53.2188 53.4219
Q53.2188 48.9219 51.5312 44.8906
Q49.8594 40.875 45.4062 35.4062
Q44.1875 33.9844 37.6406 27.2188
Q31.1094 20.4531 19.1875 8.29688" id="DejaVuSans-32"/>
      </defs>
      <g transform="translate(49.2379375 42.525875)scale(0.1 -0.1)">
       <use xlink:href="#DejaVuSans-32"/>
      </g>
     </g>
    </g>
   </g>
   <g id="matplotlib.axis_2">
    <g id="ytick_1">
     <g id="line2d_4">
      <defs>
       <path d="
M0 0
L4 0" id="me8a85f7bf6" style="stroke:#000000;stroke-linecap:butt;stroke-width:0.5;"/>
      </defs>
      <g>
       <use style="stroke:#000000;stroke-linecap:butt;stroke-width:0.5;" x="8.64" xlink:href="#me8a85f7bf6" y="31.104"/>
      </g>
     </g>
     <g id="text_4">
      <!-- 0 -->
      <g transform="translate(-0.3990625 34.74384375)scale(0.1 -0.1)">
       <use xlink:href="#DejaVuSans-30"/>
      </g>
     </g>
    </g>
    <g id="ytick_2">
     <g id="line2d_5">
      <g>
       <use style="stroke:#000000;stroke-linecap:butt;stroke-width:0.5;" x="8.64" xlink:href="#me8a85f7bf6" y="18.144"/>
      </g>
     </g>
     <g id="text_5">
      <!-- 4 -->
      <defs>
       <path d="
M37.7969 64.3125
L12.8906 25.3906
L37.7969 25.3906
z

M35.2031 72.9062
L47.6094 72.9062
L47.6094 25.3906
L58.0156 25.3906
L58.0156 17.1875
L47.6094 17.1875
L47.6094 0
L37.7969 0
L37.7969 17.1875
L4.89062 17.1875
L4.89062 26.7031
z
" id="DejaVuSans-34"/>
      </defs>
      <g transform="translate(-0.6725 21.7893125)scale(0.1 -0.1)">
       <use xlink:href="#DejaVuSans-34"/>
      </g>
     </g>
    </g>
   </g>
   <g id="patch_7">
    <path d="
M8.64 31.104
L51.552 31.104" style="fill:none;stroke:#000000;stroke-width:0.5;"/>
   </g>
   <g id="patch_8">
    <path d="
M8.64 31.104
L8.64 5.184" style="fill:none;stroke:#000000;stroke-width:0.5;"/>
   </g>
  </g>
 </g>
 <defs>
  <clipPath id="p3428e6db54">
   <rect height="25.92" width="42.912" x="8.64" y="5.184"/>
  </clipPath>
 </defs>
</svg>
