<?xml version="1.0" encoding="utf-8" standalone="no"?>
<!DOCTYPE svg PUBLIC "-//W3C//DTD SVG 1.1//EN"
  "http://www.w3.org/Graphics/SVG/1.1/DTD/svg11.dtd">
<!-- Created with matplotlib (http://matplotlib.sourceforge.net/) -->
<svg height="43pt" version="1.1" viewBox="0 0 57 43" width="57pt" xmlns="http://www.w3.org/2000/svg" xmlns:xlink="http://www.w3.org/1999/xlink">
 <defs>
  <style type="text/css">
*{stroke-linecap:square;stroke-linejoin:round;}
  </style>
 </defs>
 <g id="figure_1">
  <g id="patch_1">
   <path d="
M0 43.2
L57.6 43.2
L57.6 0
L0 0
z
" style="fill:#ffffff;"/>
  </g>
  <g id="axes_1">
   <g id="patch_2">
    <path d="
M8.64 31.104
L51.552 31.104
L51.552 5.184
L8.64 5.184
z
" style="fill:#ffffff;"/>
   </g>
   <g id="patch_3">
    <path clip-path="url(#p3428e6db54)" d="
M10.8737 31.104
L10.8737 31.0834
L17.2333 31.0628
L17.2333 30.9598
L20.4131 30.9804
L20.4131 30.8362
L21.0093 30.8362
L21.0093 30.9598
L21.4068 30.9392
L21.4068 30.8156
L21.8043 30.8156
L21.8043 30.4448
L22.003 30.4448
L22.003 30.7744
L22.798 30.795
L22.798 30.5684
L23.1954 30.6714
L23.1954 30.3212
L23.3942 30.3212
L23.3942 30.4654
L23.9904 30.4448
L23.9904 30.2594
L24.1891 30.2594
L24.1891 30.486
L24.3879 30.486
L24.3879 30.1976
L24.9841 30.1358
L24.9841 29.7857
L25.1828 29.7857
L25.1828 29.4973
L25.3815 29.4973
L25.3815 29.7239
L25.5803 29.7239
L25.5803 29.4149
L25.779 29.4149
L25.779 29.2089
L25.9777 29.2089
L25.9777 28.6115
L26.1765 28.6115
L26.1765 28.4879
L26.3752 28.4879
L26.3752 28.2201
L26.574 28.2201
L26.574 27.561
L26.7727 27.561
L26.7727 26.5928
L26.9714 26.5928
L26.9714 25.913
L27.1702 25.913
L27.1702 23.7089
L27.3689 23.7089
L27.3689 22.4936
L27.5676 22.4936
L27.5676 21.2988
L27.7664 21.2988
L27.7664 17.8382
L27.9651 17.8382
L27.9651 15.9637
L28.1639 15.9637
L28.1639 12.6266
L28.3626 12.6266
L28.3626 8.89817
L28.7601 8.93937
L28.7601 7.00305
L28.9588 7.00305
L28.9588 6.07609
L29.1575 6.07609
L29.1575 8.67158
L29.3563 8.67158
L29.3563 9.22775
L29.555 9.22775
L29.555 12.0704
L29.7538 12.0704
L29.7538 13.5742
L29.9525 13.5742
L29.9525 16.1079
L30.1512 16.1079
L30.1512 17.9412
L30.35 17.9412
L30.35 19.9393
L30.5487 19.9393
L30.5487 22.1434
L30.7474 22.1434
L30.7474 21.9786
L30.9462 21.9786
L30.9462 23.7501
L31.1449 23.7501
L31.1449 24.9449
L31.3437 24.9449
L31.3437 26.2014
L31.5424 26.2014
L31.5424 26.8194
L31.7411 26.8194
L31.7411 27.149
L31.9399 27.149
L31.9399 28.4467
L32.1386 28.4467
L32.1386 28.5703
L32.5361 28.5909
L32.5361 29.2913
L32.9335 29.3119
L32.9335 29.6415
L33.1323 29.6415
L33.1323 29.7651
L33.5298 29.7445
L33.5298 30.177
L33.9272 30.074
L33.9272 30.3624
L34.126 30.3624
L34.126 30.486
L34.7222 30.589
L34.7222 30.7126
L34.9209 30.7126
L34.9209 30.589
L35.1197 30.589
L35.1197 30.7744
L35.9146 30.795
L35.9146 30.898
L36.9083 30.9186
L36.9083 31.0216
L37.3058 30.9804
L37.3058 30.8568
L37.7032 30.9392
L37.7032 31.0216
L50.6212 31.0628
L50.6212 31.104" style="fill:none;stroke:#0000ff;stroke-width:0.5;"/>
   </g>
   <g id="patch_4">
    <path clip-path="url(#p3428e6db54)" d="
M9.52416 31.104
L9.52416 31.0839
L18.7011 31.0237
L18.7011 30.9634
L20.3325 30.863
L20.3325 30.8429
L21.964 30.8028
L21.964 30.6421
L22.5758 30.6823
L22.5758 30.5015
L22.7797 30.5015
L22.7797 30.7626
L23.1876 30.7425
L23.1876 30.622
L23.3915 30.622
L23.3915 30.3208
L23.5954 30.3208
L23.5954 30.4814
L23.7993 30.4814
L23.7993 30.3208
L24.0033 30.3208
L24.0033 30.0396
L24.2072 30.0396
L24.2072 30.3409
L24.4111 30.3409
L24.4111 30.14
L24.6151 30.14
L24.6151 29.9191
L24.819 29.9191
L24.819 30.2404
L25.0229 30.2404
L25.0229 29.4572
L25.4308 29.4171
L25.4308 29.9794
L25.6347 29.9794
L25.6347 29.4773
L25.8387 29.4773
L25.8387 28.5736
L26.0426 28.5736
L26.0426 28.7543
L26.2465 28.7543
L26.2465 28.3125
L26.4505 28.3125
L26.4505 27.3284
L26.6544 27.3284
L26.6544 27.1276
L26.8583 27.1276
L26.8583 26.1235
L27.0622 26.1235
L27.0622 25.2198
L27.2662 25.2198
L27.2662 24.6173
L27.4701 24.6173
L27.4701 22.127
L27.674 22.127
L27.674 19.8978
L27.878 19.8978
L27.878 16.9457
L28.0819 16.9457
L28.0819 14.8972
L28.2858 14.8972
L28.2858 10.8405
L28.4898 10.8405
L28.4898 8.5511
L28.6937 8.5511
L28.6937 8.04903
L28.8976 8.04903
L28.8976 7.02481
L29.3055 7.12523
L29.3055 8.89251
L29.5094 8.89251
L29.5094 11.202
L29.7134 11.202
L29.7134 12.5877
L29.9173 12.5877
L29.9173 14.9776
L30.1212 14.9776
L30.1212 17.0863
L30.3251 17.0863
L30.3251 19.5364
L30.5291 19.5364
L30.5291 20.6811
L30.733 20.6811
L30.733 23.4123
L30.9369 23.4123
L30.9369 24.2759
L31.1409 24.2759
L31.1409 24.8984
L31.3448 24.8984
L31.3448 26.0632
L31.5487 26.0632
L31.5487 26.5854
L31.7527 26.5854
L31.7527 27.6899
L32.1605 27.71
L32.1605 28.9551
L32.5684 28.8547
L32.5684 29.1158
L32.7723 29.1158
L32.7723 29.5175
L32.9763 29.5175
L32.9763 29.7785
L33.3841 29.7585
L33.3841 29.9794
L33.792 29.9794
L33.792 30.3409
L34.4038 30.2806
L34.4038 30.7224
L36.0352 30.6823
L36.0352 30.9634
L38.6863 31.0438
L38.6863 31.0839
L50.3104 31.0839
L50.3104 31.104" style="fill:none;stroke:#008000;stroke-width:0.5;"/>
   </g>
   <g id="patch_5">
    <path clip-path="url(#p3428e6db54)" d="
M10.282 31.104
L10.282 31.0831
L17.1257 31.104
L17.1257 30.9574
L18.299 30.9783
L18.299 31.104
L18.69 31.0412
L18.69 30.9783
L20.6454 30.8736
L20.6454 30.8318
L22.0141 30.9365
L22.0141 30.4967
L22.2097 30.4967
L22.2097 30.8527
L22.4052 30.8527
L22.4052 30.5805
L22.6007 30.5805
L22.6007 30.7689
L22.7963 30.7689
L22.7963 30.5595
L23.3829 30.6223
L23.3829 30.3501
L23.5784 30.3501
L23.5784 30.5386
L23.774 30.5386
L23.774 30.3501
L24.3606 30.392
L24.3606 30.5805
L24.5561 30.5805
L24.5561 30.1197
L24.9472 30.036
L24.9472 29.8684
L25.1427 29.8684
L25.1427 29.7428
L25.3383 29.7428
L25.3383 29.5543
L25.5338 29.5543
L25.5338 29.4287
L25.7293 29.4287
L25.7293 29.1145
L25.9249 29.1145
L25.9249 28.7166
L26.1204 28.7166
L26.1204 28.947
L26.3159 28.947
L26.3159 28.2978
L26.5115 28.2978
L26.5115 27.9837
L26.707 27.9837
L26.707 27.2926
L26.9025 27.2926
L26.9025 26.2246
L27.0981 26.2246
L27.0981 24.9053
L27.2936 24.9053
L27.2936 24.0466
L27.4891 24.0466
L27.4891 22.7692
L27.6847 22.7692
L27.6847 20.319
L27.8802 20.319
L27.8802 17.1987
L28.0758 17.1987
L28.0758 15.0836
L28.2713 15.0836
L28.2713 12.2355
L28.4668 12.2355
L28.4668 9.09426
L28.6624 9.09426
L28.6624 8.08906
L28.8579 8.08906
L28.8579 7.1048
L29.0534 7.1048
L29.0534 5.72264
L29.249 5.72264
L29.249 8.75919
L29.4445 8.75919
L29.4445 9.80628
L29.64 9.80628
L29.64 11.7539
L29.8356 11.7539
L29.8356 13.4501
L30.0311 13.4501
L30.0311 16.6542
L30.2267 16.6542
L30.2267 17.6385
L30.4222 17.6385
L30.4222 19.4604
L30.6177 19.4604
L30.6177 21.8687
L30.8133 21.8687
L30.8133 22.7692
L31.0088 22.7692
L31.0088 24.0466
L31.2043 24.0466
L31.2043 25.7848
L31.3999 25.7848
L31.3999 26.2036
L31.5954 26.2036
L31.5954 27.0413
L31.7909 27.0413
L31.7909 27.6067
L32.182 27.6486
L32.182 28.235
L32.3776 28.235
L32.3776 28.9679
L32.5731 28.9679
L32.5731 29.2821
L32.7686 29.2821
L32.7686 29.6171
L32.9642 29.6171
L32.9642 29.2821
L33.1597 29.2821
L33.1597 29.4077
L33.3552 29.4077
L33.3552 29.9941
L33.7463 29.8894
L33.7463 30.2035
L33.9418 30.2035
L33.9418 30.4967
L34.5285 30.392
L34.5285 30.7061
L35.3106 30.7689
L35.3106 30.5805
L35.5061 30.5805
L35.5061 30.7899
L35.8972 30.6852
L35.8972 30.9365
L39.0258 31.0412
L39.0258 31.0831
L49.3892 31.0831
L49.3892 31.104" style="fill:none;stroke:#ff0000;stroke-width:0.5;"/>
   </g>
   <g id="patch_6">
    <path clip-path="url(#p3428e6db54)" d="
M10.4338 31.104
L10.4338 31.0811
L18.6673 30.9894
L18.6673 30.9664
L20.4572 30.8747
L20.4572 30.8518
L20.8151 30.8518
L20.8151 30.9664
L21.1731 30.8747
L21.1731 30.783
L21.5311 30.8059
L21.5311 30.8976
L21.8891 30.8289
L21.8891 30.7371
L22.605 30.6684
L22.605 30.5766
L22.963 30.5537
L22.963 30.6913
L23.142 30.6913
L23.142 30.5766
L23.5 30.5079
L23.5 30.3932
L23.679 30.3932
L23.679 30.5079
L24.0369 30.4161
L24.0369 30.3703
L24.2159 30.3703
L24.2159 30.2556
L24.3949 30.2556
L24.3949 30.0951
L25.1109 30.141
L25.1109 29.8888
L25.2899 29.8888
L25.2899 29.7054
L25.6478 29.7741
L25.6478 29.4761
L25.8268 29.4761
L25.8268 29.3614
L26.0058 29.3614
L26.0058 28.857
L26.1848 28.857
L26.1848 28.6736
L26.3638 28.6736
L26.3638 28.0086
L26.5428 28.0086
L26.5428 27.7564
L26.7218 27.7564
L26.7218 27.5501
L26.9008 27.5501
L26.9008 26.6329
L27.0797 26.6329
L27.0797 25.7158
L27.2587 25.7158
L27.2587 24.8904
L27.4377 24.8904
L27.4377 24.1796
L27.6167 24.1796
L27.6167 21.7491
L27.7957 21.7491
L27.7957 19.2729
L27.9747 19.2729
L27.9747 17.0946
L28.1537 17.0946
L28.1537 13.2197
L28.3327 13.2197
L28.3327 11.6147
L28.5117 11.6147
L28.5117 8.54229
L28.6906 8.54229
L28.6906 7.69393
L28.8696 7.69393
L28.8696 7.85443
L29.0486 7.85443
L29.0486 5.67622
L29.2276 5.67622
L29.2276 7.44172
L29.4066 7.44172
L29.4066 8.33593
L29.5856 8.33593
L29.5856 9.918
L29.7646 9.918
L29.7646 12.9675
L29.9436 12.9675
L29.9436 15.0999
L30.1226 15.0999
L30.1226 15.9253
L30.3015 15.9253
L30.3015 18.4474
L30.4805 18.4474
L30.4805 20.3734
L30.6595 20.3734
L30.6595 21.0842
L30.8385 21.0842
L30.8385 22.6434
L31.0175 22.6434
L31.0175 24.3401
L31.1965 24.3401
L31.1965 25.326
L31.3755 25.326
L31.3755 26.2202
L31.5545 26.2202
L31.5545 26.7934
L31.7335 26.7934
L31.7335 27.4584
L32.0914 27.4584
L32.0914 28.4214
L32.4494 28.3984
L32.4494 29.0404
L32.6284 29.0404
L32.6284 28.857
L32.8074 28.857
L32.8074 29.4531
L33.1654 29.5449
L33.1654 29.8659
L33.5233 29.8659
L33.5233 30.2556
L33.8813 30.2098
L33.8813 30.462
L34.0603 30.462
L34.0603 30.6225
L34.2393 30.6225
L34.2393 30.4161
L34.5973 30.462
L34.5973 30.2556
L34.7763 30.2556
L34.7763 30.6913
L35.4922 30.7601
L35.4922 30.8747
L35.6712 30.8747
L35.6712 30.7601
L35.8502 30.7601
L35.8502 30.8747
L37.8191 30.9206
L37.8191 31.0352
L38.1771 31.0352
L38.1771 30.9206
L38.714 31.0123
L38.714 31.0352
L46.2315 31.0581
L46.2315 31.104" style="fill:none;stroke:#00bfbf;stroke-width:0.5;"/>
   </g>
   <g id="matplotlib.axis_1">
    <g id="xtick_1">
     <g id="line2d_1">
      <defs>
       <path d="
M0 0
L0 -4" id="m0012dd4eef" style="stroke:#000000;stroke-linecap:butt;stroke-width:0.5;"/>
      </defs>
      <g>
       <use style="stroke:#000000;stroke-linecap:butt;stroke-width:0.5;" x="8.64" xlink:href="#m0012dd4eef" y="31.104"/>
      </g>
     </g>
     <g id="text_1">
      <!-- 0 -->
      <defs>
       <path d="
M31.7812 66.4062
Q24.1719 66.4062 20.3281 58.9062
Q16.5 51.4219 16.5 36.375
Q16.5 21.3906 20.3281 13.8906
Q24.1719 6.39062 31.7812 6.39062
Q39.4531 6.39062 43.2812 13.8906
Q47.125 21.3906 47.125 36.375
Q47.125 51.4219 43.2812 58.9062
Q39.4531 66.4062 31.7812 66.4062
M31.7812 74.2188
Q44.0469 74.2188 50.5156 64.5156
Q56.9844 54.8281 56.9844 36.375
Q56.9844 17.9688 50.5156 8.26562
Q44.0469 -1.42188 31.7812 -1.42188
Q19.5312 -1.42188 13.0625 8.26562
Q6.59375 17.9688 6.59375 36.375
Q6.59375 54.8281 13.0625 64.5156
Q19.5312 74.2188 31.7812 74.2188" id="DejaVuSans-30"/>
      </defs>
      <g transform="translate(6.12046875 42.525875)scale(0.1 -0.1)">
       <use xlink:href="#DejaVuSans-30"/>
      </g>
     </g>
    </g>
    <g id="xtick_2">
     <g id="line2d_2">
      <g>
       <use style="stroke:#000000;stroke-linecap:butt;stroke-width:0.5;" x="30.096" xlink:href="#m0012dd4eef" y="31.104"/>
      </g>
     </g>
     <g id="text_2">
      <!-- 1 -->
      <defs>
       <path d="
M12.4062 8.29688
L28.5156 8.29688
L28.5156 63.9219
L10.9844 60.4062
L10.9844 69.3906
L28.4219 72.9062
L38.2812 72.9062
L38.2812 8.29688
L54.3906 8.29688
L54.3906 0
L12.4062 0
z
" id="DejaVuSans-31"/>
      </defs>
      <g transform="translate(27.9256875 42.394625)scale(0.1 -0.1)">
       <use xlink:href="#DejaVuSans-31"/>
      </g>
     </g>
    </g>
    <g id="xtick_3">
     <g id="line2d_3">
      <g>
       <use style="stroke:#000000;stroke-linecap:butt;stroke-width:0.5;" x="51.552" xlink:href="#m0012dd4eef" y="31.104"/>
      </g>
     </g>
     <g id="text_3">
      <!-- 2 -->
      <defs>
       <path d="
M19.1875 8.29688
L53.6094 8.29688
L53.6094 0
L7.32812 0
L7.32812 8.29688
Q12.9375 14.1094 22.625 23.8906
Q32.3281 33.6875 34.8125 36.5312
Q39.5469 41.8438 41.4219 45.5312
Q43.3125 49.2188 43.3125 52.7812
Q43.3125 58.5938 39.2344 62.25
Q35.1562 65.9219 28.6094 65.9219
Q23.9688 65.9219 18.8125 64.3125
Q13.6719 62.7031 7.8125 59.4219
L7.8125 69.3906
Q13.7656 71.7812 18.9375 73
Q24.125 74.2188 28.4219 74.2188
Q39.75 74.2188 46.4844 68.5469
Q53.2188 62.8906 53.2188 53.4219
Q53.2188 48.9219 51.5312 44.8906
Q49.8594 40.875 45.4062 35.4062
Q44.1875 33.9844 37.6406 27.2188
Q31.1094 20.4531 19.1875 8.29688" id="DejaVuSans-32"/>
      </defs>
      <g transform="translate(49.2379375 42.525875)scale(0.1 -0.1)">
       <use xlink:href="#DejaVuSans-32"/>
      </g>
     </g>
    </g>
   </g>
   <g id="matplotlib.axis_2">
    <g id="ytick_1">
     <g id="line2d_4">
      <defs>
       <path d="
M0 0
L4 0" id="me8a85f7bf6" style="stroke:#000000;stroke-linecap:butt;stroke-width:0.5;"/>
      </defs>
      <g>
       <use style="stroke:#000000;stroke-linecap:butt;stroke-width:0.5;" x="8.64" xlink:href="#me8a85f7bf6" y="31.104"/>
      </g>
     </g>
     <g id="text_4">
      <!-- 0 -->
      <g transform="translate(-0.3990625 34.74384375)scale(0.1 -0.1)">
       <use xlink:href="#DejaVuSans-30"/>
      </g>
     </g>
    </g>
    <g id="ytick_2">
     <g id="line2d_5">
      <g>
       <use style="stroke:#000000;stroke-linecap:butt;stroke-width:0.5;" x="8.64" xlink:href="#me8a85f7bf6" y="16.2925714286"/>
      </g>
     </g>
     <g id="text_5">
      <!-- 4 -->
      <defs>
       <path d="
M37.7969 64.3125
L12.8906 25.3906
L37.7969 25.3906
z

M35.2031 72.9062
L47.6094 72.9062
L47.6094 25.3906
L58.0156 25.3906
L58.0156 17.1875
L47.6094 17.1875
L47.6094 0
L37.7969 0
L37.7969 17.1875
L4.89062 17.1875
L4.89062 26.7031
z
" id="DejaVuSans-34"/>
      </defs>
      <g transform="translate(-0.6725 19.9378839286)scale(0.1 -0.1)">
       <use xlink:href="#DejaVuSans-34"/>
      </g>
     </g>
    </g>
   </g>
   <g id="patch_7">
    <path d="
M8.64 31.104
L51.552 31.104" style="fill:none;stroke:#000000;stroke-width:0.5;"/>
   </g>
   <g id="patch_8">
    <path d="
M8.64 31.104
L8.64 5.184" style="fill:none;stroke:#000000;stroke-width:0.5;"/>
   </g>
  </g>
 </g>
 <defs>
  <clipPath id="p3428e6db54">
   <rect height="25.92" width="42.912" x="8.64" y="5.184"/>
  </clipPath>
 </defs>
</svg>
