<?xml version="1.0" encoding="utf-8" standalone="no"?>
<!DOCTYPE svg PUBLIC "-//W3C//DTD SVG 1.1//EN"
  "http://www.w3.org/Graphics/SVG/1.1/DTD/svg11.dtd">
<!-- Created with matplotlib (http://matplotlib.sourceforge.net/) -->
<svg height="43pt" version="1.1" viewBox="0 0 57 43" width="57pt" xmlns="http://www.w3.org/2000/svg" xmlns:xlink="http://www.w3.org/1999/xlink">
 <defs>
  <style type="text/css">
*{stroke-linecap:square;stroke-linejoin:round;}
  </style>
 </defs>
 <g id="figure_1">
  <g id="patch_1">
   <path d="
M0 43.2
L57.6 43.2
L57.6 0
L0 0
z
" style="fill:#ffffff;"/>
  </g>
  <g id="axes_1">
   <g id="patch_2">
    <path d="
M8.64 31.104
L51.552 31.104
L51.552 5.184
L8.64 5.184
z
" style="fill:#ffffff;"/>
   </g>
   <g id="patch_3">
    <path clip-path="url(#p3428e6db54)" d="
M10.6297 31.104
L10.6297 31.09
L20.6933 30.9923
L20.6933 30.9644
L21.492 30.9085
L21.492 30.8247
L22.131 30.8945
L22.131 30.713
L22.9297 30.6851
L22.9297 30.4337
L23.4089 30.3918
L23.4089 30.0288
L23.7284 29.931
L23.7284 29.7076
L23.8881 29.7076
L23.8881 29.4004
L24.0478 29.4004
L24.0478 29.0094
L24.2076 29.0094
L24.2076 29.3865
L24.3673 29.3865
L24.3673 28.1995
L24.5271 28.1995
L24.5271 27.627
L24.6868 27.627
L24.6868 26.8311
L24.8465 26.8311
L24.8465 25.5324
L25.0063 25.5324
L25.0063 24.3595
L25.166 24.3595
L25.166 22.7816
L25.3258 22.7816
L25.3258 19.933
L25.4855 19.933
L25.4855 16.5956
L25.6452 16.5956
L25.6452 11.9596
L25.805 11.9596
L25.805 9.59973
L25.9647 9.59973
L25.9647 8.00786
L26.1245 8.00786
L26.1245 8.56641
L26.2842 8.56641
L26.2842 7.6448
L26.4439 7.6448
L26.4439 11.4011
L26.6037 11.4011
L26.6037 15.1992
L26.7634 15.1992
L26.7634 16.833
L26.9232 16.833
L26.9232 20.9942
L27.0829 20.9942
L27.0829 23.1726
L27.2426 23.1726
L27.2426 25.1694
L27.4024 25.1694
L27.4024 26.5937
L27.5621 26.5937
L27.5621 27.6549
L27.7219 27.6549
L27.7219 28.4928
L27.8816 28.4928
L27.8816 29.1072
L28.0413 29.1072
L28.0413 29.7216
L28.2011 29.7216
L28.2011 29.9031
L28.3608 29.9031
L28.3608 30.0846
L28.5206 30.0846
L28.5206 30.1964
L28.6803 30.1964
L28.6803 30.3639
L28.84 30.3639
L28.84 30.6711
L29.3193 30.6292
L29.3193 30.8387
L29.9582 30.8247
L29.9582 31.0063
L42.5777 31.09
L42.5777 31.104" style="fill:none;stroke:#0000ff;stroke-width:0.5;"/>
   </g>
   <g id="patch_4">
    <path clip-path="url(#p3428e6db54)" d="
M10.6261 31.104
L10.6261 31.089
L20.6116 31.0142
L20.6116 30.9692
L21.3568 30.8644
L21.3568 30.8495
L22.251 30.7596
L22.251 30.7297
L22.5491 30.6249
L22.5491 30.535
L22.8471 30.4752
L22.8471 30.6548
L22.9962 30.6548
L22.9962 30.4003
L23.2943 30.4752
L23.2943 30.1458
L23.4433 30.1458
L23.4433 29.7864
L23.5923 29.7864
L23.5923 30.0559
L23.7414 30.0559
L23.7414 29.5019
L23.8904 29.5019
L23.8904 29.2773
L24.1885 29.1725
L24.1885 28.7084
L24.3375 28.7084
L24.3375 28.2293
L24.4866 28.2293
L24.4866 27.9298
L24.6356 27.9298
L24.6356 26.762
L24.7846 26.762
L24.7846 26.2379
L24.9337 26.2379
L24.9337 25.1299
L25.0827 25.1299
L25.0827 23.0338
L25.2317 23.0338
L25.2317 21.0873
L25.3808 21.0873
L25.3808 18.4821
L25.5298 18.4821
L25.5298 15.8919
L25.6789 15.8919
L25.6789 12.2385
L25.8279 12.2385
L25.8279 8.77988
L25.9769 8.77988
L25.9769 8.3307
L26.126 8.3307
L26.126 7.53715
L26.275 7.53715
L26.275 9.01944
L26.424 9.01944
L26.424 11.0857
L26.5731 11.0857
L26.5731 13.5262
L26.7221 13.5262
L26.7221 17.1046
L26.8711 17.1046
L26.8711 20.189
L27.0202 20.189
L27.0202 22.2253
L27.1692 22.2253
L27.1692 24.5011
L27.3183 24.5011
L27.3183 26.178
L27.4673 26.178
L27.4673 27.3309
L27.6163 27.3309
L27.6163 27.9298
L27.7654 27.9298
L27.7654 28.8581
L27.9144 28.8581
L27.9144 29.3372
L28.0634 29.3372
L28.0634 29.6666
L28.2125 29.6666
L28.2125 30.1458
L28.5106 30.1757
L28.5106 30.3105
L28.8086 30.3853
L28.8086 30.6548
L29.4048 30.6848
L29.4048 30.8045
L29.8519 30.8195
L29.8519 31.0291
L30.15 30.9692
L30.15 30.8794
L30.299 30.8794
L30.299 31.0441
L40.4336 31.089
L40.4336 31.104" style="fill:none;stroke:#008000;stroke-width:0.5;"/>
   </g>
   <g id="patch_5">
    <path clip-path="url(#p3428e6db54)" d="
M12.3354 31.104
L12.3354 31.0864
L20.7117 31.0688
L20.7117 30.9634
L21.0924 30.8931
L21.0924 30.7876
L21.2193 30.7876
L21.2193 30.9458
L21.9808 30.8403
L21.9808 30.7173
L22.3615 30.7348
L22.3615 30.5942
L22.4885 30.5942
L22.4885 30.8227
L22.7423 30.77
L22.7423 30.4184
L22.8692 30.4184
L22.8692 30.559
L23.123 30.4887
L23.123 30.2778
L23.5038 30.225
L23.5038 29.8031
L23.7576 29.9086
L23.7576 29.4691
L24.1383 29.5219
L24.1383 28.766
L24.3922 28.7308
L24.3922 28.0628
L24.646 27.9749
L24.646 27.5179
L24.7729 27.5179
L24.7729 26.1115
L25.0267 26.0236
L25.0267 24.5646
L25.1537 24.5646
L25.1537 22.6309
L25.2806 22.6309
L25.2806 20.7148
L25.4075 20.7148
L25.4075 18.658
L25.5344 18.658
L25.5344 15.2125
L25.6613 15.2125
L25.6613 13.5777
L25.7882 13.5777
L25.7882 11.7143
L25.9151 11.7143
L25.9151 8.4973
L26.042 8.4973
L26.042 7.65351
L26.169 7.65351
L26.169 7.53046
L26.2959 7.53046
L26.2959 8.51488
L26.4228 8.51488
L26.4228 9.14773
L26.5497 9.14773
L26.5497 12.8042
L26.6766 12.8042
L26.6766 15.4059
L26.8035 15.4059
L26.8035 17.9548
L26.9304 17.9548
L26.9304 20.2401
L27.0574 20.2401
L27.0574 22.332
L27.1843 22.332
L27.1843 23.7032
L27.3112 23.7032
L27.3112 25.1447
L27.4381 25.1447
L27.4381 27.1311
L27.565 27.1311
L27.565 27.6058
L27.6919 27.6058
L27.6919 28.3089
L27.8188 28.3089
L27.8188 28.555
L27.9458 28.555
L27.9458 29.6274
L28.0727 29.6274
L28.0727 29.8207
L28.1996 29.8207
L28.1996 30.1372
L28.4534 30.225
L28.4534 30.2778
L28.5803 30.2778
L28.5803 30.6118
L28.7072 30.6118
L28.7072 30.4712
L28.8342 30.4712
L28.8342 30.6645
L29.2149 30.7524
L29.2149 30.9282
L29.3418 30.9282
L29.3418 30.77
L29.4687 30.77
L29.4687 30.9458
L30.484 30.9634
L30.484 31.0688
L37.7181 31.0864
L37.7181 31.104" style="fill:none;stroke:#ff0000;stroke-width:0.5;"/>
   </g>
   <g id="patch_6">
    <path clip-path="url(#p3428e6db54)" d="
M9.54365 31.104
L9.54365 31.0774
L20.7795 30.9976
L20.7795 30.9178
L21.7857 30.8779
L21.7857 30.7981
L21.9534 30.7981
L21.9534 30.9178
L22.1211 30.9178
L22.1211 30.6518
L22.6242 30.6518
L22.6242 30.399
L23.295 30.3591
L23.295 30.2527
L23.4627 30.2527
L23.4627 29.8936
L23.6304 29.8936
L23.6304 29.6542
L23.9658 29.6409
L23.9658 29.1088
L24.1335 29.1088
L24.1335 28.9891
L24.3012 28.9891
L24.3012 28.2842
L24.4689 28.2842
L24.4689 27.925
L24.6366 27.925
L24.6366 27.0339
L24.8043 27.0339
L24.8043 25.9033
L24.972 25.9033
L24.972 24.3204
L25.1397 24.3204
L25.1397 22.2854
L25.3074 22.2854
L25.3074 19.7848
L25.4751 19.7848
L25.4751 16.8319
L25.6428 16.8319
L25.6428 14.0653
L25.8105 14.0653
L25.8105 10.0883
L25.9782 10.0883
L25.9782 7.09553
L26.1459 7.09553
L26.1459 7.49456
L26.3136 7.49456
L26.3136 9.11729
L26.4813 9.11729
L26.4813 13.2007
L26.6489 13.2007
L26.6489 15.4353
L26.8166 15.4353
L26.8166 19
L26.9843 19
L26.9843 21.6203
L27.152 21.6203
L27.152 23.9746
L27.3197 23.9746
L27.3197 25.6639
L27.4874 25.6639
L27.4874 27.4861
L27.6551 27.4861
L27.6551 28.1911
L27.8228 28.1911
L27.8228 29.1354
L27.9905 29.1354
L27.9905 29.4946
L28.1582 29.4946
L28.1582 29.9734
L28.3259 29.9734
L28.3259 30.1064
L28.4936 30.1064
L28.4936 30.266
L28.6613 30.266
L28.6613 30.6917
L29.4998 30.7715
L29.4998 30.8646
L30.1706 30.9178
L30.1706 31.0109
L43.0835 31.0907
L43.0835 31.104" style="fill:none;stroke:#00bfbf;stroke-width:0.5;"/>
   </g>
   <g id="matplotlib.axis_1">
    <g id="xtick_1">
     <g id="line2d_1">
      <defs>
       <path d="
M0 0
L0 -4" id="m0012dd4eef" style="stroke:#000000;stroke-linecap:butt;stroke-width:0.5;"/>
      </defs>
      <g>
       <use style="stroke:#000000;stroke-linecap:butt;stroke-width:0.5;" x="8.64" xlink:href="#m0012dd4eef" y="31.104"/>
      </g>
     </g>
     <g id="text_1">
      <!-- 0 -->
      <defs>
       <path d="
M31.7812 66.4062
Q24.1719 66.4062 20.3281 58.9062
Q16.5 51.4219 16.5 36.375
Q16.5 21.3906 20.3281 13.8906
Q24.1719 6.39062 31.7812 6.39062
Q39.4531 6.39062 43.2812 13.8906
Q47.125 21.3906 47.125 36.375
Q47.125 51.4219 43.2812 58.9062
Q39.4531 66.4062 31.7812 66.4062
M31.7812 74.2188
Q44.0469 74.2188 50.5156 64.5156
Q56.9844 54.8281 56.9844 36.375
Q56.9844 17.9688 50.5156 8.26562
Q44.0469 -1.42188 31.7812 -1.42188
Q19.5312 -1.42188 13.0625 8.26562
Q6.59375 17.9688 6.59375 36.375
Q6.59375 54.8281 13.0625 64.5156
Q19.5312 74.2188 31.7812 74.2188" id="DejaVuSans-30"/>
      </defs>
      <g transform="translate(6.12046875 42.525875)scale(0.1 -0.1)">
       <use xlink:href="#DejaVuSans-30"/>
      </g>
     </g>
    </g>
    <g id="xtick_2">
     <g id="line2d_2">
      <g>
       <use style="stroke:#000000;stroke-linecap:butt;stroke-width:0.5;" x="25.8048" xlink:href="#m0012dd4eef" y="31.104"/>
      </g>
     </g>
     <g id="text_2">
      <!-- 1 -->
      <defs>
       <path d="
M12.4062 8.29688
L28.5156 8.29688
L28.5156 63.9219
L10.9844 60.4062
L10.9844 69.3906
L28.4219 72.9062
L38.2812 72.9062
L38.2812 8.29688
L54.3906 8.29688
L54.3906 0
L12.4062 0
z
" id="DejaVuSans-31"/>
      </defs>
      <g transform="translate(23.6344875 42.394625)scale(0.1 -0.1)">
       <use xlink:href="#DejaVuSans-31"/>
      </g>
     </g>
    </g>
    <g id="xtick_3">
     <g id="line2d_3">
      <g>
       <use style="stroke:#000000;stroke-linecap:butt;stroke-width:0.5;" x="42.9696" xlink:href="#m0012dd4eef" y="31.104"/>
      </g>
     </g>
     <g id="text_3">
      <!-- 2 -->
      <defs>
       <path d="
M19.1875 8.29688
L53.6094 8.29688
L53.6094 0
L7.32812 0
L7.32812 8.29688
Q12.9375 14.1094 22.625 23.8906
Q32.3281 33.6875 34.8125 36.5312
Q39.5469 41.8438 41.4219 45.5312
Q43.3125 49.2188 43.3125 52.7812
Q43.3125 58.5938 39.2344 62.25
Q35.1562 65.9219 28.6094 65.9219
Q23.9688 65.9219 18.8125 64.3125
Q13.6719 62.7031 7.8125 59.4219
L7.8125 69.3906
Q13.7656 71.7812 18.9375 73
Q24.125 74.2188 28.4219 74.2188
Q39.75 74.2188 46.4844 68.5469
Q53.2188 62.8906 53.2188 53.4219
Q53.2188 48.9219 51.5312 44.8906
Q49.8594 40.875 45.4062 35.4062
Q44.1875 33.9844 37.6406 27.2188
Q31.1094 20.4531 19.1875 8.29688" id="DejaVuSans-32"/>
      </defs>
      <g transform="translate(40.6555375 42.525875)scale(0.1 -0.1)">
       <use xlink:href="#DejaVuSans-32"/>
      </g>
     </g>
    </g>
   </g>
   <g id="matplotlib.axis_2">
    <g id="ytick_1">
     <g id="line2d_4">
      <defs>
       <path d="
M0 0
L4 0" id="me8a85f7bf6" style="stroke:#000000;stroke-linecap:butt;stroke-width:0.5;"/>
      </defs>
      <g>
       <use style="stroke:#000000;stroke-linecap:butt;stroke-width:0.5;" x="8.64" xlink:href="#me8a85f7bf6" y="31.104"/>
      </g>
     </g>
     <g id="text_4">
      <!-- 0 -->
      <g transform="translate(-0.3990625 34.74384375)scale(0.1 -0.1)">
       <use xlink:href="#DejaVuSans-30"/>
      </g>
     </g>
    </g>
    <g id="ytick_2">
     <g id="line2d_5">
      <g>
       <use style="stroke:#000000;stroke-linecap:butt;stroke-width:0.5;" x="8.64" xlink:href="#me8a85f7bf6" y="20.736"/>
      </g>
     </g>
     <g id="text_5">
      <!-- 4 -->
      <defs>
       <path d="
M37.7969 64.3125
L12.8906 25.3906
L37.7969 25.3906
z

M35.2031 72.9062
L47.6094 72.9062
L47.6094 25.3906
L58.0156 25.3906
L58.0156 17.1875
L47.6094 17.1875
L47.6094 0
L37.7969 0
L37.7969 17.1875
L4.89062 17.1875
L4.89062 26.7031
z
" id="DejaVuSans-34"/>
      </defs>
      <g transform="translate(-0.6725 24.3813125)scale(0.1 -0.1)">
       <use xlink:href="#DejaVuSans-34"/>
      </g>
     </g>
    </g>
    <g id="ytick_3">
     <g id="line2d_6">
      <g>
       <use style="stroke:#000000;stroke-linecap:butt;stroke-width:0.5;" x="8.64" xlink:href="#me8a85f7bf6" y="10.368"/>
      </g>
     </g>
     <g id="text_6">
      <!-- 8 -->
      <defs>
       <path d="
M31.7812 34.625
Q24.75 34.625 20.7188 30.8594
Q16.7031 27.0938 16.7031 20.5156
Q16.7031 13.9219 20.7188 10.1562
Q24.75 6.39062 31.7812 6.39062
Q38.8125 6.39062 42.8594 10.1719
Q46.9219 13.9688 46.9219 20.5156
Q46.9219 27.0938 42.8906 30.8594
Q38.875 34.625 31.7812 34.625
M21.9219 38.8125
Q15.5781 40.375 12.0312 44.7188
Q8.5 49.0781 8.5 55.3281
Q8.5 64.0625 14.7188 69.1406
Q20.9531 74.2188 31.7812 74.2188
Q42.6719 74.2188 48.875 69.1406
Q55.0781 64.0625 55.0781 55.3281
Q55.0781 49.0781 51.5312 44.7188
Q48 40.375 41.7031 38.8125
Q48.8281 37.1562 52.7969 32.3125
Q56.7812 27.4844 56.7812 20.5156
Q56.7812 9.90625 50.3125 4.23438
Q43.8438 -1.42188 31.7812 -1.42188
Q19.7344 -1.42188 13.25 4.23438
Q6.78125 9.90625 6.78125 20.5156
Q6.78125 27.4844 10.7812 32.3125
Q14.7969 37.1562 21.9219 38.8125
M18.3125 54.3906
Q18.3125 48.7344 21.8438 45.5625
Q25.3906 42.3906 31.7812 42.3906
Q38.1406 42.3906 41.7188 45.5625
Q45.3125 48.7344 45.3125 54.3906
Q45.3125 60.0625 41.7188 63.2344
Q38.1406 66.4062 31.7812 66.4062
Q25.3906 66.4062 21.8438 63.2344
Q18.3125 60.0625 18.3125 54.3906" id="DejaVuSans-38"/>
      </defs>
      <g transform="translate(-0.36 14.00784375)scale(0.1 -0.1)">
       <use xlink:href="#DejaVuSans-38"/>
      </g>
     </g>
    </g>
   </g>
   <g id="patch_7">
    <path d="
M8.64 31.104
L51.552 31.104" style="fill:none;stroke:#000000;stroke-width:0.5;"/>
   </g>
   <g id="patch_8">
    <path d="
M8.64 31.104
L8.64 5.184" style="fill:none;stroke:#000000;stroke-width:0.5;"/>
   </g>
  </g>
 </g>
 <defs>
  <clipPath id="p3428e6db54">
   <rect height="25.92" width="42.912" x="8.64" y="5.184"/>
  </clipPath>
 </defs>
</svg>
