<?xml version="1.0" encoding="utf-8" standalone="no"?>
<!DOCTYPE svg PUBLIC "-//W3C//DTD SVG 1.1//EN"
  "http://www.w3.org/Graphics/SVG/1.1/DTD/svg11.dtd">
<!-- Created with matplotlib (http://matplotlib.sourceforge.net/) -->
<svg height="108pt" version="1.1" viewBox="0 0 144 108" width="144pt" xmlns="http://www.w3.org/2000/svg" xmlns:xlink="http://www.w3.org/1999/xlink">
 <defs>
  <style type="text/css">
*{stroke-linecap:square;stroke-linejoin:round;}
  </style>
 </defs>
 <g id="figure_1">
  <g id="patch_1">
   <path d="
M0 108
L144 108
L144 0
L0 0
z
" style="fill:#ffffff;"/>
  </g>
  <g id="axes_1">
   <g id="patch_2">
    <path d="
M37.44 81
L131.04 81
L131.04 10.8
L37.44 10.8
z
" style="fill:#ffffff;"/>
   </g>
   <g id="patch_3">
    <path clip-path="url(#pd1317ff781)" d="
M18.894 81
L18.894 80.5409
L19.8481 80.5409
L19.8481 81
L21.7564 81
L21.7564 80.847
L22.7105 80.847
L22.7105 81
L24.6188 81
L24.6188 80.7704
L25.5729 80.7704
L25.5729 81
L26.5271 81
L26.5271 80.4643
L27.4812 80.4643
L27.4812 81
L28.4353 81
L28.4353 80.7704
L29.3895 80.7704
L29.3895 81
L30.3436 81
L30.3436 80.6174
L31.2978 80.6174
L31.2978 80.847
L32.2519 80.847
L32.2519 80.5409
L33.206 80.5409
L33.206 81
L34.1602 81
L34.1602 80.7704
L37.0226 80.7704
L37.0226 80.6174
L37.9767 80.6174
L37.9767 80.3878
L38.9309 80.3878
L38.9309 80.7704
L39.885 80.7704
L39.885 80.3878
L43.7016 80.3113
L43.7016 80.0817
L45.6098 80.0817
L45.6098 79.4695
L46.564 79.4695
L46.564 79.7756
L47.5181 79.7756
L47.5181 79.2399
L48.4722 79.2399
L48.4722 79.6226
L50.3805 79.6226
L50.3805 78.3216
L51.3347 78.3216
L51.3347 79.393
L52.2888 79.393
L52.2888 78.0155
L53.2429 78.0155
L53.2429 78.1686
L55.1512 78.1686
L55.1512 77.4033
L56.1053 77.4033
L56.1053 77.0972
L57.0595 77.0972
L57.0595 76.7146
L58.0136 76.7146
L58.0136 75.8728
L58.9678 75.8728
L58.9678 75.6433
L59.9219 75.6433
L59.9219 75.1076
L60.876 75.1076
L60.876 74.6484
L61.8302 74.6484
L61.8302 73.7301
L62.7843 73.7301
L62.7843 73.1179
L63.7385 73.1179
L63.7385 72.0466
L64.6926 72.0466
L64.6926 70.8222
L65.6467 70.8222
L65.6467 69.4447
L67.555 69.3682
L67.555 67.3021
L68.5091 67.3021
L68.5091 65.3889
L69.4633 65.3889
L69.4633 66.6133
L70.4174 66.6133
L70.4174 62.0984
L71.3716 62.0984
L71.3716 64.4706
L72.3257 64.4706
L72.3257 61.7157
L73.2798 61.7157
L73.2798 57.0477
L74.234 57.0477
L74.234 57.813
L75.1881 57.813
L75.1881 54.0633
L76.1423 54.0633
L76.1423 52.2267
L77.0964 52.2267
L77.0964 49.8544
L78.0505 49.8544
L78.0505 47.176
L79.0047 47.176
L79.0047 47.8647
L79.9588 47.8647
L79.9588 43.5028
L80.9129 43.5028
L80.9129 41.1305
L81.8671 41.1305
L81.8671 40.901
L82.8212 40.901
L82.8212 37.0747
L83.7754 37.0747
L83.7754 39.447
L84.7295 39.447
L84.7295 34.2433
L85.6836 34.2433
L85.6836 33.172
L86.6378 33.172
L86.6378 26.7439
L87.5919 26.7439
L87.5919 33.172
L88.5461 33.172
L88.5461 30.8762
L89.5002 30.8762
L89.5002 28.1978
L90.4543 28.1978
L90.4543 29.1161
L91.4085 29.1161
L91.4085 24.6012
L92.3626 24.6012
L92.3626 31.9476
L93.3167 31.9476
L93.3167 31.718
L94.2709 31.718
L94.2709 31.3354
L95.225 31.3354
L95.225 36.5391
L96.1792 36.5391
L96.1792 39.0644
L97.1333 39.0644
L97.1333 36.4625
L98.0874 36.4625
L98.0874 44.6507
L99.0416 44.6507
L99.0416 48.5535
L99.9957 48.5535
L99.9957 52.4562
L100.95 52.4562
L100.95 55.4407
L101.904 55.4407
L101.904 57.5834
L102.858 57.5834
L102.858 60.7209
L103.812 60.7209
L103.812 66.8429
L104.766 66.8429
L104.766 70.8222
L105.721 70.8222
L105.721 69.9804
L106.675 69.9804
L106.675 74.878
L107.629 74.878
L107.629 76.332
L108.583 76.332
L108.583 77.786
L109.537 77.786
L109.537 78.6277
L110.491 78.6277
L110.491 80.3113
L112.4 80.3878
L112.4 80.6939
L113.354 80.6939
L113.354 80.847
L114.308 80.847
L114.308 81
L114.308 81" style="fill:none;stroke:#0000ff;stroke-width:0.5;"/>
   </g>
   <g id="patch_4">
    <path clip-path="url(#pd1317ff781)" d="
M12.4061 81
L12.4061 80.9293
L18.6023 81
L18.6023 80.7879
L19.635 80.7879
L19.635 81
L24.7984 81
L24.7984 80.6465
L25.8311 80.6465
L25.8311 81
L26.8638 81
L26.8638 80.8586
L27.8965 80.8586
L27.8965 81
L28.9292 81
L28.9292 80.8586
L35.1254 80.8586
L35.1254 80.4344
L37.1907 80.5051
L37.1907 80.6465
L38.2234 80.6465
L38.2234 80.5051
L39.2561 80.5051
L39.2561 80.7172
L40.2888 80.7172
L40.2888 80.4344
L41.3215 80.4344
L41.3215 79.5152
L42.3542 79.5152
L42.3542 80.0809
L43.3869 80.0809
L43.3869 80.293
L44.4196 80.293
L44.4196 79.6566
L45.4523 79.6566
L45.4523 79.5152
L46.485 79.5152
L46.485 79.3031
L47.5177 79.3031
L47.5177 79.4445
L48.5504 79.4445
L48.5504 79.0203
L49.5831 79.0203
L49.5831 79.1617
L50.6158 79.1617
L50.6158 78.6668
L51.6484 78.6668
L51.6484 78.9496
L52.6811 78.9496
L52.6811 78.1011
L53.7138 78.1011
L53.7138 77.3941
L54.7465 77.3941
L54.7465 77.7476
L55.7792 77.7476
L55.7792 77.1113
L56.8119 77.1113
L56.8119 75.7679
L57.8446 75.7679
L57.8446 75.6265
L58.8773 75.6265
L58.8773 75.4851
L59.91 75.4851
L59.91 74.566
L60.9427 74.566
L60.9427 74.2831
L61.9754 74.2831
L61.9754 73.1519
L63.0081 73.1519
L63.0081 70.8894
L64.0408 70.8894
L64.0408 71.1015
L65.0735 71.1015
L65.0735 70.8187
L66.1062 70.8187
L66.1062 69.8288
L67.1389 69.8288
L67.1389 67.9905
L68.1715 67.9905
L68.1715 65.5866
L69.2042 65.5866
L69.2042 63.8897
L70.2369 63.8897
L70.2369 63.112
L71.2696 63.112
L71.2696 61.2737
L72.3023 61.2737
L72.3023 60.2131
L73.335 60.2131
L73.335 58.7283
L74.3677 58.7283
L74.3677 56.89
L76.4331 56.89
L76.4331 49.5368
L77.4658 49.5368
L77.4658 48.8298
L78.4985 48.8298
L78.4985 47.5571
L79.5312 47.5571
L79.5312 45.436
L80.5639 45.436
L80.5639 44.0219
L81.5966 44.0219
L81.5966 38.0828
L82.6293 38.0828
L82.6293 39.8504
L83.6619 39.8504
L83.6619 40.416
L84.6946 40.416
L84.6946 33.6992
L85.7273 33.6992
L85.7273 35.4668
L86.76 35.4668
L86.76 33.7699
L87.7927 33.7699
L87.7927 28.962
L88.8254 28.962
L88.8254 29.8812
L89.8581 29.8812
L89.8581 31.2246
L90.8908 31.2246
L90.8908 30.7296
L91.9235 30.7296
L91.9235 29.9519
L92.9562 29.9519
L92.9562 31.366
L93.9889 31.366
L93.9889 30.4468
L95.0216 30.4468
L95.0216 34.4062
L96.0543 34.4062
L96.0543 38.507
L97.087 38.507
L97.087 41.7594
L98.1197 41.7594
L98.1197 43.9512
L99.1524 43.9512
L99.1524 45.6481
L100.185 45.6481
L100.185 51.0216
L101.218 51.0216
L101.218 56.5365
L102.25 56.5365
L102.25 60.5666
L103.283 60.5666
L103.283 63.112
L104.316 63.112
L104.316 68.7683
L105.349 68.7683
L105.349 70.5358
L106.381 70.5358
L106.381 74.2831
L107.414 74.2831
L107.414 75.1316
L108.447 75.1316
L108.447 77.4648
L109.479 77.4648
L109.479 78.8789
L110.512 78.8789
L110.512 79.8687
L111.545 79.8687
L111.545 80.293
L112.577 80.293
L112.577 80.9293
L114.643 80.9293
L114.643 80.7172
L115.675 80.7172
L115.675 81
L115.675 81" style="fill:none;stroke:#008000;stroke-width:0.5;"/>
   </g>
   <g id="patch_5">
    <path clip-path="url(#pd1317ff781)" d="
M18.894 81
L18.894 80.8478
L19.8532 80.8478
L19.8532 81
L24.6495 81
L24.6495 80.7716
L25.6087 80.7716
L25.6087 81
L26.568 81
L26.568 80.5433
L27.5272 80.5433
L27.5272 81
L28.4865 81
L28.4865 80.7716
L29.4457 80.7716
L29.4457 81
L30.405 81
L30.405 80.8478
L31.3642 80.8478
L31.3642 80.6955
L34.242 80.6194
L34.242 80.8478
L35.2012 80.8478
L35.2012 80.6955
L36.1605 80.6955
L36.1605 80.0104
L37.1197 80.0104
L37.1197 80.7716
L38.079 80.7716
L38.079 80.5433
L39.0382 80.5433
L39.0382 80.1627
L40.9567 80.1627
L40.9567 80.3149
L44.7937 80.2388
L44.7937 79.9343
L45.753 79.9343
L45.753 79.3253
L46.7122 79.3253
L46.7122 79.097
L47.6715 79.097
L47.6715 79.7821
L48.6307 79.7821
L48.6307 78.8686
L49.59 78.8686
L49.59 79.2492
L50.5492 79.2492
L50.5492 77.879
L51.5085 77.879
L51.5085 78.5641
L52.4677 78.5641
L52.4677 77.194
L53.427 77.194
L53.427 78.3358
L54.3862 78.3358
L54.3862 77.879
L55.3455 77.879
L55.3455 77.2701
L56.3047 77.2701
L56.3047 75.5954
L57.264 75.5954
L57.264 75.976
L58.2232 75.976
L58.2232 74.9865
L59.1825 74.9865
L59.1825 75.8999
L60.1417 75.8999
L60.1417 75.3671
L61.101 75.3671
L61.101 73.6924
L62.0602 73.6924
L62.0602 72.4745
L63.9787 72.5506
L63.9787 71.7133
L64.938 71.7133
L64.938 70.9521
L65.8972 70.9521
L65.8972 69.7341
L66.8565 69.7341
L66.8565 68.0595
L67.8158 68.0595
L67.8158 67.9072
L68.775 67.9072
L68.775 67.755
L69.7343 67.755
L69.7343 64.9385
L70.6935 64.9385
L70.6935 63.2639
L71.6528 63.2639
L71.6528 62.4265
L72.612 62.4265
L72.612 58.925
L73.5713 58.925
L73.5713 59.3056
L74.5305 59.3056
L74.5305 55.195
L75.4898 55.195
L75.4898 51.4651
L76.449 51.4651
L76.449 52.4547
L77.4083 52.4547
L77.4083 50.7039
L78.3675 50.7039
L78.3675 49.486
L79.3268 49.486
L79.3268 45.8322
L80.286 45.8322
L80.286 47.2024
L81.2453 47.2024
L81.2453 42.7874
L82.2045 42.7874
L82.2045 38.753
L83.1638 38.753
L83.1638 38.6007
L84.123 38.6007
L84.123 34.7947
L86.0415 34.7185
L86.0415 29.0095
L87.0008 29.0095
L87.0008 30.9886
L87.96 30.9886
L87.96 30.4558
L88.9193 30.4558
L88.9193 31.9021
L89.8785 31.9021
L89.8785 28.7811
L90.8378 28.7811
L90.8378 31.0648
L91.797 31.0648
L91.797 29.6185
L92.7563 29.6185
L92.7563 27.3348
L93.7155 27.3348
L93.7155 33.2723
L95.634 33.2723
L95.634 36.6216
L96.5933 36.6216
L96.5933 40.4276
L97.5525 40.4276
L97.5525 39.6664
L98.5118 39.6664
L98.5118 43.3963
L99.471 43.3963
L99.471 48.6487
L100.43 48.6487
L100.43 51.3129
L101.39 51.3129
L101.39 57.3264
L102.349 57.3264
L102.349 58.5444
L103.308 58.5444
L103.308 65.5475
L104.267 65.5475
L104.267 66.7654
L105.227 66.7654
L105.227 69.5819
L106.186 69.5819
L106.186 74.073
L107.145 74.073
L107.145 76.0521
L108.104 76.0521
L108.104 77.4984
L109.064 77.4984
L109.064 79.1731
L110.023 79.1731
L110.023 79.7059
L110.982 79.7059
L110.982 80.4672
L111.941 80.4672
L111.941 80.6955
L113.86 80.7716
L113.86 80.9239
L114.819 80.9239
L114.819 81" style="fill:none;stroke:#ff0000;stroke-width:0.5;"/>
   </g>
   <g id="patch_6">
    <path clip-path="url(#pd1317ff781)" d="
M12.4061 81
L12.4061 80.7856
L13.4278 80.7856
L13.4278 81
L18.5361 81
L18.5361 80.7856
L19.5577 80.7856
L19.5577 81
L22.6227 81
L22.6227 80.7141
L23.6444 80.7141
L23.6444 81
L24.6661 81
L24.6661 80.8571
L25.6877 80.8571
L25.6877 81
L26.7094 81
L26.7094 80.7141
L27.7311 80.7141
L27.7311 81
L28.7527 81
L28.7527 80.5712
L29.7744 80.5712
L29.7744 80.7141
L30.7961 80.7141
L30.7961 81
L31.8177 81
L31.8177 80.7141
L32.8394 80.7141
L32.8394 80.8571
L33.861 80.8571
L33.861 80.4997
L34.8827 80.4997
L34.8827 80.9285
L36.926 80.9285
L36.926 80.7856
L38.9694 80.7856
L38.9694 80.1424
L39.991 80.1424
L39.991 80.4283
L41.0127 80.4283
L41.0127 80.2139
L42.0344 80.2139
L42.0344 80.3568
L43.056 80.3568
L43.056 79.7851
L44.0777 79.7851
L44.0777 80.0709
L45.0994 80.0709
L45.0994 79.8565
L46.121 79.8565
L46.121 79.2133
L47.1427 79.2133
L47.1427 79.4277
L48.1643 79.4277
L48.1643 79.7851
L49.186 79.7851
L49.186 78.4987
L50.2077 78.4987
L50.2077 78.9989
L51.2293 78.9989
L51.2293 78.2843
L52.251 78.2843
L52.251 78.4987
L54.2943 78.5701
L54.2943 77.5696
L55.316 77.5696
L55.316 76.4976
L56.3377 76.4976
L56.3377 75.7829
L58.381 75.7114
L58.381 74.7824
L60.4243 74.7109
L60.4243 74.3536
L61.446 74.3536
L61.446 72.7813
L62.4676 72.7813
L62.4676 72.3525
L63.4893 72.3525
L63.4893 71.5664
L65.5326 71.6378
L65.5326 70.0655
L66.5543 70.0655
L66.5543 68.5647
L67.576 68.5647
L67.576 66.5637
L68.5976 66.5637
L68.5976 64.3482
L69.6193 64.3482
L69.6193 64.8485
L70.641 64.8485
L70.641 63.4191
L71.6626 63.4191
L71.6626 61.561
L72.6843 61.561
L72.6843 58.7738
L73.706 58.7738
L73.706 58.4879
L74.7276 58.4879
L74.7276 55.7007
L75.7493 55.7007
L75.7493 53.6281
L76.7709 53.6281
L76.7709 50.7695
L77.7926 50.7695
L77.7926 48.9113
L78.8143 48.9113
L78.8143 46.9817
L79.8359 46.9817
L79.8359 43.6942
L80.8576 43.6942
L80.8576 42.9081
L81.8793 42.9081
L81.8793 40.6211
L82.9009 40.6211
L82.9009 37.4766
L83.9226 37.4766
L83.9226 36.5475
L84.9443 36.5475
L84.9443 35.8328
L85.9659 35.8328
L85.9659 30.044
L86.9876 30.044
L86.9876 31.9736
L88.0093 31.9736
L88.0093 31.1875
L89.0309 31.1875
L89.0309 33.403
L90.0526 33.403
L90.0526 28.0429
L91.0742 28.0429
L91.0742 31.7592
L92.0959 31.7592
L92.0959 30.7587
L93.1176 30.7587
L93.1176 31.3304
L94.1392 31.3304
L94.1392 33.7603
L95.1609 33.7603
L95.1609 38.1198
L96.1826 38.1198
L96.1826 36.8334
L97.2042 36.8334
L97.2042 40.8355
L98.2259 40.8355
L98.2259 41.1929
L99.2476 41.1929
L99.2476 48.8398
L100.269 48.8398
L100.269 51.1983
L101.291 51.1983
L101.291 55.3433
L102.313 55.3433
L102.313 61.1322
L103.334 61.1322
L103.334 64.8485
L104.356 64.8485
L104.356 68.1359
L105.378 68.1359
L105.378 71.4949
L106.399 71.4949
L106.399 72.8528
L107.421 72.8528
L107.421 76.8549
L108.443 76.8549
L108.443 77.4981
L109.464 77.4981
L109.464 79.4277
L110.486 79.4277
L110.486 79.8565
L111.508 79.8565
L111.508 80.1424
L112.529 80.1424
L112.529 80.8571
L114.573 80.8571
L114.573 81
L114.573 81" style="fill:none;stroke:#00bfbf;stroke-width:0.5;"/>
   </g>
   <g id="matplotlib.axis_1">
    <g id="xtick_1">
     <g id="line2d_1">
      <defs>
       <path d="
M0 0
L0 -4" id="m0012dd4eef" style="stroke:#000000;stroke-linecap:butt;stroke-width:0.5;"/>
      </defs>
      <g>
       <use style="stroke:#000000;stroke-linecap:butt;stroke-width:0.5;" x="37.44" xlink:href="#m0012dd4eef" y="81.0"/>
      </g>
     </g>
     <g id="text_1">
      <!-- −4 -->
      <defs>
       <path d="
M37.7969 64.3125
L12.8906 25.3906
L37.7969 25.3906
z

M35.2031 72.9062
L47.6094 72.9062
L47.6094 25.3906
L58.0156 25.3906
L58.0156 17.1875
L47.6094 17.1875
L47.6094 0
L37.7969 0
L37.7969 17.1875
L4.89062 17.1875
L4.89062 26.7031
z
" id="DejaVuSans-34"/>
       <path d="
M10.5938 35.5
L73.1875 35.5
L73.1875 27.2031
L10.5938 27.2031
z
" id="DejaVuSans-2212"/>
      </defs>
      <g transform="translate(30.8790625 92.290625)scale(0.1 -0.1)">
       <use xlink:href="#DejaVuSans-2212"/>
       <use x="83.7890625" xlink:href="#DejaVuSans-34"/>
      </g>
     </g>
    </g>
    <g id="xtick_2">
     <g id="line2d_2">
      <g>
       <use style="stroke:#000000;stroke-linecap:butt;stroke-width:0.5;" x="56.16" xlink:href="#m0012dd4eef" y="81.0"/>
      </g>
     </g>
     <g id="text_2">
      <!-- −2 -->
      <defs>
       <path d="
M19.1875 8.29688
L53.6094 8.29688
L53.6094 0
L7.32812 0
L7.32812 8.29688
Q12.9375 14.1094 22.625 23.8906
Q32.3281 33.6875 34.8125 36.5312
Q39.5469 41.8438 41.4219 45.5312
Q43.3125 49.2188 43.3125 52.7812
Q43.3125 58.5938 39.2344 62.25
Q35.1562 65.9219 28.6094 65.9219
Q23.9688 65.9219 18.8125 64.3125
Q13.6719 62.7031 7.8125 59.4219
L7.8125 69.3906
Q13.7656 71.7812 18.9375 73
Q24.125 74.2188 28.4219 74.2188
Q39.75 74.2188 46.4844 68.5469
Q53.2188 62.8906 53.2188 53.4219
Q53.2188 48.9219 51.5312 44.8906
Q49.8594 40.875 45.4062 35.4062
Q44.1875 33.9844 37.6406 27.2188
Q31.1094 20.4531 19.1875 8.29688" id="DejaVuSans-32"/>
      </defs>
      <g transform="translate(49.819375 92.421875)scale(0.1 -0.1)">
       <use xlink:href="#DejaVuSans-2212"/>
       <use x="83.7890625" xlink:href="#DejaVuSans-32"/>
      </g>
     </g>
    </g>
    <g id="xtick_3">
     <g id="line2d_3">
      <g>
       <use style="stroke:#000000;stroke-linecap:butt;stroke-width:0.5;" x="74.88" xlink:href="#m0012dd4eef" y="81.0"/>
      </g>
     </g>
     <g id="text_3">
      <!-- 0 -->
      <defs>
       <path d="
M31.7812 66.4062
Q24.1719 66.4062 20.3281 58.9062
Q16.5 51.4219 16.5 36.375
Q16.5 21.3906 20.3281 13.8906
Q24.1719 6.39062 31.7812 6.39062
Q39.4531 6.39062 43.2812 13.8906
Q47.125 21.3906 47.125 36.375
Q47.125 51.4219 43.2812 58.9062
Q39.4531 66.4062 31.7812 66.4062
M31.7812 74.2188
Q44.0469 74.2188 50.5156 64.5156
Q56.9844 54.8281 56.9844 36.375
Q56.9844 17.9688 50.5156 8.26562
Q44.0469 -1.42188 31.7812 -1.42188
Q19.5312 -1.42188 13.0625 8.26562
Q6.59375 17.9688 6.59375 36.375
Q6.59375 54.8281 13.0625 64.5156
Q19.5312 74.2188 31.7812 74.2188" id="DejaVuSans-30"/>
      </defs>
      <g transform="translate(72.36046875 92.421875)scale(0.1 -0.1)">
       <use xlink:href="#DejaVuSans-30"/>
      </g>
     </g>
    </g>
    <g id="xtick_4">
     <g id="line2d_4">
      <g>
       <use style="stroke:#000000;stroke-linecap:butt;stroke-width:0.5;" x="93.6" xlink:href="#m0012dd4eef" y="81.0"/>
      </g>
     </g>
     <g id="text_4">
      <!-- 2 -->
      <g transform="translate(91.2859375 92.421875)scale(0.1 -0.1)">
       <use xlink:href="#DejaVuSans-32"/>
      </g>
     </g>
    </g>
    <g id="xtick_5">
     <g id="line2d_5">
      <g>
       <use style="stroke:#000000;stroke-linecap:butt;stroke-width:0.5;" x="112.32" xlink:href="#m0012dd4eef" y="81.0"/>
      </g>
     </g>
     <g id="text_5">
      <!-- 4 -->
      <g transform="translate(109.66375 92.290625)scale(0.1 -0.1)">
       <use xlink:href="#DejaVuSans-34"/>
      </g>
     </g>
    </g>
    <g id="xtick_6">
     <g id="line2d_6">
      <g>
       <use style="stroke:#000000;stroke-linecap:butt;stroke-width:0.5;" x="131.04" xlink:href="#m0012dd4eef" y="81.0"/>
      </g>
     </g>
     <g id="text_6">
      <!-- 6 -->
      <defs>
       <path d="
M33.0156 40.375
Q26.375 40.375 22.4844 35.8281
Q18.6094 31.2969 18.6094 23.3906
Q18.6094 15.5312 22.4844 10.9531
Q26.375 6.39062 33.0156 6.39062
Q39.6562 6.39062 43.5312 10.9531
Q47.4062 15.5312 47.4062 23.3906
Q47.4062 31.2969 43.5312 35.8281
Q39.6562 40.375 33.0156 40.375
M52.5938 71.2969
L52.5938 62.3125
Q48.875 64.0625 45.0938 64.9844
Q41.3125 65.9219 37.5938 65.9219
Q27.8281 65.9219 22.6719 59.3281
Q17.5312 52.7344 16.7969 39.4062
Q19.6719 43.6562 24.0156 45.9219
Q28.375 48.1875 33.5938 48.1875
Q44.5781 48.1875 50.9531 41.5156
Q57.3281 34.8594 57.3281 23.3906
Q57.3281 12.1562 50.6875 5.35938
Q44.0469 -1.42188 33.0156 -1.42188
Q20.3594 -1.42188 13.6719 8.26562
Q6.98438 17.9688 6.98438 36.375
Q6.98438 53.6562 15.1875 63.9375
Q23.3906 74.2188 37.2031 74.2188
Q40.9219 74.2188 44.7031 73.4844
Q48.4844 72.75 52.5938 71.2969" id="DejaVuSans-36"/>
      </defs>
      <g transform="translate(128.5228125 92.421875)scale(0.1 -0.1)">
       <use xlink:href="#DejaVuSans-36"/>
      </g>
     </g>
    </g>
    <g id="text_7">
     <!-- Log firing rate -->
     <defs>
      <path d="
M56.2031 29.5938
L56.2031 25.2031
L14.8906 25.2031
Q15.4844 15.9219 20.4844 11.0625
Q25.4844 6.20312 34.4219 6.20312
Q39.5938 6.20312 44.4531 7.46875
Q49.3125 8.73438 54.1094 11.2812
L54.1094 2.78125
Q49.2656 0.734375 44.1875 -0.34375
Q39.1094 -1.42188 33.8906 -1.42188
Q20.7969 -1.42188 13.1562 6.1875
Q5.51562 13.8125 5.51562 26.8125
Q5.51562 40.2344 12.7656 48.1094
Q20.0156 56 32.3281 56
Q43.3594 56 49.7812 48.8906
Q56.2031 41.7969 56.2031 29.5938
M47.2188 32.2344
Q47.125 39.5938 43.0938 43.9844
Q39.0625 48.3906 32.4219 48.3906
Q24.9062 48.3906 20.3906 44.1406
Q15.875 39.8906 15.1875 32.1719
z
" id="DejaVuSans-65"/>
      <path d="
M9.8125 72.9062
L19.6719 72.9062
L19.6719 8.29688
L55.1719 8.29688
L55.1719 0
L9.8125 0
z
" id="DejaVuSans-4c"/>
      <path d="
M30.6094 48.3906
Q23.3906 48.3906 19.1875 42.75
Q14.9844 37.1094 14.9844 27.2969
Q14.9844 17.4844 19.1562 11.8438
Q23.3438 6.20312 30.6094 6.20312
Q37.7969 6.20312 41.9844 11.8594
Q46.1875 17.5312 46.1875 27.2969
Q46.1875 37.0156 41.9844 42.7031
Q37.7969 48.3906 30.6094 48.3906
M30.6094 56
Q42.3281 56 49.0156 48.375
Q55.7188 40.7656 55.7188 27.2969
Q55.7188 13.875 49.0156 6.21875
Q42.3281 -1.42188 30.6094 -1.42188
Q18.8438 -1.42188 12.1719 6.21875
Q5.51562 13.875 5.51562 27.2969
Q5.51562 40.7656 12.1719 48.375
Q18.8438 56 30.6094 56" id="DejaVuSans-6f"/>
      <path d="
M54.8906 33.0156
L54.8906 0
L45.9062 0
L45.9062 32.7188
Q45.9062 40.4844 42.875 44.3281
Q39.8438 48.1875 33.7969 48.1875
Q26.5156 48.1875 22.3125 43.5469
Q18.1094 38.9219 18.1094 30.9062
L18.1094 0
L9.07812 0
L9.07812 54.6875
L18.1094 54.6875
L18.1094 46.1875
Q21.3438 51.125 25.7031 53.5625
Q30.0781 56 35.7969 56
Q45.2188 56 50.0469 50.1719
Q54.8906 44.3438 54.8906 33.0156" id="DejaVuSans-6e"/>
      <path id="DejaVuSans-20"/>
      <path d="
M9.42188 54.6875
L18.4062 54.6875
L18.4062 0
L9.42188 0
z

M9.42188 75.9844
L18.4062 75.9844
L18.4062 64.5938
L9.42188 64.5938
z
" id="DejaVuSans-69"/>
      <path d="
M37.1094 75.9844
L37.1094 68.5
L28.5156 68.5
Q23.6875 68.5 21.7969 66.5469
Q19.9219 64.5938 19.9219 59.5156
L19.9219 54.6875
L34.7188 54.6875
L34.7188 47.7031
L19.9219 47.7031
L19.9219 0
L10.8906 0
L10.8906 47.7031
L2.29688 47.7031
L2.29688 54.6875
L10.8906 54.6875
L10.8906 58.5
Q10.8906 67.625 15.1406 71.7969
Q19.3906 75.9844 28.6094 75.9844
z
" id="DejaVuSans-66"/>
      <path d="
M45.4062 27.9844
Q45.4062 37.75 41.375 43.1094
Q37.3594 48.4844 30.0781 48.4844
Q22.8594 48.4844 18.8281 43.1094
Q14.7969 37.75 14.7969 27.9844
Q14.7969 18.2656 18.8281 12.8906
Q22.8594 7.51562 30.0781 7.51562
Q37.3594 7.51562 41.375 12.8906
Q45.4062 18.2656 45.4062 27.9844
M54.3906 6.78125
Q54.3906 -7.17188 48.1875 -13.9844
Q42 -20.7969 29.2031 -20.7969
Q24.4688 -20.7969 20.2656 -20.0938
Q16.0625 -19.3906 12.1094 -17.9219
L12.1094 -9.1875
Q16.0625 -11.3281 19.9219 -12.3438
Q23.7812 -13.375 27.7812 -13.375
Q36.625 -13.375 41.0156 -8.76562
Q45.4062 -4.15625 45.4062 5.17188
L45.4062 9.625
Q42.625 4.78125 38.2812 2.39062
Q33.9375 0 27.875 0
Q17.8281 0 11.6719 7.65625
Q5.51562 15.3281 5.51562 27.9844
Q5.51562 40.6719 11.6719 48.3281
Q17.8281 56 27.875 56
Q33.9375 56 38.2812 53.6094
Q42.625 51.2188 45.4062 46.3906
L45.4062 54.6875
L54.3906 54.6875
z
" id="DejaVuSans-67"/>
      <path d="
M34.2812 27.4844
Q23.3906 27.4844 19.1875 25
Q14.9844 22.5156 14.9844 16.5
Q14.9844 11.7188 18.1406 8.90625
Q21.2969 6.10938 26.7031 6.10938
Q34.1875 6.10938 38.7031 11.4062
Q43.2188 16.7031 43.2188 25.4844
L43.2188 27.4844
z

M52.2031 31.2031
L52.2031 0
L43.2188 0
L43.2188 8.29688
Q40.1406 3.32812 35.5469 0.953125
Q30.9531 -1.42188 24.3125 -1.42188
Q15.9219 -1.42188 10.9531 3.29688
Q6 8.01562 6 15.9219
Q6 25.1406 12.1719 29.8281
Q18.3594 34.5156 30.6094 34.5156
L43.2188 34.5156
L43.2188 35.4062
Q43.2188 41.6094 39.1406 45
Q35.0625 48.3906 27.6875 48.3906
Q23 48.3906 18.5469 47.2656
Q14.1094 46.1406 10.0156 43.8906
L10.0156 52.2031
Q14.9375 54.1094 19.5781 55.0469
Q24.2188 56 28.6094 56
Q40.4844 56 46.3438 49.8438
Q52.2031 43.7031 52.2031 31.2031" id="DejaVuSans-61"/>
      <path d="
M18.3125 70.2188
L18.3125 54.6875
L36.8125 54.6875
L36.8125 47.7031
L18.3125 47.7031
L18.3125 18.0156
Q18.3125 11.3281 20.1406 9.42188
Q21.9688 7.51562 27.5938 7.51562
L36.8125 7.51562
L36.8125 0
L27.5938 0
Q17.1875 0 13.2344 3.875
Q9.28125 7.76562 9.28125 18.0156
L9.28125 47.7031
L2.6875 47.7031
L2.6875 54.6875
L9.28125 54.6875
L9.28125 70.2188
z
" id="DejaVuSans-74"/>
      <path d="
M41.1094 46.2969
Q39.5938 47.1719 37.8125 47.5781
Q36.0312 48 33.8906 48
Q26.2656 48 22.1875 43.0469
Q18.1094 38.0938 18.1094 28.8125
L18.1094 0
L9.07812 0
L9.07812 54.6875
L18.1094 54.6875
L18.1094 46.1875
Q20.9531 51.1719 25.4844 53.5781
Q30.0312 56 36.5312 56
Q37.4531 56 38.5781 55.875
Q39.7031 55.7656 41.0625 55.5156
z
" id="DejaVuSans-72"/>
     </defs>
     <g transform="translate(49.30328125 105.1625)scale(0.1 -0.1)">
      <use xlink:href="#DejaVuSans-4c"/>
      <use x="53.962890625" xlink:href="#DejaVuSans-6f"/>
      <use x="115.14453125" xlink:href="#DejaVuSans-67"/>
      <use x="178.62109375" xlink:href="#DejaVuSans-20"/>
      <use x="210.408203125" xlink:href="#DejaVuSans-66"/>
      <use x="245.61328125" xlink:href="#DejaVuSans-69"/>
      <use x="273.396484375" xlink:href="#DejaVuSans-72"/>
      <use x="314.509765625" xlink:href="#DejaVuSans-69"/>
      <use x="342.29296875" xlink:href="#DejaVuSans-6e"/>
      <use x="405.671875" xlink:href="#DejaVuSans-67"/>
      <use x="469.1484375" xlink:href="#DejaVuSans-20"/>
      <use x="500.935546875" xlink:href="#DejaVuSans-72"/>
      <use x="542.048828125" xlink:href="#DejaVuSans-61"/>
      <use x="603.328125" xlink:href="#DejaVuSans-74"/>
      <use x="642.537109375" xlink:href="#DejaVuSans-65"/>
     </g>
    </g>
   </g>
   <g id="matplotlib.axis_2">
    <g id="ytick_1">
     <g id="line2d_7">
      <defs>
       <path d="
M0 0
L4 0" id="me8a85f7bf6" style="stroke:#000000;stroke-linecap:butt;stroke-width:0.5;"/>
      </defs>
      <g>
       <use style="stroke:#000000;stroke-linecap:butt;stroke-width:0.5;" x="37.44" xlink:href="#me8a85f7bf6" y="81.0"/>
      </g>
     </g>
     <g id="text_8">
      <!-- 0.00 -->
      <defs>
       <path d="
M10.6875 12.4062
L21 12.4062
L21 0
L10.6875 0
z
" id="DejaVuSans-2e"/>
      </defs>
      <g transform="translate(12.4978125 84.63984375)scale(0.1 -0.1)">
       <use xlink:href="#DejaVuSans-30"/>
       <use x="63.623046875" xlink:href="#DejaVuSans-2e"/>
       <use x="95.41015625" xlink:href="#DejaVuSans-30"/>
       <use x="159.033203125" xlink:href="#DejaVuSans-30"/>
      </g>
     </g>
    </g>
    <g id="ytick_2">
     <g id="line2d_8">
      <g>
       <use style="stroke:#000000;stroke-linecap:butt;stroke-width:0.5;" x="37.44" xlink:href="#me8a85f7bf6" y="57.6"/>
      </g>
     </g>
     <g id="text_9">
      <!-- 0.15 -->
      <defs>
       <path d="
M12.4062 8.29688
L28.5156 8.29688
L28.5156 63.9219
L10.9844 60.4062
L10.9844 69.3906
L28.4219 72.9062
L38.2812 72.9062
L38.2812 8.29688
L54.3906 8.29688
L54.3906 0
L12.4062 0
z
" id="DejaVuSans-31"/>
       <path d="
M10.7969 72.9062
L49.5156 72.9062
L49.5156 64.5938
L19.8281 64.5938
L19.8281 46.7344
Q21.9688 47.4688 24.1094 47.8281
Q26.2656 48.1875 28.4219 48.1875
Q40.625 48.1875 47.75 41.5
Q54.8906 34.8125 54.8906 23.3906
Q54.8906 11.625 47.5625 5.09375
Q40.2344 -1.42188 26.9062 -1.42188
Q22.3125 -1.42188 17.5469 -0.640625
Q12.7969 0.140625 7.71875 1.70312
L7.71875 11.625
Q12.1094 9.23438 16.7969 8.0625
Q21.4844 6.89062 26.7031 6.89062
Q35.1562 6.89062 40.0781 11.3281
Q45.0156 15.7656 45.0156 23.3906
Q45.0156 31 40.0781 35.4375
Q35.1562 39.8906 26.7031 39.8906
Q22.75 39.8906 18.8125 39.0156
Q14.8906 38.1406 10.7969 36.2812
z
" id="DejaVuSans-35"/>
      </defs>
      <g transform="translate(12.7071875 61.23984375)scale(0.1 -0.1)">
       <use xlink:href="#DejaVuSans-30"/>
       <use x="63.623046875" xlink:href="#DejaVuSans-2e"/>
       <use x="95.41015625" xlink:href="#DejaVuSans-31"/>
       <use x="159.033203125" xlink:href="#DejaVuSans-35"/>
      </g>
     </g>
    </g>
    <g id="ytick_3">
     <g id="line2d_9">
      <g>
       <use style="stroke:#000000;stroke-linecap:butt;stroke-width:0.5;" x="37.44" xlink:href="#me8a85f7bf6" y="34.2"/>
      </g>
     </g>
     <g id="text_10">
      <!-- 0.30 -->
      <defs>
       <path d="
M40.5781 39.3125
Q47.6562 37.7969 51.625 33
Q55.6094 28.2188 55.6094 21.1875
Q55.6094 10.4062 48.1875 4.48438
Q40.7656 -1.42188 27.0938 -1.42188
Q22.5156 -1.42188 17.6562 -0.515625
Q12.7969 0.390625 7.625 2.20312
L7.625 11.7188
Q11.7188 9.32812 16.5938 8.10938
Q21.4844 6.89062 26.8125 6.89062
Q36.0781 6.89062 40.9375 10.5469
Q45.7969 14.2031 45.7969 21.1875
Q45.7969 27.6406 41.2812 31.2656
Q36.7656 34.9062 28.7188 34.9062
L20.2188 34.9062
L20.2188 43.0156
L29.1094 43.0156
Q36.375 43.0156 40.2344 45.9219
Q44.0938 48.8281 44.0938 54.2969
Q44.0938 59.9062 40.1094 62.9062
Q36.1406 65.9219 28.7188 65.9219
Q24.6562 65.9219 20.0156 65.0312
Q15.375 64.1562 9.8125 62.3125
L9.8125 71.0938
Q15.4375 72.6562 20.3438 73.4375
Q25.25 74.2188 29.5938 74.2188
Q40.8281 74.2188 47.3594 69.1094
Q53.9062 64.0156 53.9062 55.3281
Q53.9062 49.2656 50.4375 45.0938
Q46.9688 40.9219 40.5781 39.3125" id="DejaVuSans-33"/>
      </defs>
      <g transform="translate(12.4978125 37.83984375)scale(0.1 -0.1)">
       <use xlink:href="#DejaVuSans-30"/>
       <use x="63.623046875" xlink:href="#DejaVuSans-2e"/>
       <use x="95.41015625" xlink:href="#DejaVuSans-33"/>
       <use x="159.033203125" xlink:href="#DejaVuSans-30"/>
      </g>
     </g>
    </g>
    <g id="ytick_4">
     <g id="line2d_10">
      <g>
       <use style="stroke:#000000;stroke-linecap:butt;stroke-width:0.5;" x="37.44" xlink:href="#me8a85f7bf6" y="10.8"/>
      </g>
     </g>
     <g id="text_11">
      <!-- 0.45 -->
      <g transform="translate(12.7071875 14.43984375)scale(0.1 -0.1)">
       <use xlink:href="#DejaVuSans-30"/>
       <use x="63.623046875" xlink:href="#DejaVuSans-2e"/>
       <use x="95.41015625" xlink:href="#DejaVuSans-34"/>
       <use x="159.033203125" xlink:href="#DejaVuSans-35"/>
      </g>
     </g>
    </g>
    <g id="text_12">
     <!-- Count -->
     <defs>
      <path d="
M8.5 21.5781
L8.5 54.6875
L17.4844 54.6875
L17.4844 21.9219
Q17.4844 14.1562 20.5 10.2656
Q23.5312 6.39062 29.5938 6.39062
Q36.8594 6.39062 41.0781 11.0312
Q45.3125 15.6719 45.3125 23.6875
L45.3125 54.6875
L54.2969 54.6875
L54.2969 0
L45.3125 0
L45.3125 8.40625
Q42.0469 3.42188 37.7188 1
Q33.4062 -1.42188 27.6875 -1.42188
Q18.2656 -1.42188 13.375 4.4375
Q8.5 10.2969 8.5 21.5781
M31.1094 56
z
" id="DejaVuSans-75"/>
      <path d="
M64.4062 67.2812
L64.4062 56.8906
Q59.4219 61.5312 53.7812 63.8125
Q48.1406 66.1094 41.7969 66.1094
Q29.2969 66.1094 22.6562 58.4688
Q16.0156 50.8281 16.0156 36.375
Q16.0156 21.9688 22.6562 14.3281
Q29.2969 6.6875 41.7969 6.6875
Q48.1406 6.6875 53.7812 8.98438
Q59.4219 11.2812 64.4062 15.9219
L64.4062 5.60938
Q59.2344 2.09375 53.4375 0.328125
Q47.6562 -1.42188 41.2188 -1.42188
Q24.6562 -1.42188 15.125 8.70312
Q5.60938 18.8438 5.60938 36.375
Q5.60938 53.9531 15.125 64.0781
Q24.6562 74.2188 41.2188 74.2188
Q47.75 74.2188 53.5312 72.4844
Q59.3281 70.75 64.4062 67.2812" id="DejaVuSans-43"/>
     </defs>
     <g transform="translate(7.4978125 60.20625)rotate(-90.0)scale(0.1 -0.1)">
      <use xlink:href="#DejaVuSans-43"/>
      <use x="69.82421875" xlink:href="#DejaVuSans-6f"/>
      <use x="131.005859375" xlink:href="#DejaVuSans-75"/>
      <use x="194.384765625" xlink:href="#DejaVuSans-6e"/>
      <use x="257.763671875" xlink:href="#DejaVuSans-74"/>
     </g>
    </g>
   </g>
   <g id="patch_7">
    <path d="
M37.44 81
L131.04 81" style="fill:none;stroke:#000000;stroke-width:0.5;"/>
   </g>
   <g id="patch_8">
    <path d="
M37.44 81
L37.44 10.8" style="fill:none;stroke:#000000;stroke-width:0.5;"/>
   </g>
  </g>
 </g>
 <defs>
  <clipPath id="pd1317ff781">
   <rect height="70.2" width="93.6" x="37.44" y="10.8"/>
  </clipPath>
 </defs>
</svg>
