<?xml version="1.0" encoding="utf-8" standalone="no"?>
<!DOCTYPE svg PUBLIC "-//W3C//DTD SVG 1.1//EN"
  "http://www.w3.org/Graphics/SVG/1.1/DTD/svg11.dtd">
<!-- Created with matplotlib (http://matplotlib.sourceforge.net/) -->
<svg height="108pt" version="1.1" viewBox="0 0 144 108" width="144pt" xmlns="http://www.w3.org/2000/svg" xmlns:xlink="http://www.w3.org/1999/xlink">
 <defs>
  <style type="text/css">
*{stroke-linecap:square;stroke-linejoin:round;}
  </style>
 </defs>
 <g id="figure_1">
  <g id="patch_1">
   <path d="
M0 108
L144 108
L144 0
L0 0
z
" style="fill:#ffffff;"/>
  </g>
  <g id="axes_1">
   <g id="patch_2">
    <path d="
M37.44 81
L131.04 81
L131.04 10.8
L37.44 10.8
z
" style="fill:#ffffff;"/>
   </g>
   <g id="patch_3">
    <path clip-path="url(#pd1317ff781)" d="
M32.9721 81
L32.9721 80.9134
L50.6701 80.9134
L50.6701 80.5668
L51.5129 80.5668
L51.5129 80.7401
L54.0412 80.8267
L54.0412 80.3936
L55.7267 80.3936
L55.7267 80.5668
L57.4122 80.5668
L57.4122 80.1337
L59.0978 80.1337
L59.0978 80.3936
L59.9405 80.3936
L59.9405 79.6139
L60.7833 79.6139
L60.7833 79.354
L62.4688 79.4406
L62.4688 79.5272
L63.3116 79.5272
L63.3116 78.7475
L65.8399 78.7475
L65.8399 78.2277
L66.6826 78.2277
L66.6826 77.448
L67.5254 77.448
L67.5254 77.0149
L68.3682 77.0149
L68.3682 76.4084
L70.0537 76.3218
L70.0537 76.2351
L70.8964 76.2351
L70.8964 74.849
L71.7392 74.849
L71.7392 73.203
L72.582 73.203
L72.582 73.3762
L74.2675 73.3762
L74.2675 71.6436
L75.1103 71.6436
L75.1103 70.5173
L75.953 70.5173
L75.953 66.099
L76.7958 66.099
L76.7958 67.1386
L77.6386 67.1386
L77.6386 64.7995
L78.4813 64.7995
L78.4813 61.0743
L79.3241 61.0743
L79.3241 61.7673
L80.1668 61.7673
L80.1668 60.3812
L81.0096 60.3812
L81.0096 56.4827
L81.8524 56.4827
L81.8524 57.0891
L82.6951 57.0891
L82.6951 53.0173
L83.5379 53.0173
L83.5379 48.6856
L84.3807 48.6856
L84.3807 44.9604
L85.2234 44.9604
L85.2234 42.2747
L86.0662 42.2747
L86.0662 41.3218
L86.9089 41.3218
L86.9089 38.7228
L87.7517 38.7228
L87.7517 36.8168
L88.5945 36.8168
L88.5945 34.7376
L89.4372 34.7376
L89.4372 29.2797
L90.28 29.2797
L90.28 30.8391
L91.1228 30.8391
L91.1228 24.6015
L91.9655 24.6015
L91.9655 19.0569
L92.8083 19.0569
L92.8083 25.6411
L93.651 25.6411
L93.651 20.0099
L94.4938 20.0099
L94.4938 17.2376
L95.3366 17.2376
L95.3366 21.9158
L96.1793 21.9158
L96.1793 14.2921
L97.0221 14.2921
L97.0221 18.3639
L97.8649 18.3639
L97.8649 22.6955
L98.7076 22.6955
L98.7076 24.6015
L99.5504 24.6015
L99.5504 25.6411
L100.393 25.6411
L100.393 30.4059
L101.236 30.4059
L101.236 29.1064
L102.079 29.1064
L102.079 32.8317
L102.921 32.8317
L102.921 36.1238
L103.764 36.1238
L103.764 42.5346
L104.607 42.5346
L104.607 43.2277
L105.45 43.2277
L105.45 51.0247
L106.292 51.0247
L106.292 52.151
L107.135 52.151
L107.135 58.4752
L107.978 58.4752
L107.978 62.8069
L108.821 62.8069
L108.821 66.0124
L109.664 66.0124
L109.664 70.2574
L110.506 70.2574
L110.506 73.7228
L111.349 73.7228
L111.349 75.7153
L112.192 75.7153
L112.192 77.6213
L113.035 77.6213
L113.035 78.0545
L113.877 78.0545
L113.877 78.7475
L114.72 78.7475
L114.72 79.7005
L115.563 79.7005
L115.563 80.5668
L117.248 80.4802
L117.248 81
L117.248 81" style="fill:none;stroke:#0000ff;stroke-width:0.5;"/>
   </g>
   <g id="patch_4">
    <path clip-path="url(#pd1317ff781)" d="
M42.1527 81
L42.1527 80.9046
L42.9178 80.9046
L42.9178 80.7137
L43.6829 80.7137
L43.6829 80.9046
L48.2738 80.8092
L48.2738 80.2366
L49.0389 80.2366
L49.0389 80.9046
L50.5692 80.8092
L50.5692 80.6183
L52.0994 80.7137
L52.0994 80.4275
L53.6297 80.4275
L53.6297 80.8092
L54.3948 80.8092
L54.3948 80.5229
L56.6902 80.4275
L56.6902 80.7137
L57.4554 80.7137
L57.4554 80.332
L58.9856 80.2366
L58.9856 79.2824
L59.7508 79.2824
L59.7508 80.1412
L60.5159 80.1412
L60.5159 79.9503
L61.281 79.9503
L61.281 78.9007
L62.0462 78.9007
L62.0462 79.3778
L62.8113 79.3778
L62.8113 79.0915
L64.3416 79.0915
L64.3416 78.7098
L65.1067 78.7098
L65.1067 78.1373
L66.637 78.2327
L66.637 77.7556
L67.4021 77.7556
L67.4021 76.9922
L68.1673 76.9922
L68.1673 76.5151
L68.9324 76.5151
L68.9324 75.4655
L69.6975 75.4655
L69.6975 73.7478
L70.4627 73.7478
L70.4627 75.6563
L71.2278 75.6563
L71.2278 73.7478
L71.9929 73.7478
L71.9929 72.2211
L72.7581 72.2211
L72.7581 72.6982
L73.5232 72.6982
L73.5232 71.076
L75.0535 71.1714
L75.0535 68.4041
L75.8186 68.4041
L75.8186 67.5453
L76.5837 67.5453
L76.5837 66.4957
L77.3489 66.4957
L77.3489 67.4499
L78.114 67.4499
L78.114 62.5833
L78.8791 62.5833
L78.8791 61.9153
L79.6443 61.9153
L79.6443 60.484
L80.4094 60.484
L80.4094 59.2435
L81.1745 59.2435
L81.1745 56.0945
L81.9397 56.0945
L81.9397 50.7508
L82.7048 50.7508
L82.7048 53.8998
L83.47 53.8998
L83.47 50.8462
L84.2351 50.8462
L84.2351 47.7927
L85.0002 47.7927
L85.0002 43.117
L85.7654 43.117
L85.7654 43.6895
L86.5305 43.6895
L86.5305 39.3955
L87.2956 39.3955
L87.2956 38.7275
L88.0608 38.7275
L88.0608 35.3877
L88.8259 35.3877
L88.8259 31.6662
L89.591 31.6662
L89.591 31.857
L90.3562 31.857
L90.3562 29.8531
L91.1213 29.8531
L91.1213 25.082
L91.8864 25.082
L91.8864 24.3186
L92.6516 24.3186
L92.6516 26.7042
L93.4167 26.7042
L93.4167 22.3147
L94.1818 22.3147
L94.1818 18.4978
L94.947 18.4978
L94.947 20.0245
L95.7121 20.0245
L95.7121 20.4062
L96.4772 20.4062
L96.4772 19.5474
L97.2424 19.5474
L97.2424 20.6925
L98.0075 20.6925
L98.0075 22.0284
L98.7726 22.0284
L98.7726 20.4062
L99.5378 20.4062
L99.5378 24.9865
L100.303 24.9865
L100.303 29.0897
L101.068 29.0897
L101.068 30.7119
L101.833 30.7119
L101.833 32.525
L102.598 32.525
L102.598 34.338
L103.363 34.338
L103.363 41.1131
L104.129 41.1131
L104.129 42.2582
L104.894 42.2582
L104.894 47.6019
L105.659 47.6019
L105.659 51.8959
L106.424 51.8959
L106.424 53.5181
L107.189 53.5181
L107.189 59.6252
L107.954 59.6252
L107.954 61.4382
L108.719 61.4382
L108.719 66.5911
L109.485 66.5911
L109.485 68.7858
L110.25 68.7858
L110.25 71.7439
L111.015 71.7439
L111.015 71.9348
L111.78 71.9348
L111.78 77.1831
L112.545 77.1831
L112.545 76.9922
L113.31 76.9922
L113.31 77.6602
L114.075 77.6602
L114.075 79.3778
L114.84 79.3778
L114.84 79.5687
L115.606 79.5687
L115.606 80.2366
L116.371 80.2366
L116.371 80.9046
L117.901 81
L117.901 80.7137
L118.666 80.7137
L118.666 81
L118.666 81" style="fill:none;stroke:#008000;stroke-width:0.5;"/>
   </g>
   <g id="patch_5">
    <path clip-path="url(#pd1317ff781)" d="
M43.2551 81
L43.2551 80.805
L44.0041 80.805
L44.0041 81
L44.753 81
L44.753 80.805
L47.7487 80.7075
L47.7487 81
L48.4977 81
L48.4977 80.7075
L50.7445 80.805
L50.7445 80.9025
L51.4934 80.9025
L51.4934 80.4151
L52.9913 80.4151
L52.9913 80.61
L54.4891 80.61
L54.4891 80.4151
L55.2381 80.4151
L55.2381 80.2201
L55.987 80.2201
L55.987 80.0251
L56.7359 80.0251
L56.7359 80.2201
L57.4849 80.2201
L57.4849 80.7075
L58.2338 80.7075
L58.2338 80.0251
L58.9827 80.0251
L58.9827 79.2452
L59.7316 79.2452
L59.7316 79.6352
L60.4806 79.6352
L60.4806 80.2201
L61.2295 80.2201
L61.2295 79.2452
L63.4763 79.1477
L63.4763 79.0502
L64.2252 79.0502
L64.2252 78.2703
L64.9742 78.2703
L64.9742 78.4653
L65.7231 78.4653
L65.7231 77.7829
L66.472 77.7829
L66.472 77.003
L67.221 77.003
L67.221 76.808
L67.9699 76.808
L67.9699 76.5156
L68.7188 76.5156
L68.7188 76.1256
L69.4678 76.1256
L69.4678 76.7105
L70.2167 76.7105
L70.2167 76.1256
L70.9656 76.1256
L70.9656 75.8332
L71.7146 75.8332
L71.7146 72.0311
L72.4635 72.0311
L72.4635 72.7136
L73.2124 72.7136
L73.2124 72.4211
L74.7103 72.5186
L74.7103 70.2764
L76.2082 70.1789
L76.2082 66.9618
L76.9571 66.9618
L76.9571 66.3769
L77.706 66.3769
L77.706 64.4271
L78.455 64.4271
L78.455 63.9397
L79.2039 63.9397
L79.2039 61.3075
L79.9528 61.3075
L79.9528 60.0402
L80.7018 60.0402
L80.7018 59.3578
L81.4507 59.3578
L81.4507 55.4583
L82.1996 55.4583
L82.1996 54.8733
L82.9486 54.8733
L82.9486 51.6562
L83.6975 51.6562
L83.6975 48.0492
L84.4464 48.0492
L84.4464 45.2221
L85.1954 45.2221
L85.1954 44.3447
L85.9443 44.3447
L85.9443 43.3698
L86.6932 43.3698
L86.6932 39.7627
L87.4422 39.7627
L87.4422 38.2029
L88.1911 38.2029
L88.1911 36.2532
L88.94 36.2532
L88.94 33.5235
L89.689 33.5235
L89.689 32.1587
L90.4379 32.1587
L90.4379 24.7497
L91.1868 24.7497
L91.1868 25.4321
L91.9358 25.4321
L91.9358 26.017
L92.6847 26.017
L92.6847 24.5547
L93.4336 24.5547
L93.4336 23.3848
L94.1826 23.3848
L94.1826 19.1929
L94.9315 19.1929
L94.9315 22.02
L95.6804 22.02
L95.6804 20.0703
L96.4294 20.0703
L96.4294 16.4632
L97.1783 16.4632
L97.1783 20.7527
L97.9272 20.7527
L97.9272 19.8753
L98.6762 19.8753
L98.6762 26.6994
L99.4251 26.6994
L99.4251 20.6552
L100.174 20.6552
L100.174 22.6049
L100.923 22.6049
L100.923 28.6492
L101.672 28.6492
L101.672 29.819
L102.421 29.819
L102.421 35.1808
L103.17 35.1808
L103.17 34.6934
L103.919 34.6934
L103.919 39.3728
L104.668 39.3728
L104.668 45.612
L105.417 45.612
L105.417 49.3165
L106.165 49.3165
L106.165 52.8261
L106.914 52.8261
L106.914 58.3829
L107.663 58.3829
L107.663 63.7447
L108.412 63.7447
L108.412 63.9397
L109.161 63.9397
L109.161 65.402
L109.91 65.402
L109.91 71.3487
L110.659 71.3487
L110.659 72.1286
L111.408 72.1286
L111.408 76.7105
L112.157 76.7105
L112.157 77.003
L112.906 77.003
L112.906 78.2703
L113.655 78.2703
L113.655 79.2452
L114.404 79.2452
L114.404 79.7327
L115.153 79.7327
L115.153 80.5126
L115.902 80.5126
L115.902 80.7075
L116.651 80.7075
L116.651 80.9025
L118.148 80.805
L118.148 81" style="fill:none;stroke:#ff0000;stroke-width:0.5;"/>
   </g>
   <g id="patch_6">
    <path clip-path="url(#pd1317ff781)" d="
M31.8697 81
L31.8697 80.9159
L46.6272 81
L46.6272 80.7477
L51.8357 80.8318
L51.8357 80.9159
L52.7038 80.9159
L52.7038 80.7477
L53.5719 80.7477
L53.5719 80.5795
L55.308 80.6636
L55.308 80.4113
L56.1761 80.4113
L56.1761 80.0748
L57.0442 80.0748
L57.0442 80.243
L57.9123 80.243
L57.9123 80.0748
L58.7804 80.0748
L58.7804 79.5702
L61.3847 79.5702
L61.3847 79.2338
L62.2527 79.2338
L62.2527 78.645
L63.1208 78.645
L63.1208 78.8973
L63.9889 78.8973
L63.9889 77.6357
L64.857 77.6357
L64.857 78.8132
L65.7251 78.8132
L65.7251 77.804
L66.5932 77.804
L66.5932 76.1218
L67.4613 76.1218
L67.4613 76.5424
L68.3294 76.5424
L68.3294 75.5331
L69.1974 75.5331
L69.1974 75.8695
L70.0655 75.8695
L70.0655 74.7761
L70.9336 74.7761
L70.9336 74.1033
L71.8017 74.1033
L71.8017 73.6828
L72.6698 73.6828
L72.6698 73.0099
L73.5379 73.0099
L73.5379 71.496
L74.406 71.496
L74.406 68.3841
L75.2741 68.3841
L75.2741 66.2814
L76.1421 66.2814
L76.1421 66.5337
L77.0102 66.5337
L77.0102 68.2999
L77.8783 68.2999
L77.8783 65.0198
L78.7464 65.0198
L78.7464 62.833
L79.6145 62.833
L79.6145 60.8986
L80.4826 60.8986
L80.4826 58.039
L81.3507 58.039
L81.3507 56.1045
L82.2188 56.1045
L82.2188 53.8337
L83.0868 53.8337
L83.0868 54.086
L83.9549 54.086
L83.9549 48.1985
L84.823 48.1985
L84.823 46.3482
L85.6911 46.3482
L85.6911 43.6568
L86.5592 43.6568
L86.5592 37.9376
L87.4273 37.9376
L87.4273 34.321
L88.2954 34.321
L88.2954 33.4799
L89.1635 33.4799
L89.1635 32.6389
L90.0316 32.6389
L90.0316 31.3773
L90.8996 31.3773
L90.8996 27.2561
L91.7677 27.2561
L91.7677 25.4898
L92.6358 25.4898
L92.6358 27.5925
L93.5039 27.5925
L93.5039 21.0322
L94.372 21.0322
L94.372 16.8269
L95.2401 16.8269
L95.2401 18.8454
L96.1082 18.8454
L96.1082 19.3501
L96.9763 19.3501
L96.9763 19.0137
L97.8443 19.0137
L97.8443 22.2938
L98.7124 22.2938
L98.7124 24.817
L99.5805 24.817
L99.5805 24.6488
L100.449 24.6488
L100.449 28.77
L101.317 28.77
L101.317 29.1064
L102.185 29.1064
L102.185 33.0594
L103.053 33.0594
L103.053 36.2554
L103.921 36.2554
L103.921 41.6383
L104.789 41.6383
L104.789 49.1237
L105.657 49.1237
L105.657 53.2449
L106.525 53.2449
L106.525 56.7774
L107.393 56.7774
L107.393 61.8238
L108.261 61.8238
L108.261 63.3377
L109.129 63.3377
L109.129 68.5523
L109.998 68.5523
L109.998 69.3092
L110.866 69.3092
L110.866 73.5986
L111.734 73.5986
L111.734 75.5331
L112.602 75.5331
L112.602 76.2059
L113.47 76.2059
L113.47 78.8973
L114.338 78.8973
L114.338 79.402
L115.206 79.402
L115.206 80.5795
L116.074 80.5795
L116.074 80.1589
L116.942 80.1589
L116.942 81
L117.81 81
L117.81 80.8318
L118.678 80.8318
L118.678 81
L118.678 81" style="fill:none;stroke:#00bfbf;stroke-width:0.5;"/>
   </g>
   <g id="matplotlib.axis_1">
    <g id="xtick_1">
     <g id="line2d_1">
      <defs>
       <path d="
M0 0
L0 -4" id="m0012dd4eef" style="stroke:#000000;stroke-linecap:butt;stroke-width:0.5;"/>
      </defs>
      <g>
       <use style="stroke:#000000;stroke-linecap:butt;stroke-width:0.5;" x="37.44" xlink:href="#m0012dd4eef" y="81.0"/>
      </g>
     </g>
     <g id="text_1">
      <!-- −4 -->
      <defs>
       <path d="
M37.7969 64.3125
L12.8906 25.3906
L37.7969 25.3906
z

M35.2031 72.9062
L47.6094 72.9062
L47.6094 25.3906
L58.0156 25.3906
L58.0156 17.1875
L47.6094 17.1875
L47.6094 0
L37.7969 0
L37.7969 17.1875
L4.89062 17.1875
L4.89062 26.7031
z
" id="DejaVuSans-34"/>
       <path d="
M10.5938 35.5
L73.1875 35.5
L73.1875 27.2031
L10.5938 27.2031
z
" id="DejaVuSans-2212"/>
      </defs>
      <g transform="translate(30.8790625 92.290625)scale(0.1 -0.1)">
       <use xlink:href="#DejaVuSans-2212"/>
       <use x="83.7890625" xlink:href="#DejaVuSans-34"/>
      </g>
     </g>
    </g>
    <g id="xtick_2">
     <g id="line2d_2">
      <g>
       <use style="stroke:#000000;stroke-linecap:butt;stroke-width:0.5;" x="56.16" xlink:href="#m0012dd4eef" y="81.0"/>
      </g>
     </g>
     <g id="text_2">
      <!-- −2 -->
      <defs>
       <path d="
M19.1875 8.29688
L53.6094 8.29688
L53.6094 0
L7.32812 0
L7.32812 8.29688
Q12.9375 14.1094 22.625 23.8906
Q32.3281 33.6875 34.8125 36.5312
Q39.5469 41.8438 41.4219 45.5312
Q43.3125 49.2188 43.3125 52.7812
Q43.3125 58.5938 39.2344 62.25
Q35.1562 65.9219 28.6094 65.9219
Q23.9688 65.9219 18.8125 64.3125
Q13.6719 62.7031 7.8125 59.4219
L7.8125 69.3906
Q13.7656 71.7812 18.9375 73
Q24.125 74.2188 28.4219 74.2188
Q39.75 74.2188 46.4844 68.5469
Q53.2188 62.8906 53.2188 53.4219
Q53.2188 48.9219 51.5312 44.8906
Q49.8594 40.875 45.4062 35.4062
Q44.1875 33.9844 37.6406 27.2188
Q31.1094 20.4531 19.1875 8.29688" id="DejaVuSans-32"/>
      </defs>
      <g transform="translate(49.819375 92.421875)scale(0.1 -0.1)">
       <use xlink:href="#DejaVuSans-2212"/>
       <use x="83.7890625" xlink:href="#DejaVuSans-32"/>
      </g>
     </g>
    </g>
    <g id="xtick_3">
     <g id="line2d_3">
      <g>
       <use style="stroke:#000000;stroke-linecap:butt;stroke-width:0.5;" x="74.88" xlink:href="#m0012dd4eef" y="81.0"/>
      </g>
     </g>
     <g id="text_3">
      <!-- 0 -->
      <defs>
       <path d="
M31.7812 66.4062
Q24.1719 66.4062 20.3281 58.9062
Q16.5 51.4219 16.5 36.375
Q16.5 21.3906 20.3281 13.8906
Q24.1719 6.39062 31.7812 6.39062
Q39.4531 6.39062 43.2812 13.8906
Q47.125 21.3906 47.125 36.375
Q47.125 51.4219 43.2812 58.9062
Q39.4531 66.4062 31.7812 66.4062
M31.7812 74.2188
Q44.0469 74.2188 50.5156 64.5156
Q56.9844 54.8281 56.9844 36.375
Q56.9844 17.9688 50.5156 8.26562
Q44.0469 -1.42188 31.7812 -1.42188
Q19.5312 -1.42188 13.0625 8.26562
Q6.59375 17.9688 6.59375 36.375
Q6.59375 54.8281 13.0625 64.5156
Q19.5312 74.2188 31.7812 74.2188" id="DejaVuSans-30"/>
      </defs>
      <g transform="translate(72.36046875 92.421875)scale(0.1 -0.1)">
       <use xlink:href="#DejaVuSans-30"/>
      </g>
     </g>
    </g>
    <g id="xtick_4">
     <g id="line2d_4">
      <g>
       <use style="stroke:#000000;stroke-linecap:butt;stroke-width:0.5;" x="93.6" xlink:href="#m0012dd4eef" y="81.0"/>
      </g>
     </g>
     <g id="text_4">
      <!-- 2 -->
      <g transform="translate(91.2859375 92.421875)scale(0.1 -0.1)">
       <use xlink:href="#DejaVuSans-32"/>
      </g>
     </g>
    </g>
    <g id="xtick_5">
     <g id="line2d_5">
      <g>
       <use style="stroke:#000000;stroke-linecap:butt;stroke-width:0.5;" x="112.32" xlink:href="#m0012dd4eef" y="81.0"/>
      </g>
     </g>
     <g id="text_5">
      <!-- 4 -->
      <g transform="translate(109.66375 92.290625)scale(0.1 -0.1)">
       <use xlink:href="#DejaVuSans-34"/>
      </g>
     </g>
    </g>
    <g id="xtick_6">
     <g id="line2d_6">
      <g>
       <use style="stroke:#000000;stroke-linecap:butt;stroke-width:0.5;" x="131.04" xlink:href="#m0012dd4eef" y="81.0"/>
      </g>
     </g>
     <g id="text_6">
      <!-- 6 -->
      <defs>
       <path d="
M33.0156 40.375
Q26.375 40.375 22.4844 35.8281
Q18.6094 31.2969 18.6094 23.3906
Q18.6094 15.5312 22.4844 10.9531
Q26.375 6.39062 33.0156 6.39062
Q39.6562 6.39062 43.5312 10.9531
Q47.4062 15.5312 47.4062 23.3906
Q47.4062 31.2969 43.5312 35.8281
Q39.6562 40.375 33.0156 40.375
M52.5938 71.2969
L52.5938 62.3125
Q48.875 64.0625 45.0938 64.9844
Q41.3125 65.9219 37.5938 65.9219
Q27.8281 65.9219 22.6719 59.3281
Q17.5312 52.7344 16.7969 39.4062
Q19.6719 43.6562 24.0156 45.9219
Q28.375 48.1875 33.5938 48.1875
Q44.5781 48.1875 50.9531 41.5156
Q57.3281 34.8594 57.3281 23.3906
Q57.3281 12.1562 50.6875 5.35938
Q44.0469 -1.42188 33.0156 -1.42188
Q20.3594 -1.42188 13.6719 8.26562
Q6.98438 17.9688 6.98438 36.375
Q6.98438 53.6562 15.1875 63.9375
Q23.3906 74.2188 37.2031 74.2188
Q40.9219 74.2188 44.7031 73.4844
Q48.4844 72.75 52.5938 71.2969" id="DejaVuSans-36"/>
      </defs>
      <g transform="translate(128.5228125 92.421875)scale(0.1 -0.1)">
       <use xlink:href="#DejaVuSans-36"/>
      </g>
     </g>
    </g>
    <g id="text_7">
     <!-- Log firing rates -->
     <defs>
      <path d="
M56.2031 29.5938
L56.2031 25.2031
L14.8906 25.2031
Q15.4844 15.9219 20.4844 11.0625
Q25.4844 6.20312 34.4219 6.20312
Q39.5938 6.20312 44.4531 7.46875
Q49.3125 8.73438 54.1094 11.2812
L54.1094 2.78125
Q49.2656 0.734375 44.1875 -0.34375
Q39.1094 -1.42188 33.8906 -1.42188
Q20.7969 -1.42188 13.1562 6.1875
Q5.51562 13.8125 5.51562 26.8125
Q5.51562 40.2344 12.7656 48.1094
Q20.0156 56 32.3281 56
Q43.3594 56 49.7812 48.8906
Q56.2031 41.7969 56.2031 29.5938
M47.2188 32.2344
Q47.125 39.5938 43.0938 43.9844
Q39.0625 48.3906 32.4219 48.3906
Q24.9062 48.3906 20.3906 44.1406
Q15.875 39.8906 15.1875 32.1719
z
" id="DejaVuSans-65"/>
      <path d="
M9.8125 72.9062
L19.6719 72.9062
L19.6719 8.29688
L55.1719 8.29688
L55.1719 0
L9.8125 0
z
" id="DejaVuSans-4c"/>
      <path d="
M30.6094 48.3906
Q23.3906 48.3906 19.1875 42.75
Q14.9844 37.1094 14.9844 27.2969
Q14.9844 17.4844 19.1562 11.8438
Q23.3438 6.20312 30.6094 6.20312
Q37.7969 6.20312 41.9844 11.8594
Q46.1875 17.5312 46.1875 27.2969
Q46.1875 37.0156 41.9844 42.7031
Q37.7969 48.3906 30.6094 48.3906
M30.6094 56
Q42.3281 56 49.0156 48.375
Q55.7188 40.7656 55.7188 27.2969
Q55.7188 13.875 49.0156 6.21875
Q42.3281 -1.42188 30.6094 -1.42188
Q18.8438 -1.42188 12.1719 6.21875
Q5.51562 13.875 5.51562 27.2969
Q5.51562 40.7656 12.1719 48.375
Q18.8438 56 30.6094 56" id="DejaVuSans-6f"/>
      <path d="
M54.8906 33.0156
L54.8906 0
L45.9062 0
L45.9062 32.7188
Q45.9062 40.4844 42.875 44.3281
Q39.8438 48.1875 33.7969 48.1875
Q26.5156 48.1875 22.3125 43.5469
Q18.1094 38.9219 18.1094 30.9062
L18.1094 0
L9.07812 0
L9.07812 54.6875
L18.1094 54.6875
L18.1094 46.1875
Q21.3438 51.125 25.7031 53.5625
Q30.0781 56 35.7969 56
Q45.2188 56 50.0469 50.1719
Q54.8906 44.3438 54.8906 33.0156" id="DejaVuSans-6e"/>
      <path id="DejaVuSans-20"/>
      <path d="
M44.2812 53.0781
L44.2812 44.5781
Q40.4844 46.5312 36.375 47.5
Q32.2812 48.4844 27.875 48.4844
Q21.1875 48.4844 17.8438 46.4375
Q14.5 44.3906 14.5 40.2812
Q14.5 37.1562 16.8906 35.375
Q19.2812 33.5938 26.5156 31.9844
L29.5938 31.2969
Q39.1562 29.25 43.1875 25.5156
Q47.2188 21.7812 47.2188 15.0938
Q47.2188 7.46875 41.1875 3.01562
Q35.1562 -1.42188 24.6094 -1.42188
Q20.2188 -1.42188 15.4531 -0.5625
Q10.6875 0.296875 5.42188 2
L5.42188 11.2812
Q10.4062 8.6875 15.2344 7.39062
Q20.0625 6.10938 24.8125 6.10938
Q31.1562 6.10938 34.5625 8.28125
Q37.9844 10.4531 37.9844 14.4062
Q37.9844 18.0625 35.5156 20.0156
Q33.0625 21.9688 24.7031 23.7812
L21.5781 24.5156
Q13.2344 26.2656 9.51562 29.9062
Q5.8125 33.5469 5.8125 39.8906
Q5.8125 47.6094 11.2812 51.7969
Q16.75 56 26.8125 56
Q31.7812 56 36.1719 55.2656
Q40.5781 54.5469 44.2812 53.0781" id="DejaVuSans-73"/>
      <path d="
M9.42188 54.6875
L18.4062 54.6875
L18.4062 0
L9.42188 0
z

M9.42188 75.9844
L18.4062 75.9844
L18.4062 64.5938
L9.42188 64.5938
z
" id="DejaVuSans-69"/>
      <path d="
M37.1094 75.9844
L37.1094 68.5
L28.5156 68.5
Q23.6875 68.5 21.7969 66.5469
Q19.9219 64.5938 19.9219 59.5156
L19.9219 54.6875
L34.7188 54.6875
L34.7188 47.7031
L19.9219 47.7031
L19.9219 0
L10.8906 0
L10.8906 47.7031
L2.29688 47.7031
L2.29688 54.6875
L10.8906 54.6875
L10.8906 58.5
Q10.8906 67.625 15.1406 71.7969
Q19.3906 75.9844 28.6094 75.9844
z
" id="DejaVuSans-66"/>
      <path d="
M45.4062 27.9844
Q45.4062 37.75 41.375 43.1094
Q37.3594 48.4844 30.0781 48.4844
Q22.8594 48.4844 18.8281 43.1094
Q14.7969 37.75 14.7969 27.9844
Q14.7969 18.2656 18.8281 12.8906
Q22.8594 7.51562 30.0781 7.51562
Q37.3594 7.51562 41.375 12.8906
Q45.4062 18.2656 45.4062 27.9844
M54.3906 6.78125
Q54.3906 -7.17188 48.1875 -13.9844
Q42 -20.7969 29.2031 -20.7969
Q24.4688 -20.7969 20.2656 -20.0938
Q16.0625 -19.3906 12.1094 -17.9219
L12.1094 -9.1875
Q16.0625 -11.3281 19.9219 -12.3438
Q23.7812 -13.375 27.7812 -13.375
Q36.625 -13.375 41.0156 -8.76562
Q45.4062 -4.15625 45.4062 5.17188
L45.4062 9.625
Q42.625 4.78125 38.2812 2.39062
Q33.9375 0 27.875 0
Q17.8281 0 11.6719 7.65625
Q5.51562 15.3281 5.51562 27.9844
Q5.51562 40.6719 11.6719 48.3281
Q17.8281 56 27.875 56
Q33.9375 56 38.2812 53.6094
Q42.625 51.2188 45.4062 46.3906
L45.4062 54.6875
L54.3906 54.6875
z
" id="DejaVuSans-67"/>
      <path d="
M34.2812 27.4844
Q23.3906 27.4844 19.1875 25
Q14.9844 22.5156 14.9844 16.5
Q14.9844 11.7188 18.1406 8.90625
Q21.2969 6.10938 26.7031 6.10938
Q34.1875 6.10938 38.7031 11.4062
Q43.2188 16.7031 43.2188 25.4844
L43.2188 27.4844
z

M52.2031 31.2031
L52.2031 0
L43.2188 0
L43.2188 8.29688
Q40.1406 3.32812 35.5469 0.953125
Q30.9531 -1.42188 24.3125 -1.42188
Q15.9219 -1.42188 10.9531 3.29688
Q6 8.01562 6 15.9219
Q6 25.1406 12.1719 29.8281
Q18.3594 34.5156 30.6094 34.5156
L43.2188 34.5156
L43.2188 35.4062
Q43.2188 41.6094 39.1406 45
Q35.0625 48.3906 27.6875 48.3906
Q23 48.3906 18.5469 47.2656
Q14.1094 46.1406 10.0156 43.8906
L10.0156 52.2031
Q14.9375 54.1094 19.5781 55.0469
Q24.2188 56 28.6094 56
Q40.4844 56 46.3438 49.8438
Q52.2031 43.7031 52.2031 31.2031" id="DejaVuSans-61"/>
      <path d="
M18.3125 70.2188
L18.3125 54.6875
L36.8125 54.6875
L36.8125 47.7031
L18.3125 47.7031
L18.3125 18.0156
Q18.3125 11.3281 20.1406 9.42188
Q21.9688 7.51562 27.5938 7.51562
L36.8125 7.51562
L36.8125 0
L27.5938 0
Q17.1875 0 13.2344 3.875
Q9.28125 7.76562 9.28125 18.0156
L9.28125 47.7031
L2.6875 47.7031
L2.6875 54.6875
L9.28125 54.6875
L9.28125 70.2188
z
" id="DejaVuSans-74"/>
      <path d="
M41.1094 46.2969
Q39.5938 47.1719 37.8125 47.5781
Q36.0312 48 33.8906 48
Q26.2656 48 22.1875 43.0469
Q18.1094 38.0938 18.1094 28.8125
L18.1094 0
L9.07812 0
L9.07812 54.6875
L18.1094 54.6875
L18.1094 46.1875
Q20.9531 51.1719 25.4844 53.5781
Q30.0312 56 36.5312 56
Q37.4531 56 38.5781 55.875
Q39.7031 55.7656 41.0625 55.5156
z
" id="DejaVuSans-72"/>
     </defs>
     <g transform="translate(46.6759375 105.1625)scale(0.1 -0.1)">
      <use xlink:href="#DejaVuSans-4c"/>
      <use x="53.962890625" xlink:href="#DejaVuSans-6f"/>
      <use x="115.14453125" xlink:href="#DejaVuSans-67"/>
      <use x="178.62109375" xlink:href="#DejaVuSans-20"/>
      <use x="210.408203125" xlink:href="#DejaVuSans-66"/>
      <use x="245.61328125" xlink:href="#DejaVuSans-69"/>
      <use x="273.396484375" xlink:href="#DejaVuSans-72"/>
      <use x="314.509765625" xlink:href="#DejaVuSans-69"/>
      <use x="342.29296875" xlink:href="#DejaVuSans-6e"/>
      <use x="405.671875" xlink:href="#DejaVuSans-67"/>
      <use x="469.1484375" xlink:href="#DejaVuSans-20"/>
      <use x="500.935546875" xlink:href="#DejaVuSans-72"/>
      <use x="542.048828125" xlink:href="#DejaVuSans-61"/>
      <use x="603.328125" xlink:href="#DejaVuSans-74"/>
      <use x="642.537109375" xlink:href="#DejaVuSans-65"/>
      <use x="704.060546875" xlink:href="#DejaVuSans-73"/>
     </g>
    </g>
   </g>
   <g id="matplotlib.axis_2">
    <g id="ytick_1">
     <g id="line2d_7">
      <defs>
       <path d="
M0 0
L4 0" id="me8a85f7bf6" style="stroke:#000000;stroke-linecap:butt;stroke-width:0.5;"/>
      </defs>
      <g>
       <use style="stroke:#000000;stroke-linecap:butt;stroke-width:0.5;" x="37.44" xlink:href="#me8a85f7bf6" y="81.0"/>
      </g>
     </g>
     <g id="text_8">
      <!-- 0.00 -->
      <defs>
       <path d="
M10.6875 12.4062
L21 12.4062
L21 0
L10.6875 0
z
" id="DejaVuSans-2e"/>
      </defs>
      <g transform="translate(12.4978125 84.63984375)scale(0.1 -0.1)">
       <use xlink:href="#DejaVuSans-30"/>
       <use x="63.623046875" xlink:href="#DejaVuSans-2e"/>
       <use x="95.41015625" xlink:href="#DejaVuSans-30"/>
       <use x="159.033203125" xlink:href="#DejaVuSans-30"/>
      </g>
     </g>
    </g>
    <g id="ytick_2">
     <g id="line2d_8">
      <g>
       <use style="stroke:#000000;stroke-linecap:butt;stroke-width:0.5;" x="37.44" xlink:href="#me8a85f7bf6" y="57.6"/>
      </g>
     </g>
     <g id="text_9">
      <!-- 0.15 -->
      <defs>
       <path d="
M12.4062 8.29688
L28.5156 8.29688
L28.5156 63.9219
L10.9844 60.4062
L10.9844 69.3906
L28.4219 72.9062
L38.2812 72.9062
L38.2812 8.29688
L54.3906 8.29688
L54.3906 0
L12.4062 0
z
" id="DejaVuSans-31"/>
       <path d="
M10.7969 72.9062
L49.5156 72.9062
L49.5156 64.5938
L19.8281 64.5938
L19.8281 46.7344
Q21.9688 47.4688 24.1094 47.8281
Q26.2656 48.1875 28.4219 48.1875
Q40.625 48.1875 47.75 41.5
Q54.8906 34.8125 54.8906 23.3906
Q54.8906 11.625 47.5625 5.09375
Q40.2344 -1.42188 26.9062 -1.42188
Q22.3125 -1.42188 17.5469 -0.640625
Q12.7969 0.140625 7.71875 1.70312
L7.71875 11.625
Q12.1094 9.23438 16.7969 8.0625
Q21.4844 6.89062 26.7031 6.89062
Q35.1562 6.89062 40.0781 11.3281
Q45.0156 15.7656 45.0156 23.3906
Q45.0156 31 40.0781 35.4375
Q35.1562 39.8906 26.7031 39.8906
Q22.75 39.8906 18.8125 39.0156
Q14.8906 38.1406 10.7969 36.2812
z
" id="DejaVuSans-35"/>
      </defs>
      <g transform="translate(12.7071875 61.23984375)scale(0.1 -0.1)">
       <use xlink:href="#DejaVuSans-30"/>
       <use x="63.623046875" xlink:href="#DejaVuSans-2e"/>
       <use x="95.41015625" xlink:href="#DejaVuSans-31"/>
       <use x="159.033203125" xlink:href="#DejaVuSans-35"/>
      </g>
     </g>
    </g>
    <g id="ytick_3">
     <g id="line2d_9">
      <g>
       <use style="stroke:#000000;stroke-linecap:butt;stroke-width:0.5;" x="37.44" xlink:href="#me8a85f7bf6" y="34.2"/>
      </g>
     </g>
     <g id="text_10">
      <!-- 0.30 -->
      <defs>
       <path d="
M40.5781 39.3125
Q47.6562 37.7969 51.625 33
Q55.6094 28.2188 55.6094 21.1875
Q55.6094 10.4062 48.1875 4.48438
Q40.7656 -1.42188 27.0938 -1.42188
Q22.5156 -1.42188 17.6562 -0.515625
Q12.7969 0.390625 7.625 2.20312
L7.625 11.7188
Q11.7188 9.32812 16.5938 8.10938
Q21.4844 6.89062 26.8125 6.89062
Q36.0781 6.89062 40.9375 10.5469
Q45.7969 14.2031 45.7969 21.1875
Q45.7969 27.6406 41.2812 31.2656
Q36.7656 34.9062 28.7188 34.9062
L20.2188 34.9062
L20.2188 43.0156
L29.1094 43.0156
Q36.375 43.0156 40.2344 45.9219
Q44.0938 48.8281 44.0938 54.2969
Q44.0938 59.9062 40.1094 62.9062
Q36.1406 65.9219 28.7188 65.9219
Q24.6562 65.9219 20.0156 65.0312
Q15.375 64.1562 9.8125 62.3125
L9.8125 71.0938
Q15.4375 72.6562 20.3438 73.4375
Q25.25 74.2188 29.5938 74.2188
Q40.8281 74.2188 47.3594 69.1094
Q53.9062 64.0156 53.9062 55.3281
Q53.9062 49.2656 50.4375 45.0938
Q46.9688 40.9219 40.5781 39.3125" id="DejaVuSans-33"/>
      </defs>
      <g transform="translate(12.4978125 37.83984375)scale(0.1 -0.1)">
       <use xlink:href="#DejaVuSans-30"/>
       <use x="63.623046875" xlink:href="#DejaVuSans-2e"/>
       <use x="95.41015625" xlink:href="#DejaVuSans-33"/>
       <use x="159.033203125" xlink:href="#DejaVuSans-30"/>
      </g>
     </g>
    </g>
    <g id="ytick_4">
     <g id="line2d_10">
      <g>
       <use style="stroke:#000000;stroke-linecap:butt;stroke-width:0.5;" x="37.44" xlink:href="#me8a85f7bf6" y="10.8"/>
      </g>
     </g>
     <g id="text_11">
      <!-- 0.45 -->
      <g transform="translate(12.7071875 14.43984375)scale(0.1 -0.1)">
       <use xlink:href="#DejaVuSans-30"/>
       <use x="63.623046875" xlink:href="#DejaVuSans-2e"/>
       <use x="95.41015625" xlink:href="#DejaVuSans-34"/>
       <use x="159.033203125" xlink:href="#DejaVuSans-35"/>
      </g>
     </g>
    </g>
    <g id="text_12">
     <!-- Count -->
     <defs>
      <path d="
M8.5 21.5781
L8.5 54.6875
L17.4844 54.6875
L17.4844 21.9219
Q17.4844 14.1562 20.5 10.2656
Q23.5312 6.39062 29.5938 6.39062
Q36.8594 6.39062 41.0781 11.0312
Q45.3125 15.6719 45.3125 23.6875
L45.3125 54.6875
L54.2969 54.6875
L54.2969 0
L45.3125 0
L45.3125 8.40625
Q42.0469 3.42188 37.7188 1
Q33.4062 -1.42188 27.6875 -1.42188
Q18.2656 -1.42188 13.375 4.4375
Q8.5 10.2969 8.5 21.5781
M31.1094 56
z
" id="DejaVuSans-75"/>
      <path d="
M64.4062 67.2812
L64.4062 56.8906
Q59.4219 61.5312 53.7812 63.8125
Q48.1406 66.1094 41.7969 66.1094
Q29.2969 66.1094 22.6562 58.4688
Q16.0156 50.8281 16.0156 36.375
Q16.0156 21.9688 22.6562 14.3281
Q29.2969 6.6875 41.7969 6.6875
Q48.1406 6.6875 53.7812 8.98438
Q59.4219 11.2812 64.4062 15.9219
L64.4062 5.60938
Q59.2344 2.09375 53.4375 0.328125
Q47.6562 -1.42188 41.2188 -1.42188
Q24.6562 -1.42188 15.125 8.70312
Q5.60938 18.8438 5.60938 36.375
Q5.60938 53.9531 15.125 64.0781
Q24.6562 74.2188 41.2188 74.2188
Q47.75 74.2188 53.5312 72.4844
Q59.3281 70.75 64.4062 67.2812" id="DejaVuSans-43"/>
     </defs>
     <g transform="translate(7.4978125 60.20625)rotate(-90.0)scale(0.1 -0.1)">
      <use xlink:href="#DejaVuSans-43"/>
      <use x="69.82421875" xlink:href="#DejaVuSans-6f"/>
      <use x="131.005859375" xlink:href="#DejaVuSans-75"/>
      <use x="194.384765625" xlink:href="#DejaVuSans-6e"/>
      <use x="257.763671875" xlink:href="#DejaVuSans-74"/>
     </g>
    </g>
   </g>
   <g id="patch_7">
    <path d="
M37.44 81
L131.04 81" style="fill:none;stroke:#000000;stroke-width:0.5;"/>
   </g>
   <g id="patch_8">
    <path d="
M37.44 81
L37.44 10.8" style="fill:none;stroke:#000000;stroke-width:0.5;"/>
   </g>
  </g>
 </g>
 <defs>
  <clipPath id="pd1317ff781">
   <rect height="70.2" width="93.6" x="37.44" y="10.8"/>
  </clipPath>
 </defs>
</svg>
