<?xml version="1.0" encoding="utf-8" standalone="no"?>
<!DOCTYPE svg PUBLIC "-//W3C//DTD SVG 1.1//EN"
  "http://www.w3.org/Graphics/SVG/1.1/DTD/svg11.dtd">
<!-- Created with matplotlib (http://matplotlib.sourceforge.net/) -->
<svg height="108pt" version="1.1" viewBox="0 0 144 108" width="144pt" xmlns="http://www.w3.org/2000/svg" xmlns:xlink="http://www.w3.org/1999/xlink">
 <defs>
  <style type="text/css">
*{stroke-linecap:square;stroke-linejoin:round;}
  </style>
 </defs>
 <g id="figure_1">
  <g id="patch_1">
   <path d="
M0 108
L144 108
L144 0
L0 0
z
" style="fill:#ffffff;"/>
  </g>
  <g id="axes_1">
   <g id="patch_2">
    <path d="
M37.44 81
L131.04 81
L131.04 10.8
L37.44 10.8
z
" style="fill:#ffffff;"/>
   </g>
   <g id="patch_3">
    <path clip-path="url(#pd1317ff781)" d="
M37.44 81
L37.44 80.9607
L39.2995 80.9607
L39.2995 81
L41.159 81
L41.159 80.9607
L43.0186 80.9607
L43.0186 80.7251
L44.8781 80.7251
L44.8781 81
L46.7376 81
L46.7376 80.9215
L48.5971 80.9215
L48.5971 80.7644
L50.4566 80.7644
L50.4566 80.0576
L52.3162 80.0576
L52.3162 78.8404
L54.1757 78.8404
L54.1757 76.9949
L56.0352 76.9949
L56.0352 73.461
L57.8947 73.461
L57.8947 72.872
L59.7542 72.872
L59.7542 68.9062
L61.6138 68.9062
L61.6138 66.511
L63.4733 66.511
L63.4733 64.4692
L65.3328 64.4692
L65.3328 64.1158
L67.1923 64.1158
L67.1923 60.2677
L69.0519 60.2677
L69.0519 59.7573
L70.9114 59.7573
L70.9114 56.616
L72.7709 56.616
L72.7709 56.616
L74.6304 56.616
L74.6304 55.4773
L76.4899 55.4773
L76.4899 55.5559
L78.3495 55.5559
L78.3495 53.0036
L80.209 53.0036
L80.209 52.3753
L82.0685 52.3753
L82.0685 52.8073
L83.928 52.8073
L83.928 51.8256
L85.7875 51.8256
L85.7875 53.357
L87.6471 53.357
L87.6471 51.7078
L89.5066 51.7078
L89.5066 51.3152
L91.3661 51.3152
L91.3661 54.4172
L93.2256 54.4172
L93.2256 54.2994
L95.0851 54.2994
L95.0851 55.3595
L96.9447 55.3595
L96.9447 56.3412
L98.8042 56.3412
L98.8042 56.1448
L100.664 56.1448
L100.664 56.459
L102.523 56.459
L102.523 58.1081
L104.383 58.1081
L104.383 60.5426
L106.242 60.5426
L106.242 60.4248
L108.102 60.4248
L108.102 61.1708
L109.961 61.1708
L109.961 61.5635
L111.821 61.5635
L111.821 62.6237
L113.68 62.6237
L113.68 64.2728
L115.54 64.2728
L115.54 65.6471
L117.399 65.6471
L117.399 68.8669
L119.259 68.8669
L119.259 69.7308
L121.118 69.7308
L121.118 71.0265
L122.978 71.0265
L122.978 73.6573
L124.837 73.6573
L124.837 74.8353
L126.697 74.8353
L126.697 77.0342
L128.557 77.0342
L128.557 78.9975
L130.416 78.9975
L130.416 81" style="fill:none;stroke:#0000ff;stroke-width:0.5;"/>
   </g>
   <g id="patch_4">
    <path clip-path="url(#pd1317ff781)" d="
M37.44 81
L37.44 80.922
L39.312 80.922
L39.312 81
L41.184 81
L41.184 80.961
L43.056 80.961
L43.056 81
L44.928 81
L44.928 80.883
L46.8 80.883
L46.8 80.805
L48.672 80.805
L48.672 80.61
L50.544 80.61
L50.544 79.9079
L52.416 79.9079
L52.416 78.2697
L54.288 78.2697
L54.288 76.7486
L56.16 76.7486
L56.16 73.5113
L58.032 73.5113
L58.032 70.937
L59.904 70.937
L59.904 70.703
L61.776 70.703
L61.776 65.7885
L63.648 65.7885
L63.648 64.1113
L65.52 64.1113
L65.52 61.5371
L67.392 61.5371
L67.392 60.2109
L69.264 60.2109
L69.264 58.6898
L71.136 58.6898
L71.136 57.1686
L73.008 57.1686
L73.008 55.2964
L74.88 55.2964
L74.88 52.6442
L76.752 52.6442
L76.752 54.5944
L78.624 54.5944
L78.624 55.1014
L80.496 55.1014
L80.496 54.9064
L82.368 54.9064
L82.368 51.9421
L84.24 51.9421
L84.24 52.6442
L86.112 52.6442
L86.112 52.1761
L87.984 52.1761
L87.984 51.5521
L89.856 51.5521
L89.856 54.2043
L91.728 54.2043
L91.728 53.6973
L93.6 53.6973
L93.6 55.4134
L95.472 55.4134
L95.472 54.9454
L97.344 54.9454
L97.344 54.2823
L99.216 54.2823
L99.216 57.6367
L101.088 57.6367
L101.088 56.9736
L102.96 56.9736
L102.96 56.8956
L104.832 56.8956
L104.832 59.0798
L106.704 59.0798
L106.704 58.4557
L108.576 58.4557
L108.576 62.3561
L110.448 62.3561
L110.448 63.6043
L112.32 63.6043
L112.32 62.9412
L114.192 62.9412
L114.192 65.5545
L116.064 65.5545
L116.064 67.4656
L117.936 67.4656
L117.936 69.2208
L119.808 69.2208
L119.808 70.547
L121.68 70.547
L121.68 72.2631
L123.552 72.2631
L123.552 75.1884
L125.424 75.1884
L125.424 75.9685
L127.296 75.9685
L127.296 78.6598
L129.168 78.6598
L129.168 80.0249
L131.04 80.0249
L131.04 81" style="fill:none;stroke:#008000;stroke-width:0.5;"/>
   </g>
   <g id="patch_5">
    <path clip-path="url(#pd1317ff781)" d="
M37.44 81
L37.44 80.9216
L39.3025 80.9216
L39.3025 81
L41.1651 81
L41.1651 80.9608
L43.0276 80.9608
L43.0276 80.9608
L44.8902 80.9608
L44.8902 80.8824
L46.7527 80.8824
L46.7527 80.7648
L48.6153 80.7648
L48.6153 80.5688
L50.4778 80.5688
L50.4778 80.1767
L52.3404 80.1767
L52.3404 78.6086
L54.2029 78.6086
L54.2029 76.3739
L56.0655 76.3739
L56.0655 74.4922
L57.928 74.4922
L57.928 71.6303
L59.7905 71.6303
L59.7905 69.5917
L61.6531 69.5917
L61.6531 65.5145
L63.5156 65.5145
L63.5156 64.456
L65.3782 64.456
L65.3782 63.1623
L67.2407 63.1623
L67.2407 59.1635
L69.1033 59.1635
L69.1033 57.9873
L70.9658 57.9873
L70.9658 57.3993
L72.8284 57.3993
L72.8284 57.0465
L74.6909 57.0465
L74.6909 53.5965
L76.5535 53.5965
L76.5535 56.184
L78.416 56.184
L78.416 51.6755
L80.2786 51.6755
L80.2786 55.5567
L82.1411 55.5567
L82.1411 53.0477
L84.0036 53.0477
L84.0036 52.8908
L85.8662 52.8908
L85.8662 53.7533
L87.7287 53.7533
L87.7287 54.067
L89.5913 54.067
L89.5913 51.9892
L91.4538 51.9892
L91.4538 51.0483
L93.3164 51.0483
L93.3164 54.8118
L95.1789 54.8118
L95.1789 53.4789
L97.0415 53.4789
L97.0415 54.5766
L98.904 54.5766
L98.904 55.4391
L100.767 55.4391
L100.767 55.3607
L102.629 55.3607
L102.629 57.3601
L104.492 57.3601
L104.492 58.7322
L106.354 58.7322
L106.354 59.9867
L108.217 59.9867
L108.217 61.5941
L110.079 61.5941
L110.079 62.3782
L111.942 62.3782
L111.942 65.1224
L113.804 65.1224
L113.804 63.9071
L115.667 63.9071
L115.667 67.5531
L117.529 67.5531
L117.529 70.2974
L119.392 70.2974
L119.392 70.0229
L121.255 70.0229
L121.255 72.6888
L123.117 72.6888
L123.117 73.7081
L124.98 73.7081
L124.98 75.9427
L126.842 75.9427
L126.842 77.7461
L128.705 77.7461
L128.705 79.8631
L130.567 79.8631
L130.567 81" style="fill:none;stroke:#ff0000;stroke-width:0.5;"/>
   </g>
   <g id="patch_6">
    <path clip-path="url(#pd1317ff781)" d="
M37.44 81
L37.44 80.8047
L39.3095 80.8047
L39.3095 80.9609
L41.1791 80.9609
L41.1791 81
L43.0486 81
L43.0486 80.8828
L44.9181 80.8828
L44.9181 80.9219
L46.7877 80.9219
L46.7877 80.7266
L48.6572 80.7266
L48.6572 80.3361
L50.5267 80.3361
L50.5267 79.5549
L52.3962 79.5549
L52.3962 78.5005
L54.2658 78.5005
L54.2658 76.8992
L56.1353 76.8992
L56.1353 74.1262
L58.0048 74.1262
L58.0048 71.7439
L59.8744 71.7439
L59.8744 69.3224
L61.7439 69.3224
L61.7439 65.6122
L63.6134 65.6122
L63.6134 62.3315
L65.483 62.3315
L65.483 61.3551
L67.3525 61.3551
L67.3525 61.0427
L69.222 61.0427
L69.222 57.5667
L71.0916 57.5667
L71.0916 57.3715
L72.9611 57.3715
L72.9611 56.1608
L74.8306 56.1608
L74.8306 53.7393
L76.7001 53.7393
L76.7001 52.4505
L78.5697 52.4505
L78.5697 54.5595
L80.4392 54.5595
L80.4392 54.247
L82.3087 54.247
L82.3087 53.0363
L84.1783 53.0363
L84.1783 54.3251
L86.0478 54.3251
L86.0478 51.8647
L87.9173 51.8647
L87.9173 52.0599
L89.7869 52.0599
L89.7869 52.9582
L91.6564 52.9582
L91.6564 52.6848
L93.5259 52.6848
L93.5259 54.247
L95.3954 54.247
L95.3954 53.1144
L97.265 53.1144
L97.265 57.059
L99.1345 57.059
L99.1345 55.1844
L101.004 55.1844
L101.004 57.8011
L102.874 57.8011
L102.874 57.059
L104.743 57.059
L104.743 59.168
L106.613 59.168
L106.613 62.0191
L108.482 62.0191
L108.482 61.6285
L110.352 61.6285
L110.352 62.8002
L112.221 62.8002
L112.221 64.2452
L114.091 64.2452
L114.091 66.3933
L115.96 66.3933
L115.96 67.7993
L117.83 67.7993
L117.83 68.9709
L119.699 68.9709
L119.699 70.5331
L121.569 70.5331
L121.569 72.8374
L123.438 72.8374
L123.438 74.1262
L125.308 74.1262
L125.308 76.4305
L127.177 76.4305
L127.177 78.3052
L129.047 78.3052
L129.047 80.1017
L130.917 80.1017
L130.917 81" style="fill:none;stroke:#00bfbf;stroke-width:0.5;"/>
   </g>
   <g id="matplotlib.axis_1">
    <g id="xtick_1">
     <g id="line2d_1">
      <defs>
       <path d="
M0 0
L0 -4" id="m0012dd4eef" style="stroke:#000000;stroke-linecap:butt;stroke-width:0.5;"/>
      </defs>
      <g>
       <use style="stroke:#000000;stroke-linecap:butt;stroke-width:0.5;" x="37.44" xlink:href="#m0012dd4eef" y="81.0"/>
      </g>
     </g>
     <g id="text_1">
      <!-- 0.0 -->
      <defs>
       <path d="
M31.7812 66.4062
Q24.1719 66.4062 20.3281 58.9062
Q16.5 51.4219 16.5 36.375
Q16.5 21.3906 20.3281 13.8906
Q24.1719 6.39062 31.7812 6.39062
Q39.4531 6.39062 43.2812 13.8906
Q47.125 21.3906 47.125 36.375
Q47.125 51.4219 43.2812 58.9062
Q39.4531 66.4062 31.7812 66.4062
M31.7812 74.2188
Q44.0469 74.2188 50.5156 64.5156
Q56.9844 54.8281 56.9844 36.375
Q56.9844 17.9688 50.5156 8.26562
Q44.0469 -1.42188 31.7812 -1.42188
Q19.5312 -1.42188 13.0625 8.26562
Q6.59375 17.9688 6.59375 36.375
Q6.59375 54.8281 13.0625 64.5156
Q19.5312 74.2188 31.7812 74.2188" id="DejaVuSans-30"/>
       <path d="
M10.6875 12.4062
L21 12.4062
L21 0
L10.6875 0
z
" id="DejaVuSans-2e"/>
      </defs>
      <g transform="translate(30.15015625 92.421875)scale(0.1 -0.1)">
       <use xlink:href="#DejaVuSans-30"/>
       <use x="63.623046875" xlink:href="#DejaVuSans-2e"/>
       <use x="95.41015625" xlink:href="#DejaVuSans-30"/>
      </g>
     </g>
    </g>
    <g id="xtick_2">
     <g id="line2d_2">
      <g>
       <use style="stroke:#000000;stroke-linecap:butt;stroke-width:0.5;" x="84.24" xlink:href="#m0012dd4eef" y="81.0"/>
      </g>
     </g>
     <g id="text_2">
      <!-- 0.5 -->
      <defs>
       <path d="
M10.7969 72.9062
L49.5156 72.9062
L49.5156 64.5938
L19.8281 64.5938
L19.8281 46.7344
Q21.9688 47.4688 24.1094 47.8281
Q26.2656 48.1875 28.4219 48.1875
Q40.625 48.1875 47.75 41.5
Q54.8906 34.8125 54.8906 23.3906
Q54.8906 11.625 47.5625 5.09375
Q40.2344 -1.42188 26.9062 -1.42188
Q22.3125 -1.42188 17.5469 -0.640625
Q12.7969 0.140625 7.71875 1.70312
L7.71875 11.625
Q12.1094 9.23438 16.7969 8.0625
Q21.4844 6.89062 26.7031 6.89062
Q35.1562 6.89062 40.0781 11.3281
Q45.0156 15.7656 45.0156 23.3906
Q45.0156 31 40.0781 35.4375
Q35.1562 39.8906 26.7031 39.8906
Q22.75 39.8906 18.8125 39.0156
Q14.8906 38.1406 10.7969 36.2812
z
" id="DejaVuSans-35"/>
      </defs>
      <g transform="translate(77.05484375 92.421875)scale(0.1 -0.1)">
       <use xlink:href="#DejaVuSans-30"/>
       <use x="63.623046875" xlink:href="#DejaVuSans-2e"/>
       <use x="95.41015625" xlink:href="#DejaVuSans-35"/>
      </g>
     </g>
    </g>
    <g id="xtick_3">
     <g id="line2d_3">
      <g>
       <use style="stroke:#000000;stroke-linecap:butt;stroke-width:0.5;" x="131.04" xlink:href="#m0012dd4eef" y="81.0"/>
      </g>
     </g>
     <g id="text_3">
      <!-- 1.0 -->
      <defs>
       <path d="
M12.4062 8.29688
L28.5156 8.29688
L28.5156 63.9219
L10.9844 60.4062
L10.9844 69.3906
L28.4219 72.9062
L38.2812 72.9062
L38.2812 8.29688
L54.3906 8.29688
L54.3906 0
L12.4062 0
z
" id="DejaVuSans-31"/>
      </defs>
      <g transform="translate(123.9696875 92.421875)scale(0.1 -0.1)">
       <use xlink:href="#DejaVuSans-31"/>
       <use x="63.623046875" xlink:href="#DejaVuSans-2e"/>
       <use x="95.41015625" xlink:href="#DejaVuSans-30"/>
      </g>
     </g>
    </g>
    <g id="text_4">
     <!-- Circular Variance -->
     <defs>
      <path d="
M54.8906 33.0156
L54.8906 0
L45.9062 0
L45.9062 32.7188
Q45.9062 40.4844 42.875 44.3281
Q39.8438 48.1875 33.7969 48.1875
Q26.5156 48.1875 22.3125 43.5469
Q18.1094 38.9219 18.1094 30.9062
L18.1094 0
L9.07812 0
L9.07812 54.6875
L18.1094 54.6875
L18.1094 46.1875
Q21.3438 51.125 25.7031 53.5625
Q30.0781 56 35.7969 56
Q45.2188 56 50.0469 50.1719
Q54.8906 44.3438 54.8906 33.0156" id="DejaVuSans-6e"/>
      <path d="
M64.4062 67.2812
L64.4062 56.8906
Q59.4219 61.5312 53.7812 63.8125
Q48.1406 66.1094 41.7969 66.1094
Q29.2969 66.1094 22.6562 58.4688
Q16.0156 50.8281 16.0156 36.375
Q16.0156 21.9688 22.6562 14.3281
Q29.2969 6.6875 41.7969 6.6875
Q48.1406 6.6875 53.7812 8.98438
Q59.4219 11.2812 64.4062 15.9219
L64.4062 5.60938
Q59.2344 2.09375 53.4375 0.328125
Q47.6562 -1.42188 41.2188 -1.42188
Q24.6562 -1.42188 15.125 8.70312
Q5.60938 18.8438 5.60938 36.375
Q5.60938 53.9531 15.125 64.0781
Q24.6562 74.2188 41.2188 74.2188
Q47.75 74.2188 53.5312 72.4844
Q59.3281 70.75 64.4062 67.2812" id="DejaVuSans-43"/>
      <path d="
M9.42188 75.9844
L18.4062 75.9844
L18.4062 0
L9.42188 0
z
" id="DejaVuSans-6c"/>
      <path d="
M28.6094 0
L0.78125 72.9062
L11.0781 72.9062
L34.1875 11.5312
L57.3281 72.9062
L67.5781 72.9062
L39.7969 0
z
" id="DejaVuSans-56"/>
      <path id="DejaVuSans-20"/>
      <path d="
M56.2031 29.5938
L56.2031 25.2031
L14.8906 25.2031
Q15.4844 15.9219 20.4844 11.0625
Q25.4844 6.20312 34.4219 6.20312
Q39.5938 6.20312 44.4531 7.46875
Q49.3125 8.73438 54.1094 11.2812
L54.1094 2.78125
Q49.2656 0.734375 44.1875 -0.34375
Q39.1094 -1.42188 33.8906 -1.42188
Q20.7969 -1.42188 13.1562 6.1875
Q5.51562 13.8125 5.51562 26.8125
Q5.51562 40.2344 12.7656 48.1094
Q20.0156 56 32.3281 56
Q43.3594 56 49.7812 48.8906
Q56.2031 41.7969 56.2031 29.5938
M47.2188 32.2344
Q47.125 39.5938 43.0938 43.9844
Q39.0625 48.3906 32.4219 48.3906
Q24.9062 48.3906 20.3906 44.1406
Q15.875 39.8906 15.1875 32.1719
z
" id="DejaVuSans-65"/>
      <path d="
M9.42188 54.6875
L18.4062 54.6875
L18.4062 0
L9.42188 0
z

M9.42188 75.9844
L18.4062 75.9844
L18.4062 64.5938
L9.42188 64.5938
z
" id="DejaVuSans-69"/>
      <path d="
M8.5 21.5781
L8.5 54.6875
L17.4844 54.6875
L17.4844 21.9219
Q17.4844 14.1562 20.5 10.2656
Q23.5312 6.39062 29.5938 6.39062
Q36.8594 6.39062 41.0781 11.0312
Q45.3125 15.6719 45.3125 23.6875
L45.3125 54.6875
L54.2969 54.6875
L54.2969 0
L45.3125 0
L45.3125 8.40625
Q42.0469 3.42188 37.7188 1
Q33.4062 -1.42188 27.6875 -1.42188
Q18.2656 -1.42188 13.375 4.4375
Q8.5 10.2969 8.5 21.5781
M31.1094 56
z
" id="DejaVuSans-75"/>
      <path d="
M34.2812 27.4844
Q23.3906 27.4844 19.1875 25
Q14.9844 22.5156 14.9844 16.5
Q14.9844 11.7188 18.1406 8.90625
Q21.2969 6.10938 26.7031 6.10938
Q34.1875 6.10938 38.7031 11.4062
Q43.2188 16.7031 43.2188 25.4844
L43.2188 27.4844
z

M52.2031 31.2031
L52.2031 0
L43.2188 0
L43.2188 8.29688
Q40.1406 3.32812 35.5469 0.953125
Q30.9531 -1.42188 24.3125 -1.42188
Q15.9219 -1.42188 10.9531 3.29688
Q6 8.01562 6 15.9219
Q6 25.1406 12.1719 29.8281
Q18.3594 34.5156 30.6094 34.5156
L43.2188 34.5156
L43.2188 35.4062
Q43.2188 41.6094 39.1406 45
Q35.0625 48.3906 27.6875 48.3906
Q23 48.3906 18.5469 47.2656
Q14.1094 46.1406 10.0156 43.8906
L10.0156 52.2031
Q14.9375 54.1094 19.5781 55.0469
Q24.2188 56 28.6094 56
Q40.4844 56 46.3438 49.8438
Q52.2031 43.7031 52.2031 31.2031" id="DejaVuSans-61"/>
      <path d="
M48.7812 52.5938
L48.7812 44.1875
Q44.9688 46.2969 41.1406 47.3438
Q37.3125 48.3906 33.4062 48.3906
Q24.6562 48.3906 19.8125 42.8438
Q14.9844 37.3125 14.9844 27.2969
Q14.9844 17.2812 19.8125 11.7344
Q24.6562 6.20312 33.4062 6.20312
Q37.3125 6.20312 41.1406 7.25
Q44.9688 8.29688 48.7812 10.4062
L48.7812 2.09375
Q45.0156 0.34375 40.9844 -0.53125
Q36.9688 -1.42188 32.4219 -1.42188
Q20.0625 -1.42188 12.7812 6.34375
Q5.51562 14.1094 5.51562 27.2969
Q5.51562 40.6719 12.8594 48.3281
Q20.2188 56 33.0156 56
Q37.1562 56 41.1094 55.1406
Q45.0625 54.2969 48.7812 52.5938" id="DejaVuSans-63"/>
      <path d="
M41.1094 46.2969
Q39.5938 47.1719 37.8125 47.5781
Q36.0312 48 33.8906 48
Q26.2656 48 22.1875 43.0469
Q18.1094 38.0938 18.1094 28.8125
L18.1094 0
L9.07812 0
L9.07812 54.6875
L18.1094 54.6875
L18.1094 46.1875
Q20.9531 51.1719 25.4844 53.5781
Q30.0312 56 36.5312 56
Q37.4531 56 38.5781 55.875
Q39.7031 55.7656 41.0625 55.5156
z
" id="DejaVuSans-72"/>
     </defs>
     <g transform="translate(42.06734375 105.1625)scale(0.1 -0.1)">
      <use xlink:href="#DejaVuSans-43"/>
      <use x="69.82421875" xlink:href="#DejaVuSans-69"/>
      <use x="97.607421875" xlink:href="#DejaVuSans-72"/>
      <use x="136.470703125" xlink:href="#DejaVuSans-63"/>
      <use x="191.451171875" xlink:href="#DejaVuSans-75"/>
      <use x="254.830078125" xlink:href="#DejaVuSans-6c"/>
      <use x="282.61328125" xlink:href="#DejaVuSans-61"/>
      <use x="343.892578125" xlink:href="#DejaVuSans-72"/>
      <use x="385.005859375" xlink:href="#DejaVuSans-20"/>
      <use x="416.79296875" xlink:href="#DejaVuSans-56"/>
      <use x="477.451171875" xlink:href="#DejaVuSans-61"/>
      <use x="538.73046875" xlink:href="#DejaVuSans-72"/>
      <use x="579.84375" xlink:href="#DejaVuSans-69"/>
      <use x="607.626953125" xlink:href="#DejaVuSans-61"/>
      <use x="668.90625" xlink:href="#DejaVuSans-6e"/>
      <use x="732.28515625" xlink:href="#DejaVuSans-63"/>
      <use x="787.265625" xlink:href="#DejaVuSans-65"/>
     </g>
    </g>
   </g>
   <g id="matplotlib.axis_2">
    <g id="ytick_1">
     <g id="line2d_4">
      <defs>
       <path d="
M0 0
L4 0" id="me8a85f7bf6" style="stroke:#000000;stroke-linecap:butt;stroke-width:0.5;"/>
      </defs>
      <g>
       <use style="stroke:#000000;stroke-linecap:butt;stroke-width:0.5;" x="37.44" xlink:href="#me8a85f7bf6" y="81.0"/>
      </g>
     </g>
     <g id="text_5">
      <!-- 0.0 -->
      <g transform="translate(18.8603125 84.63984375)scale(0.1 -0.1)">
       <use xlink:href="#DejaVuSans-30"/>
       <use x="63.623046875" xlink:href="#DejaVuSans-2e"/>
       <use x="95.41015625" xlink:href="#DejaVuSans-30"/>
      </g>
     </g>
    </g>
    <g id="ytick_2">
     <g id="line2d_5">
      <g>
       <use style="stroke:#000000;stroke-linecap:butt;stroke-width:0.5;" x="37.44" xlink:href="#me8a85f7bf6" y="57.6"/>
      </g>
     </g>
     <g id="text_6">
      <!-- 1.5 -->
      <g transform="translate(19.50875 61.17421875)scale(0.1 -0.1)">
       <use xlink:href="#DejaVuSans-31"/>
       <use x="63.623046875" xlink:href="#DejaVuSans-2e"/>
       <use x="95.41015625" xlink:href="#DejaVuSans-35"/>
      </g>
     </g>
    </g>
    <g id="ytick_3">
     <g id="line2d_6">
      <g>
       <use style="stroke:#000000;stroke-linecap:butt;stroke-width:0.5;" x="37.44" xlink:href="#me8a85f7bf6" y="34.2"/>
      </g>
     </g>
     <g id="text_7">
      <!-- 3.0 -->
      <defs>
       <path d="
M40.5781 39.3125
Q47.6562 37.7969 51.625 33
Q55.6094 28.2188 55.6094 21.1875
Q55.6094 10.4062 48.1875 4.48438
Q40.7656 -1.42188 27.0938 -1.42188
Q22.5156 -1.42188 17.6562 -0.515625
Q12.7969 0.390625 7.625 2.20312
L7.625 11.7188
Q11.7188 9.32812 16.5938 8.10938
Q21.4844 6.89062 26.8125 6.89062
Q36.0781 6.89062 40.9375 10.5469
Q45.7969 14.2031 45.7969 21.1875
Q45.7969 27.6406 41.2812 31.2656
Q36.7656 34.9062 28.7188 34.9062
L20.2188 34.9062
L20.2188 43.0156
L29.1094 43.0156
Q36.375 43.0156 40.2344 45.9219
Q44.0938 48.8281 44.0938 54.2969
Q44.0938 59.9062 40.1094 62.9062
Q36.1406 65.9219 28.7188 65.9219
Q24.6562 65.9219 20.0156 65.0312
Q15.375 64.1562 9.8125 62.3125
L9.8125 71.0938
Q15.4375 72.6562 20.3438 73.4375
Q25.25 74.2188 29.5938 74.2188
Q40.8281 74.2188 47.3594 69.1094
Q53.9062 64.0156 53.9062 55.3281
Q53.9062 49.2656 50.4375 45.0938
Q46.9688 40.9219 40.5781 39.3125" id="DejaVuSans-33"/>
      </defs>
      <g transform="translate(18.9634375 37.83984375)scale(0.1 -0.1)">
       <use xlink:href="#DejaVuSans-33"/>
       <use x="63.623046875" xlink:href="#DejaVuSans-2e"/>
       <use x="95.41015625" xlink:href="#DejaVuSans-30"/>
      </g>
     </g>
    </g>
    <g id="ytick_4">
     <g id="line2d_7">
      <g>
       <use style="stroke:#000000;stroke-linecap:butt;stroke-width:0.5;" x="37.44" xlink:href="#me8a85f7bf6" y="10.8"/>
      </g>
     </g>
     <g id="text_8">
      <!-- 4.5 -->
      <defs>
       <path d="
M37.7969 64.3125
L12.8906 25.3906
L37.7969 25.3906
z

M35.2031 72.9062
L47.6094 72.9062
L47.6094 25.3906
L58.0156 25.3906
L58.0156 17.1875
L47.6094 17.1875
L47.6094 0
L37.7969 0
L37.7969 17.1875
L4.89062 17.1875
L4.89062 26.7031
z
" id="DejaVuSans-34"/>
      </defs>
      <g transform="translate(18.899375 14.37421875)scale(0.1 -0.1)">
       <use xlink:href="#DejaVuSans-34"/>
       <use x="63.623046875" xlink:href="#DejaVuSans-2e"/>
       <use x="95.41015625" xlink:href="#DejaVuSans-35"/>
      </g>
     </g>
    </g>
    <g id="text_9">
     <!-- Count -->
     <defs>
      <path d="
M30.6094 48.3906
Q23.3906 48.3906 19.1875 42.75
Q14.9844 37.1094 14.9844 27.2969
Q14.9844 17.4844 19.1562 11.8438
Q23.3438 6.20312 30.6094 6.20312
Q37.7969 6.20312 41.9844 11.8594
Q46.1875 17.5312 46.1875 27.2969
Q46.1875 37.0156 41.9844 42.7031
Q37.7969 48.3906 30.6094 48.3906
M30.6094 56
Q42.3281 56 49.0156 48.375
Q55.7188 40.7656 55.7188 27.2969
Q55.7188 13.875 49.0156 6.21875
Q42.3281 -1.42188 30.6094 -1.42188
Q18.8438 -1.42188 12.1719 6.21875
Q5.51562 13.875 5.51562 27.2969
Q5.51562 40.7656 12.1719 48.375
Q18.8438 56 30.6094 56" id="DejaVuSans-6f"/>
      <path d="
M18.3125 70.2188
L18.3125 54.6875
L36.8125 54.6875
L36.8125 47.7031
L18.3125 47.7031
L18.3125 18.0156
Q18.3125 11.3281 20.1406 9.42188
Q21.9688 7.51562 27.5938 7.51562
L36.8125 7.51562
L36.8125 0
L27.5938 0
Q17.1875 0 13.2344 3.875
Q9.28125 7.76562 9.28125 18.0156
L9.28125 47.7031
L2.6875 47.7031
L2.6875 54.6875
L9.28125 54.6875
L9.28125 70.2188
z
" id="DejaVuSans-74"/>
     </defs>
     <g transform="translate(13.8603125 60.20625)rotate(-90.0)scale(0.1 -0.1)">
      <use xlink:href="#DejaVuSans-43"/>
      <use x="69.82421875" xlink:href="#DejaVuSans-6f"/>
      <use x="131.005859375" xlink:href="#DejaVuSans-75"/>
      <use x="194.384765625" xlink:href="#DejaVuSans-6e"/>
      <use x="257.763671875" xlink:href="#DejaVuSans-74"/>
     </g>
    </g>
   </g>
   <g id="patch_7">
    <path d="
M37.44 81
L131.04 81" style="fill:none;stroke:#000000;stroke-width:0.5;"/>
   </g>
   <g id="patch_8">
    <path d="
M37.44 81
L37.44 10.8" style="fill:none;stroke:#000000;stroke-width:0.5;"/>
   </g>
  </g>
 </g>
 <defs>
  <clipPath id="pd1317ff781">
   <rect height="70.2" width="93.6" x="37.44" y="10.8"/>
  </clipPath>
 </defs>
</svg>
