<?xml version="1.0" encoding="utf-8" standalone="no"?>
<!DOCTYPE svg PUBLIC "-//W3C//DTD SVG 1.1//EN"
  "http://www.w3.org/Graphics/SVG/1.1/DTD/svg11.dtd">
<!-- Created with matplotlib (http://matplotlib.sourceforge.net/) -->
<svg height="108pt" version="1.1" viewBox="0 0 144 108" width="144pt" xmlns="http://www.w3.org/2000/svg" xmlns:xlink="http://www.w3.org/1999/xlink">
 <defs>
  <style type="text/css">
*{stroke-linecap:square;stroke-linejoin:round;}
  </style>
 </defs>
 <g id="figure_1">
  <g id="patch_1">
   <path d="
M0 108
L144 108
L144 0
L0 0
z
" style="fill:#ffffff;"/>
  </g>
  <g id="axes_1">
   <g id="patch_2">
    <path d="
M37.44 81
L131.04 81
L131.04 10.8
L37.44 10.8
z
" style="fill:#ffffff;"/>
   </g>
   <g id="patch_3">
    <path clip-path="url(#pd1317ff781)" d="
M51.6153 81
L51.6153 80.8615
L53.1973 80.8615
L53.1973 80.7692
L54.7792 80.7692
L54.7792 80.6308
L56.3611 80.6308
L56.3611 80.2616
L57.9431 80.2616
L57.9431 79.7077
L59.525 79.7077
L59.525 78.4154
L61.107 78.4154
L61.107 78.3693
L62.6889 78.3693
L62.6889 76.2001
L64.2709 76.2001
L64.2709 75.0924
L65.8528 75.0924
L65.8528 74.3078
L67.4348 74.3078
L67.4348 71.7694
L69.0167 71.7694
L69.0167 70.3848
L70.5986 70.3848
L70.5986 68.4002
L72.1806 68.4002
L72.1806 66.9233
L73.7625 66.9233
L73.7625 64.0618
L75.3445 64.0618
L75.3445 65.4926
L76.9264 65.4926
L76.9264 60.8772
L78.5084 60.8772
L78.5084 58.9388
L80.0903 58.9388
L80.0903 58.6157
L81.6723 58.6157
L81.6723 55.385
L83.2542 55.385
L83.2542 55.7543
L84.8361 55.7543
L84.8361 54.8773
L86.4181 54.8773
L86.4181 52.9389
L88 52.9389
L88 53.1697
L89.582 53.1697
L89.582 51.4159
L91.1639 51.4159
L91.1639 50.7697
L92.7459 50.7697
L92.7459 51.6466
L94.3278 51.6466
L94.3278 46.8929
L95.9098 46.8929
L95.9098 50.4466
L97.4917 50.4466
L97.4917 47.0313
L99.0736 47.0313
L99.0736 49.939
L100.656 49.939
L100.656 48.8774
L102.238 48.8774
L102.238 50.0774
L103.819 50.0774
L103.819 48.9697
L105.401 48.9697
L105.401 49.4313
L106.983 49.4313
L106.983 50.539
L108.565 50.539
L108.565 51.6005
L110.147 51.6005
L110.147 53.3543
L111.729 53.3543
L111.729 55.1081
L113.311 55.1081
L113.311 56.1696
L114.893 56.1696
L114.893 55.8004
L116.475 55.8004
L116.475 58.8465
L118.057 58.8465
L118.057 60.6003
L119.639 60.6003
L119.639 64.9387
L121.221 64.9387
L121.221 65.4464
L122.803 65.4464
L122.803 67.1541
L124.385 67.1541
L124.385 71.1694
L125.967 71.1694
L125.967 73.8001
L127.549 73.8001
L127.549 76.2462
L129.131 76.2462
L129.131 78.5077
L130.713 78.5077
L130.713 81" style="fill:none;stroke:#0000ff;stroke-width:0.5;"/>
   </g>
   <g id="patch_4">
    <path clip-path="url(#pd1317ff781)" d="
M50.686 81
L50.686 80.9543
L52.2821 80.9543
L52.2821 80.8628
L53.8782 80.8628
L53.8782 80.5883
L55.4743 80.5883
L55.4743 80.1766
L57.0704 80.1766
L57.0704 80.1309
L58.6665 80.1309
L58.6665 79.7192
L60.2626 79.7192
L60.2626 78.2554
L61.8587 78.2554
L61.8587 76.4713
L63.4547 76.4713
L63.4547 76.2426
L65.0508 76.2426
L65.0508 74.3214
L66.6469 74.3214
L66.6469 73.2235
L68.243 73.2235
L68.243 72.4459
L69.8391 72.4459
L69.8391 68.7864
L71.4352 68.7864
L71.4352 65.7215
L73.0313 65.7215
L73.0313 66.4534
L74.6274 66.4534
L74.6274 63.663
L76.2235 63.663
L76.2235 61.7875
L77.8196 61.7875
L77.8196 60.5524
L79.4157 60.5524
L79.4157 59.5003
L81.0118 59.5003
L81.0118 55.2461
L82.6079 55.2461
L82.6079 54.8802
L84.204 54.8802
L84.204 53.0504
L85.8001 53.0504
L85.8001 52.6845
L87.3962 52.6845
L87.3962 53.3249
L88.9922 53.3249
L88.9922 52.8675
L90.5883 52.8675
L90.5883 52.593
L92.1844 52.593
L92.1844 50.8547
L93.7805 50.8547
L93.7805 47.6069
L95.3766 47.6069
L95.3766 48.1558
L96.9727 48.1558
L96.9727 47.058
L98.5688 47.058
L98.5688 47.4239
L100.165 47.4239
L100.165 47.9271
L101.761 47.9271
L101.761 49.0707
L103.357 49.0707
L103.357 49.9856
L104.953 49.9856
L104.953 48.2931
L106.549 48.2931
L106.549 50.992
L108.145 50.992
L108.145 50.809
L109.741 50.809
L109.741 53.4621
L111.338 53.4621
L111.338 53.0962
L112.934 53.0962
L112.934 55.1547
L114.53 55.1547
L114.53 58.7684
L116.126 58.7684
L116.126 59.8205
L117.722 59.8205
L117.722 62.9769
L119.318 62.9769
L119.318 64.8981
L120.914 64.8981
L120.914 65.5843
L122.51 65.5843
L122.51 69.381
L124.106 69.381
L124.106 71.4395
L125.702 71.4395
L125.702 73.315
L127.298 73.315
L127.298 76.0597
L128.895 76.0597
L128.895 78.5298
L130.491 78.5298
L130.491 81" style="fill:none;stroke:#008000;stroke-width:0.5;"/>
   </g>
   <g id="patch_5">
    <path clip-path="url(#pd1317ff781)" d="
M52.9794 81
L52.9794 80.7178
L54.5317 80.7178
L54.5317 80.5296
L56.0839 80.5296
L56.0839 80.3415
L57.6362 80.3415
L57.6362 79.683
L59.1884 79.683
L59.1884 78.9304
L60.7407 78.9304
L60.7407 77.6604
L62.2929 77.6604
L62.2929 77.1901
L63.8452 77.1901
L63.8452 75.4027
L65.3974 75.4027
L65.3974 73.2861
L66.9497 73.2861
L66.9497 72.3454
L68.5019 72.3454
L68.5019 71.3106
L70.0542 71.3106
L70.0542 69.4762
L71.6064 69.4762
L71.6064 68.4884
L73.1587 68.4884
L73.1587 65.9015
L74.7109 65.9015
L74.7109 64.1141
L76.2632 64.1141
L76.2632 63.0793
L77.8154 63.0793
L77.8154 61.9034
L79.3677 61.9034
L79.3677 59.9749
L80.9199 59.9749
L80.9199 58.799
L82.4722 58.799
L82.4722 56.4943
L84.0244 56.4943
L84.0244 54.0954
L85.5767 54.0954
L85.5767 52.3081
L87.129 52.3081
L87.129 52.8255
L88.6812 52.8255
L88.6812 50.2855
L90.2335 50.2855
L90.2335 50.4266
L91.7857 50.4266
L91.7857 47.4634
L93.338 47.4634
L93.338 47.7926
L94.8902 47.7926
L94.8902 48.7804
L96.4425 48.7804
L96.4425 51.1792
L97.9947 51.1792
L97.9947 47.7456
L99.547 47.7456
L99.547 47.3693
L101.099 47.3693
L101.099 50.0033
L102.651 50.0033
L102.651 49.7681
L104.204 49.7681
L104.204 48.4982
L105.756 48.4982
L105.756 50.6618
L107.308 50.6618
L107.308 50.5677
L108.86 50.5677
L108.86 50.9911
L110.413 50.9911
L110.413 54.5658
L111.965 54.5658
L111.965 54.5188
L113.517 54.5188
L113.517 54.0484
L115.069 54.0484
L115.069 58.5639
L116.622 58.5639
L116.622 60.069
L118.174 60.069
L118.174 62.5619
L119.726 62.5619
L119.726 62.3267
L121.279 62.3267
L121.279 67.0303
L122.831 67.0303
L122.831 68.5825
L124.383 68.5825
L124.383 70.6991
L125.935 70.6991
L125.935 74.1328
L127.488 74.1328
L127.488 76.8608
L129.04 76.8608
L129.04 78.9775
L130.592 78.9775
L130.592 81" style="fill:none;stroke:#ff0000;stroke-width:0.5;"/>
   </g>
   <g id="patch_6">
    <path clip-path="url(#pd1317ff781)" d="
M52.8903 81
L52.8903 80.8127
L54.4494 80.8127
L54.4494 80.6254
L56.0084 80.6254
L56.0084 80.0166
L57.5675 80.0166
L57.5675 79.4546
L59.1265 79.4546
L59.1265 79.3141
L60.6856 79.3141
L60.6856 78.4243
L62.2446 78.4243
L62.2446 77.2067
L63.8037 77.2067
L63.8037 75.0525
L65.3627 75.0525
L65.3627 74.069
L66.9218 74.069
L66.9218 72.2426
L68.4808 72.2426
L68.4808 71.025
L70.0399 71.025
L70.0399 68.262
L71.5989 68.262
L71.5989 67.9342
L73.158 67.9342
L73.158 67.1849
L74.717 67.1849
L74.717 64.6092
L76.2761 64.6092
L76.2761 61.7057
L77.8351 61.7057
L77.8351 59.411
L79.3942 59.411
L79.3942 60.6286
L80.9532 60.6286
L80.9532 56.7416
L82.5123 56.7416
L82.5123 55.1494
L84.0713 55.1494
L84.0713 54.4001
L85.6304 54.4001
L85.6304 52.3864
L87.1895 52.3864
L87.1895 52.5269
L88.7485 52.5269
L88.7485 51.0283
L90.3076 51.0283
L90.3076 50.4663
L91.8666 50.4663
L91.8666 49.2487
L93.4257 49.2487
L93.4257 46.7667
L94.9847 46.7667
L94.9847 50.1853
L96.5438 50.1853
L96.5438 48.6399
L98.1028 48.6399
L98.1028 48.4526
L99.6619 48.4526
L99.6619 46.8603
L101.221 46.8603
L101.221 44.7998
L102.78 44.7998
L102.78 49.6234
L104.339 49.6234
L104.339 49.2955
L105.898 49.2955
L105.898 50.6068
L107.457 50.6068
L107.457 50.6536
L109.016 50.6536
L109.016 51.9649
L110.575 51.9649
L110.575 55.4304
L112.134 55.4304
L112.134 57.8188
L113.693 57.8188
L113.693 57.6314
L115.252 57.6314
L115.252 57.9592
L116.811 57.9592
L116.811 58.9895
L118.37 58.9895
L118.37 62.4082
L119.93 62.4082
L119.93 65.3585
L121.489 65.3585
L121.489 67.981
L123.048 67.981
L123.048 69.386
L124.607 69.386
L124.607 71.3997
L126.166 71.3997
L126.166 74.7247
L127.725 74.7247
L127.725 76.9726
L129.284 76.9726
L129.284 79.5951
L130.843 79.5951
L130.843 81" style="fill:none;stroke:#00bfbf;stroke-width:0.5;"/>
   </g>
   <g id="matplotlib.axis_1">
    <g id="xtick_1">
     <g id="line2d_1">
      <defs>
       <path d="
M0 0
L0 -4" id="m0012dd4eef" style="stroke:#000000;stroke-linecap:butt;stroke-width:0.5;"/>
      </defs>
      <g>
       <use style="stroke:#000000;stroke-linecap:butt;stroke-width:0.5;" x="37.44" xlink:href="#m0012dd4eef" y="81.0"/>
      </g>
     </g>
     <g id="text_1">
      <!-- 0.0 -->
      <defs>
       <path d="
M31.7812 66.4062
Q24.1719 66.4062 20.3281 58.9062
Q16.5 51.4219 16.5 36.375
Q16.5 21.3906 20.3281 13.8906
Q24.1719 6.39062 31.7812 6.39062
Q39.4531 6.39062 43.2812 13.8906
Q47.125 21.3906 47.125 36.375
Q47.125 51.4219 43.2812 58.9062
Q39.4531 66.4062 31.7812 66.4062
M31.7812 74.2188
Q44.0469 74.2188 50.5156 64.5156
Q56.9844 54.8281 56.9844 36.375
Q56.9844 17.9688 50.5156 8.26562
Q44.0469 -1.42188 31.7812 -1.42188
Q19.5312 -1.42188 13.0625 8.26562
Q6.59375 17.9688 6.59375 36.375
Q6.59375 54.8281 13.0625 64.5156
Q19.5312 74.2188 31.7812 74.2188" id="DejaVuSans-30"/>
       <path d="
M10.6875 12.4062
L21 12.4062
L21 0
L10.6875 0
z
" id="DejaVuSans-2e"/>
      </defs>
      <g transform="translate(30.15015625 92.421875)scale(0.1 -0.1)">
       <use xlink:href="#DejaVuSans-30"/>
       <use x="63.623046875" xlink:href="#DejaVuSans-2e"/>
       <use x="95.41015625" xlink:href="#DejaVuSans-30"/>
      </g>
     </g>
    </g>
    <g id="xtick_2">
     <g id="line2d_2">
      <g>
       <use style="stroke:#000000;stroke-linecap:butt;stroke-width:0.5;" x="84.24" xlink:href="#m0012dd4eef" y="81.0"/>
      </g>
     </g>
     <g id="text_2">
      <!-- 0.5 -->
      <defs>
       <path d="
M10.7969 72.9062
L49.5156 72.9062
L49.5156 64.5938
L19.8281 64.5938
L19.8281 46.7344
Q21.9688 47.4688 24.1094 47.8281
Q26.2656 48.1875 28.4219 48.1875
Q40.625 48.1875 47.75 41.5
Q54.8906 34.8125 54.8906 23.3906
Q54.8906 11.625 47.5625 5.09375
Q40.2344 -1.42188 26.9062 -1.42188
Q22.3125 -1.42188 17.5469 -0.640625
Q12.7969 0.140625 7.71875 1.70312
L7.71875 11.625
Q12.1094 9.23438 16.7969 8.0625
Q21.4844 6.89062 26.7031 6.89062
Q35.1562 6.89062 40.0781 11.3281
Q45.0156 15.7656 45.0156 23.3906
Q45.0156 31 40.0781 35.4375
Q35.1562 39.8906 26.7031 39.8906
Q22.75 39.8906 18.8125 39.0156
Q14.8906 38.1406 10.7969 36.2812
z
" id="DejaVuSans-35"/>
      </defs>
      <g transform="translate(77.05484375 92.421875)scale(0.1 -0.1)">
       <use xlink:href="#DejaVuSans-30"/>
       <use x="63.623046875" xlink:href="#DejaVuSans-2e"/>
       <use x="95.41015625" xlink:href="#DejaVuSans-35"/>
      </g>
     </g>
    </g>
    <g id="xtick_3">
     <g id="line2d_3">
      <g>
       <use style="stroke:#000000;stroke-linecap:butt;stroke-width:0.5;" x="131.04" xlink:href="#m0012dd4eef" y="81.0"/>
      </g>
     </g>
     <g id="text_3">
      <!-- 1.0 -->
      <defs>
       <path d="
M12.4062 8.29688
L28.5156 8.29688
L28.5156 63.9219
L10.9844 60.4062
L10.9844 69.3906
L28.4219 72.9062
L38.2812 72.9062
L38.2812 8.29688
L54.3906 8.29688
L54.3906 0
L12.4062 0
z
" id="DejaVuSans-31"/>
      </defs>
      <g transform="translate(123.9696875 92.421875)scale(0.1 -0.1)">
       <use xlink:href="#DejaVuSans-31"/>
       <use x="63.623046875" xlink:href="#DejaVuSans-2e"/>
       <use x="95.41015625" xlink:href="#DejaVuSans-30"/>
      </g>
     </g>
    </g>
    <g id="text_4">
     <!-- Circular Variance -->
     <defs>
      <path d="
M54.8906 33.0156
L54.8906 0
L45.9062 0
L45.9062 32.7188
Q45.9062 40.4844 42.875 44.3281
Q39.8438 48.1875 33.7969 48.1875
Q26.5156 48.1875 22.3125 43.5469
Q18.1094 38.9219 18.1094 30.9062
L18.1094 0
L9.07812 0
L9.07812 54.6875
L18.1094 54.6875
L18.1094 46.1875
Q21.3438 51.125 25.7031 53.5625
Q30.0781 56 35.7969 56
Q45.2188 56 50.0469 50.1719
Q54.8906 44.3438 54.8906 33.0156" id="DejaVuSans-6e"/>
      <path d="
M64.4062 67.2812
L64.4062 56.8906
Q59.4219 61.5312 53.7812 63.8125
Q48.1406 66.1094 41.7969 66.1094
Q29.2969 66.1094 22.6562 58.4688
Q16.0156 50.8281 16.0156 36.375
Q16.0156 21.9688 22.6562 14.3281
Q29.2969 6.6875 41.7969 6.6875
Q48.1406 6.6875 53.7812 8.98438
Q59.4219 11.2812 64.4062 15.9219
L64.4062 5.60938
Q59.2344 2.09375 53.4375 0.328125
Q47.6562 -1.42188 41.2188 -1.42188
Q24.6562 -1.42188 15.125 8.70312
Q5.60938 18.8438 5.60938 36.375
Q5.60938 53.9531 15.125 64.0781
Q24.6562 74.2188 41.2188 74.2188
Q47.75 74.2188 53.5312 72.4844
Q59.3281 70.75 64.4062 67.2812" id="DejaVuSans-43"/>
      <path d="
M9.42188 75.9844
L18.4062 75.9844
L18.4062 0
L9.42188 0
z
" id="DejaVuSans-6c"/>
      <path d="
M28.6094 0
L0.78125 72.9062
L11.0781 72.9062
L34.1875 11.5312
L57.3281 72.9062
L67.5781 72.9062
L39.7969 0
z
" id="DejaVuSans-56"/>
      <path id="DejaVuSans-20"/>
      <path d="
M56.2031 29.5938
L56.2031 25.2031
L14.8906 25.2031
Q15.4844 15.9219 20.4844 11.0625
Q25.4844 6.20312 34.4219 6.20312
Q39.5938 6.20312 44.4531 7.46875
Q49.3125 8.73438 54.1094 11.2812
L54.1094 2.78125
Q49.2656 0.734375 44.1875 -0.34375
Q39.1094 -1.42188 33.8906 -1.42188
Q20.7969 -1.42188 13.1562 6.1875
Q5.51562 13.8125 5.51562 26.8125
Q5.51562 40.2344 12.7656 48.1094
Q20.0156 56 32.3281 56
Q43.3594 56 49.7812 48.8906
Q56.2031 41.7969 56.2031 29.5938
M47.2188 32.2344
Q47.125 39.5938 43.0938 43.9844
Q39.0625 48.3906 32.4219 48.3906
Q24.9062 48.3906 20.3906 44.1406
Q15.875 39.8906 15.1875 32.1719
z
" id="DejaVuSans-65"/>
      <path d="
M9.42188 54.6875
L18.4062 54.6875
L18.4062 0
L9.42188 0
z

M9.42188 75.9844
L18.4062 75.9844
L18.4062 64.5938
L9.42188 64.5938
z
" id="DejaVuSans-69"/>
      <path d="
M8.5 21.5781
L8.5 54.6875
L17.4844 54.6875
L17.4844 21.9219
Q17.4844 14.1562 20.5 10.2656
Q23.5312 6.39062 29.5938 6.39062
Q36.8594 6.39062 41.0781 11.0312
Q45.3125 15.6719 45.3125 23.6875
L45.3125 54.6875
L54.2969 54.6875
L54.2969 0
L45.3125 0
L45.3125 8.40625
Q42.0469 3.42188 37.7188 1
Q33.4062 -1.42188 27.6875 -1.42188
Q18.2656 -1.42188 13.375 4.4375
Q8.5 10.2969 8.5 21.5781
M31.1094 56
z
" id="DejaVuSans-75"/>
      <path d="
M34.2812 27.4844
Q23.3906 27.4844 19.1875 25
Q14.9844 22.5156 14.9844 16.5
Q14.9844 11.7188 18.1406 8.90625
Q21.2969 6.10938 26.7031 6.10938
Q34.1875 6.10938 38.7031 11.4062
Q43.2188 16.7031 43.2188 25.4844
L43.2188 27.4844
z

M52.2031 31.2031
L52.2031 0
L43.2188 0
L43.2188 8.29688
Q40.1406 3.32812 35.5469 0.953125
Q30.9531 -1.42188 24.3125 -1.42188
Q15.9219 -1.42188 10.9531 3.29688
Q6 8.01562 6 15.9219
Q6 25.1406 12.1719 29.8281
Q18.3594 34.5156 30.6094 34.5156
L43.2188 34.5156
L43.2188 35.4062
Q43.2188 41.6094 39.1406 45
Q35.0625 48.3906 27.6875 48.3906
Q23 48.3906 18.5469 47.2656
Q14.1094 46.1406 10.0156 43.8906
L10.0156 52.2031
Q14.9375 54.1094 19.5781 55.0469
Q24.2188 56 28.6094 56
Q40.4844 56 46.3438 49.8438
Q52.2031 43.7031 52.2031 31.2031" id="DejaVuSans-61"/>
      <path d="
M48.7812 52.5938
L48.7812 44.1875
Q44.9688 46.2969 41.1406 47.3438
Q37.3125 48.3906 33.4062 48.3906
Q24.6562 48.3906 19.8125 42.8438
Q14.9844 37.3125 14.9844 27.2969
Q14.9844 17.2812 19.8125 11.7344
Q24.6562 6.20312 33.4062 6.20312
Q37.3125 6.20312 41.1406 7.25
Q44.9688 8.29688 48.7812 10.4062
L48.7812 2.09375
Q45.0156 0.34375 40.9844 -0.53125
Q36.9688 -1.42188 32.4219 -1.42188
Q20.0625 -1.42188 12.7812 6.34375
Q5.51562 14.1094 5.51562 27.2969
Q5.51562 40.6719 12.8594 48.3281
Q20.2188 56 33.0156 56
Q37.1562 56 41.1094 55.1406
Q45.0625 54.2969 48.7812 52.5938" id="DejaVuSans-63"/>
      <path d="
M41.1094 46.2969
Q39.5938 47.1719 37.8125 47.5781
Q36.0312 48 33.8906 48
Q26.2656 48 22.1875 43.0469
Q18.1094 38.0938 18.1094 28.8125
L18.1094 0
L9.07812 0
L9.07812 54.6875
L18.1094 54.6875
L18.1094 46.1875
Q20.9531 51.1719 25.4844 53.5781
Q30.0312 56 36.5312 56
Q37.4531 56 38.5781 55.875
Q39.7031 55.7656 41.0625 55.5156
z
" id="DejaVuSans-72"/>
     </defs>
     <g transform="translate(42.06734375 105.1625)scale(0.1 -0.1)">
      <use xlink:href="#DejaVuSans-43"/>
      <use x="69.82421875" xlink:href="#DejaVuSans-69"/>
      <use x="97.607421875" xlink:href="#DejaVuSans-72"/>
      <use x="136.470703125" xlink:href="#DejaVuSans-63"/>
      <use x="191.451171875" xlink:href="#DejaVuSans-75"/>
      <use x="254.830078125" xlink:href="#DejaVuSans-6c"/>
      <use x="282.61328125" xlink:href="#DejaVuSans-61"/>
      <use x="343.892578125" xlink:href="#DejaVuSans-72"/>
      <use x="385.005859375" xlink:href="#DejaVuSans-20"/>
      <use x="416.79296875" xlink:href="#DejaVuSans-56"/>
      <use x="477.451171875" xlink:href="#DejaVuSans-61"/>
      <use x="538.73046875" xlink:href="#DejaVuSans-72"/>
      <use x="579.84375" xlink:href="#DejaVuSans-69"/>
      <use x="607.626953125" xlink:href="#DejaVuSans-61"/>
      <use x="668.90625" xlink:href="#DejaVuSans-6e"/>
      <use x="732.28515625" xlink:href="#DejaVuSans-63"/>
      <use x="787.265625" xlink:href="#DejaVuSans-65"/>
     </g>
    </g>
   </g>
   <g id="matplotlib.axis_2">
    <g id="ytick_1">
     <g id="line2d_4">
      <defs>
       <path d="
M0 0
L4 0" id="me8a85f7bf6" style="stroke:#000000;stroke-linecap:butt;stroke-width:0.5;"/>
      </defs>
      <g>
       <use style="stroke:#000000;stroke-linecap:butt;stroke-width:0.5;" x="37.44" xlink:href="#me8a85f7bf6" y="81.0"/>
      </g>
     </g>
     <g id="text_5">
      <!-- 0.0 -->
      <g transform="translate(18.8603125 84.63984375)scale(0.1 -0.1)">
       <use xlink:href="#DejaVuSans-30"/>
       <use x="63.623046875" xlink:href="#DejaVuSans-2e"/>
       <use x="95.41015625" xlink:href="#DejaVuSans-30"/>
      </g>
     </g>
    </g>
    <g id="ytick_2">
     <g id="line2d_5">
      <g>
       <use style="stroke:#000000;stroke-linecap:butt;stroke-width:0.5;" x="37.44" xlink:href="#me8a85f7bf6" y="57.6"/>
      </g>
     </g>
     <g id="text_6">
      <!-- 1.5 -->
      <g transform="translate(19.50875 61.17421875)scale(0.1 -0.1)">
       <use xlink:href="#DejaVuSans-31"/>
       <use x="63.623046875" xlink:href="#DejaVuSans-2e"/>
       <use x="95.41015625" xlink:href="#DejaVuSans-35"/>
      </g>
     </g>
    </g>
    <g id="ytick_3">
     <g id="line2d_6">
      <g>
       <use style="stroke:#000000;stroke-linecap:butt;stroke-width:0.5;" x="37.44" xlink:href="#me8a85f7bf6" y="34.2"/>
      </g>
     </g>
     <g id="text_7">
      <!-- 3.0 -->
      <defs>
       <path d="
M40.5781 39.3125
Q47.6562 37.7969 51.625 33
Q55.6094 28.2188 55.6094 21.1875
Q55.6094 10.4062 48.1875 4.48438
Q40.7656 -1.42188 27.0938 -1.42188
Q22.5156 -1.42188 17.6562 -0.515625
Q12.7969 0.390625 7.625 2.20312
L7.625 11.7188
Q11.7188 9.32812 16.5938 8.10938
Q21.4844 6.89062 26.8125 6.89062
Q36.0781 6.89062 40.9375 10.5469
Q45.7969 14.2031 45.7969 21.1875
Q45.7969 27.6406 41.2812 31.2656
Q36.7656 34.9062 28.7188 34.9062
L20.2188 34.9062
L20.2188 43.0156
L29.1094 43.0156
Q36.375 43.0156 40.2344 45.9219
Q44.0938 48.8281 44.0938 54.2969
Q44.0938 59.9062 40.1094 62.9062
Q36.1406 65.9219 28.7188 65.9219
Q24.6562 65.9219 20.0156 65.0312
Q15.375 64.1562 9.8125 62.3125
L9.8125 71.0938
Q15.4375 72.6562 20.3438 73.4375
Q25.25 74.2188 29.5938 74.2188
Q40.8281 74.2188 47.3594 69.1094
Q53.9062 64.0156 53.9062 55.3281
Q53.9062 49.2656 50.4375 45.0938
Q46.9688 40.9219 40.5781 39.3125" id="DejaVuSans-33"/>
      </defs>
      <g transform="translate(18.9634375 37.83984375)scale(0.1 -0.1)">
       <use xlink:href="#DejaVuSans-33"/>
       <use x="63.623046875" xlink:href="#DejaVuSans-2e"/>
       <use x="95.41015625" xlink:href="#DejaVuSans-30"/>
      </g>
     </g>
    </g>
    <g id="ytick_4">
     <g id="line2d_7">
      <g>
       <use style="stroke:#000000;stroke-linecap:butt;stroke-width:0.5;" x="37.44" xlink:href="#me8a85f7bf6" y="10.8"/>
      </g>
     </g>
     <g id="text_8">
      <!-- 4.5 -->
      <defs>
       <path d="
M37.7969 64.3125
L12.8906 25.3906
L37.7969 25.3906
z

M35.2031 72.9062
L47.6094 72.9062
L47.6094 25.3906
L58.0156 25.3906
L58.0156 17.1875
L47.6094 17.1875
L47.6094 0
L37.7969 0
L37.7969 17.1875
L4.89062 17.1875
L4.89062 26.7031
z
" id="DejaVuSans-34"/>
      </defs>
      <g transform="translate(18.899375 14.37421875)scale(0.1 -0.1)">
       <use xlink:href="#DejaVuSans-34"/>
       <use x="63.623046875" xlink:href="#DejaVuSans-2e"/>
       <use x="95.41015625" xlink:href="#DejaVuSans-35"/>
      </g>
     </g>
    </g>
    <g id="text_9">
     <!-- Count -->
     <defs>
      <path d="
M30.6094 48.3906
Q23.3906 48.3906 19.1875 42.75
Q14.9844 37.1094 14.9844 27.2969
Q14.9844 17.4844 19.1562 11.8438
Q23.3438 6.20312 30.6094 6.20312
Q37.7969 6.20312 41.9844 11.8594
Q46.1875 17.5312 46.1875 27.2969
Q46.1875 37.0156 41.9844 42.7031
Q37.7969 48.3906 30.6094 48.3906
M30.6094 56
Q42.3281 56 49.0156 48.375
Q55.7188 40.7656 55.7188 27.2969
Q55.7188 13.875 49.0156 6.21875
Q42.3281 -1.42188 30.6094 -1.42188
Q18.8438 -1.42188 12.1719 6.21875
Q5.51562 13.875 5.51562 27.2969
Q5.51562 40.7656 12.1719 48.375
Q18.8438 56 30.6094 56" id="DejaVuSans-6f"/>
      <path d="
M18.3125 70.2188
L18.3125 54.6875
L36.8125 54.6875
L36.8125 47.7031
L18.3125 47.7031
L18.3125 18.0156
Q18.3125 11.3281 20.1406 9.42188
Q21.9688 7.51562 27.5938 7.51562
L36.8125 7.51562
L36.8125 0
L27.5938 0
Q17.1875 0 13.2344 3.875
Q9.28125 7.76562 9.28125 18.0156
L9.28125 47.7031
L2.6875 47.7031
L2.6875 54.6875
L9.28125 54.6875
L9.28125 70.2188
z
" id="DejaVuSans-74"/>
     </defs>
     <g transform="translate(13.8603125 60.20625)rotate(-90.0)scale(0.1 -0.1)">
      <use xlink:href="#DejaVuSans-43"/>
      <use x="69.82421875" xlink:href="#DejaVuSans-6f"/>
      <use x="131.005859375" xlink:href="#DejaVuSans-75"/>
      <use x="194.384765625" xlink:href="#DejaVuSans-6e"/>
      <use x="257.763671875" xlink:href="#DejaVuSans-74"/>
     </g>
    </g>
   </g>
   <g id="patch_7">
    <path d="
M37.44 81
L131.04 81" style="fill:none;stroke:#000000;stroke-width:0.5;"/>
   </g>
   <g id="patch_8">
    <path d="
M37.44 81
L37.44 10.8" style="fill:none;stroke:#000000;stroke-width:0.5;"/>
   </g>
  </g>
 </g>
 <defs>
  <clipPath id="pd1317ff781">
   <rect height="70.2" width="93.6" x="37.44" y="10.8"/>
  </clipPath>
 </defs>
</svg>
